CrimsonText-Regular jlb 10-Bold_SC.ufo
<glyph name="exclam" format="1">
  <advance width="141"/>
  <unicode hex="0021"/>
  <outline>
    <contour>
      <point x="70" y="150" type="curve"/>
      <point x="81" y="150"/>
      <point x="87" y="156"/>
      <point x="90" y="173" type="curve"/>
      <point x="100" y="224"/>
      <point x="126" y="366"/>
      <point x="126" y="391" type="curve"/>
      <point x="126" y="421"/>
      <point x="100" y="442"/>
      <point x="72" y="442" type="curve"/>
      <point x="40" y="442"/>
      <point x="15" y="421"/>
      <point x="15" y="391" type="curve"/>
      <point x="15" y="366"/>
      <point x="40" y="224"/>
      <point x="50" y="173" type="curve"/>
      <point x="53" y="156"/>
      <point x="58" y="150"/>
    </contour>
    <contour>
      <point x="73" y="-6" type="curve"/>
      <point x="106" y="-6"/>
      <point x="132" y="23"/>
      <point x="132" y="55" type="curve"/>
      <point x="132" y="87"/>
      <point x="104" y="112"/>
      <point x="70" y="112" type="curve"/>
      <point x="26" y="112"/>
      <point x="9" y="82"/>
      <point x="9" y="54" type="curve"/>
      <point x="9" y="25"/>
      <point x="27" y="-6"/>
    </contour>
  </outline>
</glyph>
<glyph name="numbersign" format="1">
  <advance width="351"/>
  <unicode hex="0023"/>
  <outline>
    <contour>
      <point x="179" y="367" type="line"/>
      <point x="124" y="367" type="line"/>
      <point x="64" y="0" type="line"/>
      <point x="120" y="0" type="line"/>
    </contour>
    <contour>
      <point x="286" y="367" type="line"/>
      <point x="230" y="367" type="line"/>
      <point x="170" y="0" type="line"/>
      <point x="226" y="0" type="line"/>
    </contour>
    <contour>
      <point x="330" y="260" type="line"/>
      <point x="21" y="260" type="line"/>
      <point x="21" y="211" type="line"/>
      <point x="330" y="211" type="line"/>
    </contour>
    <contour>
      <point x="330" y="166" type="line"/>
      <point x="21" y="166" type="line"/>
      <point x="21" y="117" type="line"/>
      <point x="330" y="117" type="line"/>
    </contour>
  </outline>
</glyph>
<glyph name="ampersand" format="1">
  <advance width="622"/>
  <unicode hex="0026"/>
  <outline>
    <contour>
      <point x="208" y="-2" type="curve"/>
      <point x="329" y="-2"/>
      <point x="411" y="59"/>
      <point x="505" y="181" type="curve"/>
      <point x="513" y="188"/>
      <point x="537" y="193"/>
      <point x="565" y="193" type="curve"/>
      <point x="568" y="193"/>
      <point x="570" y="199"/>
      <point x="570" y="208" type="curve"/>
      <point x="570" y="219"/>
      <point x="568" y="226"/>
      <point x="566" y="227" type="curve"/>
      <point x="512" y="227"/>
      <point x="483" y="226"/>
      <point x="467" y="226" type="curve"/>
      <point x="423" y="226"/>
      <point x="393" y="227"/>
      <point x="369" y="229" type="curve"/>
      <point x="367" y="223"/>
      <point x="367" y="218"/>
      <point x="367" y="212" type="curve"/>
      <point x="367" y="204"/>
      <point x="367" y="197"/>
      <point x="368" y="192" type="curve"/>
      <point x="420" y="192"/>
      <point x="430" y="190"/>
      <point x="430" y="181" type="curve"/>
      <point x="430" y="165"/>
      <point x="407" y="138"/>
      <point x="361" y="101" type="curve"/>
      <point x="319" y="67"/>
      <point x="294" y="59"/>
      <point x="242" y="59" type="curve"/>
      <point x="192" y="59"/>
      <point x="152" y="90"/>
      <point x="152" y="131" type="curve"/>
      <point x="152" y="164"/>
      <point x="176" y="195"/>
      <point x="234" y="228" type="curve"/>
      <point x="331" y="282"/>
      <point x="371" y="325"/>
      <point x="371" y="364" type="curve"/>
      <point x="371" y="428"/>
      <point x="314" y="458"/>
      <point x="240" y="458" type="curve"/>
      <point x="154" y="458"/>
      <point x="85" y="398"/>
      <point x="85" y="338" type="curve"/>
      <point x="85" y="288"/>
      <point x="109" y="260"/>
      <point x="178" y="169" type="curve"/>
      <point x="281" y="33"/>
      <point x="337" y="0"/>
      <point x="430" y="0" type="curve"/>
      <point x="501" y="0"/>
      <point x="549" y="17"/>
      <point x="586" y="88" type="curve"/>
      <point x="586" y="100"/>
      <point x="550" y="113"/>
      <point x="546" y="113" type="curve"/>
      <point x="527" y="78"/>
      <point x="501" y="63"/>
      <point x="489" y="63" type="curve"/>
      <point x="424" y="63"/>
      <point x="392" y="89"/>
      <point x="283" y="211" type="curve"/>
      <point x="225" y="276"/>
      <point x="197" y="321"/>
      <point x="197" y="359" type="curve"/>
      <point x="197" y="392"/>
      <point x="206" y="408"/>
      <point x="235" y="408" type="curve"/>
      <point x="254" y="408"/>
      <point x="275" y="389"/>
      <point x="275" y="365" type="curve"/>
      <point x="275" y="311"/>
      <point x="252" y="286"/>
      <point x="164" y="245" type="curve"/>
      <point x="67" y="200"/>
      <point x="25" y="163"/>
      <point x="25" y="109" type="curve"/>
      <point x="25" y="39"/>
      <point x="96" y="-2"/>
    </contour>
  </outline>
</glyph>
<glyph name="quotesingle" format="1">
  <advance width="183"/>
  <unicode hex="0027"/>
  <outline>
    <contour>
      <point x="91" y="480" type="curve"/>
      <point x="50" y="480"/>
      <point x="29" y="458"/>
      <point x="29" y="428" type="curve"/>
      <point x="29" y="404"/>
      <point x="66" y="332"/>
      <point x="68" y="275" type="curve"/>
      <point x="69" y="256"/>
      <point x="75" y="250"/>
      <point x="91" y="250" type="curve"/>
      <point x="108" y="250"/>
      <point x="115" y="256"/>
      <point x="115" y="275" type="curve"/>
      <point x="117" y="332"/>
      <point x="154" y="404"/>
      <point x="154" y="428" type="curve"/>
      <point x="154" y="458"/>
      <point x="132" y="480"/>
    </contour>
  </outline>
</glyph>
<glyph name="parenleft" format="1">
  <advance width="223"/>
  <unicode hex="0028"/>
  <outline>
    <contour>
      <point x="121" y="215" type="curve"/>
      <point x="121" y="335"/>
      <point x="168" y="461"/>
      <point x="226" y="495" type="curve"/>
      <point x="210" y="515" type="line"/>
      <point x="98" y="480"/>
      <point x="-3" y="338"/>
      <point x="-3" y="215" type="curve"/>
      <point x="-3" y="92"/>
      <point x="98" y="-50"/>
      <point x="210" y="-86" type="curve"/>
      <point x="226" y="-65" type="line"/>
      <point x="168" y="-31"/>
      <point x="121" y="94"/>
    </contour>
  </outline>
</glyph>
<glyph name="parenright" format="1">
  <advance width="223"/>
  <unicode hex="0029"/>
  <outline>
    <contour>
      <point x="102" y="215" type="curve"/>
      <point x="102" y="94"/>
      <point x="55" y="-31"/>
      <point x="-3" y="-65" type="curve"/>
      <point x="13" y="-86" type="line"/>
      <point x="125" y="-50"/>
      <point x="226" y="92"/>
      <point x="226" y="215" type="curve"/>
      <point x="226" y="338"/>
      <point x="125" y="480"/>
      <point x="13" y="515" type="curve"/>
      <point x="-3" y="495" type="line"/>
      <point x="55" y="461"/>
      <point x="102" y="335"/>
    </contour>
  </outline>
</glyph>
<glyph name="asterisk" format="1">
  <advance width="320"/>
  <unicode hex="002A"/>
  <outline>
    <contour>
      <point x="237" y="430" type="curve"/>
      <point x="229" y="425"/>
      <point x="221" y="410"/>
      <point x="209" y="391" type="curve"/>
      <point x="193" y="370"/>
      <point x="187" y="359"/>
      <point x="183" y="354" type="curve"/>
      <point x="179" y="348"/>
      <point x="177" y="347"/>
      <point x="176" y="347" type="curve"/>
      <point x="176" y="347"/>
      <point x="174" y="348"/>
      <point x="173" y="350" type="curve"/>
      <point x="166" y="365"/>
      <point x="162" y="379"/>
      <point x="159" y="397" type="curve"/>
      <point x="156" y="414"/>
      <point x="152" y="431"/>
      <point x="145" y="439" type="curve"/>
      <point x="140" y="449"/>
      <point x="126" y="458"/>
      <point x="111" y="458" type="curve"/>
      <point x="91" y="458"/>
      <point x="77" y="442"/>
      <point x="77" y="421" type="curve"/>
      <point x="77" y="407"/>
      <point x="86" y="394"/>
      <point x="109" y="373" type="curve"/>
      <point x="125" y="361"/>
      <point x="140" y="341"/>
      <point x="140" y="333" type="curve"/>
      <point x="140" y="333"/>
      <point x="132" y="332"/>
      <point x="116" y="332" type="curve"/>
      <point x="92" y="332"/>
      <point x="69" y="338"/>
      <point x="51" y="338" type="curve"/>
      <point x="22" y="338"/>
      <point x="4" y="326"/>
      <point x="4" y="306" type="curve"/>
      <point x="4" y="287"/>
      <point x="22" y="270"/>
      <point x="42" y="270" type="curve"/>
      <point x="51" y="270"/>
      <point x="67" y="275"/>
      <point x="88" y="285" type="curve"/>
      <point x="100" y="290"/>
      <point x="124" y="301"/>
      <point x="141" y="301" type="curve"/>
      <point x="141" y="301"/>
      <point x="142" y="300"/>
      <point x="142" y="299" type="curve"/>
      <point x="142" y="294"/>
      <point x="138" y="286"/>
      <point x="123" y="252" type="curve"/>
      <point x="110" y="225"/>
      <point x="106" y="213"/>
      <point x="106" y="203" type="curve"/>
      <point x="106" y="185"/>
      <point x="120" y="173"/>
      <point x="140" y="173" type="curve"/>
      <point x="167" y="173"/>
      <point x="181" y="187"/>
      <point x="181" y="213" type="curve"/>
      <point x="181" y="227"/>
      <point x="174" y="266"/>
      <point x="174" y="289" type="curve"/>
      <point x="174" y="290"/>
      <point x="179" y="294"/>
      <point x="182" y="294" type="curve"/>
      <point x="185" y="294"/>
      <point x="204" y="280"/>
      <point x="224" y="263" type="curve"/>
      <point x="253" y="238"/>
      <point x="265" y="232"/>
      <point x="280" y="232" type="curve"/>
      <point x="301" y="232"/>
      <point x="317" y="245"/>
      <point x="317" y="263" type="curve"/>
      <point x="317" y="277"/>
      <point x="311" y="289"/>
      <point x="301" y="294" type="curve"/>
      <point x="293" y="301"/>
      <point x="275" y="306"/>
      <point x="254" y="308" type="curve"/>
      <point x="227" y="311"/>
      <point x="199" y="319"/>
      <point x="199" y="322" type="curve"/>
      <point x="199" y="326"/>
      <point x="208" y="332"/>
      <point x="244" y="351" type="curve"/>
      <point x="286" y="373"/>
      <point x="297" y="385"/>
      <point x="297" y="403" type="curve"/>
      <point x="297" y="421"/>
      <point x="282" y="436"/>
      <point x="261" y="436" type="curve"/>
      <point x="252" y="436"/>
      <point x="245" y="434"/>
    </contour>
  </outline>
</glyph>
<glyph name="plus" format="1">
  <advance width="423"/>
  <unicode hex="002B"/>
  <outline>
    <contour>
      <point x="386" y="199" type="line"/>
      <point x="37" y="199" type="line"/>
      <point x="37" y="139" type="line"/>
      <point x="386" y="139" type="line"/>
    </contour>
    <contour>
      <point x="245" y="8" type="line"/>
      <point x="245" y="331" type="line"/>
      <point x="178" y="331" type="line"/>
      <point x="178" y="8" type="line"/>
    </contour>
  </outline>
</glyph>
<glyph name="comma" format="1">
  <advance width="141"/>
  <unicode hex="002C"/>
  <outline>
    <contour>
      <point x="24" y="-115" type="curve"/>
      <point x="85" y="-81"/>
      <point x="132" y="-20"/>
      <point x="132" y="27" type="curve"/>
      <point x="132" y="92"/>
      <point x="104" y="111"/>
      <point x="71" y="111" type="curve"/>
      <point x="38" y="111"/>
      <point x="9" y="89"/>
      <point x="9" y="56" type="curve"/>
      <point x="9" y="-3"/>
      <point x="46" y="7"/>
      <point x="46" y="-34" type="curve"/>
      <point x="46" y="-52"/>
      <point x="36" y="-63"/>
      <point x="0" y="-89" type="curve"/>
      <point x="0" y="-98"/>
      <point x="18" y="-115"/>
    </contour>
  </outline>
</glyph>
<glyph name="hyphen" format="1">
  <advance width="216"/>
  <unicode hex="002D"/>
  <outline>
    <contour>
      <point x="11" y="141" type="curve"/>
      <point x="11" y="134"/>
      <point x="13" y="131"/>
      <point x="16" y="130" type="curve"/>
      <point x="199" y="138" type="line"/>
      <point x="203" y="147"/>
      <point x="205" y="163"/>
      <point x="205" y="183" type="curve"/>
      <point x="205" y="188"/>
      <point x="204" y="193"/>
      <point x="201" y="195" type="curve"/>
      <point x="20" y="186" type="line"/>
      <point x="14" y="183"/>
      <point x="11" y="170"/>
    </contour>
  </outline>
</glyph>
<glyph name="period" format="1">
  <advance width="141"/>
  <unicode hex="002E"/>
  <outline>
    <contour>
      <point x="73" y="-6" type="curve"/>
      <point x="106" y="-6"/>
      <point x="132" y="23"/>
      <point x="132" y="55" type="curve"/>
      <point x="132" y="87"/>
      <point x="104" y="112"/>
      <point x="70" y="112" type="curve"/>
      <point x="26" y="112"/>
      <point x="9" y="82"/>
      <point x="9" y="54" type="curve"/>
      <point x="9" y="25"/>
      <point x="27" y="-6"/>
    </contour>
  </outline>
</glyph>
<glyph name="slash" format="1">
  <advance width="317"/>
  <unicode hex="002F"/>
  <outline>
    <contour>
      <point x="83" y="-19" type="line"/>
      <point x="308" y="519" type="line"/>
      <point x="240" y="519" type="line"/>
      <point x="15" y="-19" type="line"/>
    </contour>
  </outline>
</glyph>
<glyph name="zero" format="1">
  <advance width="405"/>
  <unicode hex="0030"/>
  <outline>
    <contour>
      <point x="205" y="-2" type="curve"/>
      <point x="304" y="-2"/>
      <point x="375" y="91"/>
      <point x="375" y="219" type="curve"/>
      <point x="375" y="347"/>
      <point x="303" y="441"/>
      <point x="205" y="441" type="curve"/>
      <point x="104" y="441"/>
      <point x="31" y="348"/>
      <point x="31" y="219" type="curve"/>
      <point x="31" y="90"/>
      <point x="103" y="-2"/>
    </contour>
    <contour>
      <point x="209" y="40" type="curve"/>
      <point x="163" y="40"/>
      <point x="154" y="164"/>
      <point x="154" y="220" type="curve"/>
      <point x="154" y="276"/>
      <point x="151" y="401"/>
      <point x="204" y="401" type="curve"/>
      <point x="251" y="401"/>
      <point x="250" y="285"/>
      <point x="250" y="224" type="curve"/>
      <point x="250" y="168"/>
      <point x="258" y="40"/>
    </contour>
  </outline>
</glyph>
<glyph name="one" format="1">
  <advance width="278"/>
  <unicode hex="0031"/>
  <outline>
    <contour>
      <point x="9" y="311" type="curve"/>
      <point x="47" y="332"/>
      <point x="57" y="333"/>
      <point x="64" y="333" type="curve"/>
      <point x="73" y="333"/>
      <point x="81" y="328"/>
      <point x="81" y="306" type="curve"/>
      <point x="81" y="86" type="line" smooth="yes"/>
      <point x="81" y="71"/>
      <point x="80" y="57"/>
      <point x="77" y="46" type="curve"/>
      <point x="75" y="38"/>
      <point x="46" y="26"/>
      <point x="36" y="26" type="curve"/>
      <point x="34" y="26"/>
      <point x="33" y="22"/>
      <point x="33" y="13" type="curve"/>
      <point x="33" y="5"/>
      <point x="34" y="-1"/>
      <point x="36" y="-3" type="curve"/>
      <point x="24" y="-3"/>
      <point x="109" y="4"/>
      <point x="142" y="4" type="curve"/>
      <point x="173" y="4"/>
      <point x="258" y="-3"/>
      <point x="244" y="-3" type="curve"/>
      <point x="245" y="0"/>
      <point x="246" y="4"/>
      <point x="246" y="10" type="curve"/>
      <point x="246" y="21"/>
      <point x="246" y="26"/>
      <point x="245" y="26" type="curve"/>
      <point x="237" y="26"/>
      <point x="209" y="38"/>
      <point x="207" y="44" type="curve"/>
      <point x="203" y="59"/>
      <point x="201" y="73"/>
      <point x="201" y="86" type="curve"/>
      <point x="201" y="365" type="line" smooth="yes"/>
      <point x="201" y="396"/>
      <point x="203" y="418"/>
      <point x="207" y="430" type="curve"/>
      <point x="205" y="439"/>
      <point x="202" y="443"/>
      <point x="198" y="443" type="curve"/>
      <point x="197" y="443" type="line"/>
      <point x="96" y="394"/>
      <point x="18" y="346"/>
      <point x="0" y="338" type="curve"/>
      <point x="0" y="337"/>
      <point x="-1" y="333"/>
      <point x="-1" y="327" type="curve"/>
      <point x="-1" y="322"/>
      <point x="3" y="313"/>
    </contour>
  </outline>
</glyph>
<glyph name="two" format="1">
  <advance width="336"/>
  <unicode hex="0032"/>
  <outline>
    <contour>
      <point x="1" y="0" type="curve"/>
      <point x="292" y="0" type="line" smooth="yes"/>
      <point x="295" y="0"/>
      <point x="297" y="3"/>
      <point x="297" y="9" type="curve"/>
      <point x="312" y="73"/>
      <point x="324" y="119"/>
      <point x="332" y="148" type="curve"/>
      <point x="327" y="152"/>
      <point x="321" y="153"/>
      <point x="313" y="153" type="curve"/>
      <point x="304" y="153"/>
      <point x="298" y="153"/>
      <point x="298" y="150" type="curve"/>
      <point x="292" y="125"/>
      <point x="281" y="84"/>
      <point x="230" y="84" type="curve"/>
      <point x="98" y="84" type="line"/>
      <point x="93" y="77" type="line"/>
      <point x="268" y="220"/>
      <point x="291" y="250"/>
      <point x="291" y="319" type="curve"/>
      <point x="291" y="397"/>
      <point x="230" y="442"/>
      <point x="149" y="442" type="curve"/>
      <point x="57" y="442"/>
      <point x="31" y="389"/>
      <point x="9" y="357" type="curve"/>
      <point x="9" y="344"/>
      <point x="25" y="335"/>
      <point x="36" y="335" type="curve"/>
      <point x="60" y="367"/>
      <point x="72" y="379"/>
      <point x="104" y="379" type="curve"/>
      <point x="138" y="379"/>
      <point x="161" y="340"/>
      <point x="161" y="307" type="curve"/>
      <point x="161" y="241"/>
      <point x="70" y="110"/>
      <point x="-8" y="24" type="curve"/>
      <point x="-7" y="13"/>
      <point x="-5" y="9"/>
    </contour>
  </outline>
</glyph>
<glyph name="three" format="1">
  <advance width="324"/>
  <unicode hex="0033"/>
  <outline>
    <contour>
      <point x="166" y="442" type="curve"/>
      <point x="116" y="442"/>
      <point x="67" y="422"/>
      <point x="31" y="383" type="curve"/>
      <point x="31" y="375"/>
      <point x="45" y="364"/>
      <point x="53" y="364" type="curve"/>
      <point x="65" y="376"/>
      <point x="89" y="389"/>
      <point x="109" y="389" type="curve"/>
      <point x="142" y="389"/>
      <point x="154" y="376"/>
      <point x="154" y="338" type="curve"/>
      <point x="154" y="293"/>
      <point x="127" y="258"/>
      <point x="78" y="251" type="curve"/>
      <point x="76" y="246"/>
      <point x="75" y="242"/>
      <point x="75" y="238" type="curve"/>
      <point x="75" y="227"/>
      <point x="77" y="220"/>
      <point x="80" y="216" type="curve"/>
      <point x="97" y="217"/>
      <point x="112" y="219"/>
      <point x="119" y="219" type="curve"/>
      <point x="161" y="219"/>
      <point x="184" y="187"/>
      <point x="184" y="133" type="curve"/>
      <point x="184" y="76"/>
      <point x="168" y="39"/>
      <point x="120" y="39" type="curve"/>
      <point x="70" y="39"/>
      <point x="84" y="90"/>
      <point x="32" y="90" type="curve"/>
      <point x="11" y="90"/>
      <point x="-3" y="74"/>
      <point x="-3" y="54" type="curve"/>
      <point x="-3" y="17"/>
      <point x="33" y="-2"/>
      <point x="81" y="-2" type="curve"/>
      <point x="206" y="-2"/>
      <point x="308" y="70"/>
      <point x="308" y="162" type="curve"/>
      <point x="308" y="206"/>
      <point x="276" y="266"/>
      <point x="165" y="264" type="curve"/>
      <point x="165" y="256" type="line"/>
      <point x="234" y="267"/>
      <point x="262" y="329"/>
      <point x="262" y="368" type="curve"/>
      <point x="262" y="410"/>
      <point x="227" y="442"/>
    </contour>
  </outline>
</glyph>
<glyph name="four" format="1">
  <advance width="371"/>
  <unicode hex="0034"/>
  <outline>
    <contour>
      <point x="310" y="443" type="curve"/>
      <point x="302" y="443"/>
      <point x="295" y="439"/>
      <point x="288" y="432" type="curve"/>
      <point x="13" y="160" type="line"/>
      <point x="13" y="142"/>
      <point x="19" y="128"/>
      <point x="29" y="120" type="curve"/>
      <point x="212" y="120" type="line"/>
      <point x="212" y="8" type="line" smooth="yes"/>
      <point x="212" y="0"/>
      <point x="229" y="-3"/>
      <point x="265" y="-3" type="curve"/>
      <point x="287" y="-3"/>
      <point x="307" y="0"/>
      <point x="326" y="5" type="curve"/>
      <point x="326" y="120" type="line"/>
      <point x="352" y="120" type="line"/>
      <point x="354" y="121"/>
      <point x="357" y="133"/>
      <point x="357" y="138" type="curve"/>
      <point x="357" y="162"/>
      <point x="353" y="173"/>
      <point x="346" y="173" type="curve"/>
      <point x="326" y="173" type="line"/>
      <point x="326" y="436" type="line" smooth="yes"/>
      <point x="326" y="441"/>
      <point x="321" y="443"/>
    </contour>
    <contour>
      <point x="212" y="298" type="line"/>
      <point x="212" y="173" type="line"/>
      <point x="76" y="173" type="line"/>
      <point x="64" y="151" type="line"/>
      <point x="220" y="298" type="line"/>
    </contour>
  </outline>
</glyph>
<glyph name="five" format="1">
  <advance width="315"/>
  <unicode hex="0035"/>
  <outline>
    <contour>
      <point x="92" y="-1" type="curve"/>
      <point x="208" y="-1"/>
      <point x="310" y="77"/>
      <point x="310" y="174" type="curve"/>
      <point x="310" y="243"/>
      <point x="222" y="304"/>
      <point x="148" y="304" type="curve"/>
      <point x="132" y="304"/>
      <point x="114" y="304"/>
      <point x="90" y="300" type="curve"/>
      <point x="102" y="367" type="line"/>
      <point x="95" y="360" type="line"/>
      <point x="164" y="358" type="line" smooth="yes"/>
      <point x="194" y="357"/>
      <point x="239" y="357"/>
      <point x="265" y="356" type="curve"/>
      <point x="272" y="362"/>
      <point x="276" y="383"/>
      <point x="276" y="416" type="curve"/>
      <point x="276" y="429"/>
      <point x="273" y="438"/>
      <point x="268" y="445" type="curve"/>
      <point x="262" y="444"/>
      <point x="197" y="444"/>
      <point x="70" y="446" type="curve"/>
      <point x="25" y="227" type="line"/>
      <point x="26" y="224"/>
      <point x="31" y="220"/>
      <point x="37" y="217" type="curve"/>
      <point x="60" y="224"/>
      <point x="78" y="228"/>
      <point x="94" y="228" type="curve"/>
      <point x="152" y="228"/>
      <point x="186" y="181"/>
      <point x="186" y="127" type="curve"/>
      <point x="186" y="73"/>
      <point x="160" y="40"/>
      <point x="119" y="40" type="curve"/>
      <point x="70" y="40"/>
      <point x="86" y="91"/>
      <point x="35" y="91" type="curve"/>
      <point x="13" y="91"/>
      <point x="-2" y="74"/>
      <point x="-2" y="51" type="curve"/>
      <point x="-2" y="20"/>
      <point x="30" y="-1"/>
    </contour>
  </outline>
</glyph>
<glyph name="six" format="1">
  <advance width="359"/>
  <unicode hex="0036"/>
  <outline>
    <contour>
      <point x="184" y="-4" type="curve"/>
      <point x="289" y="-4"/>
      <point x="339" y="77"/>
      <point x="339" y="147" type="curve"/>
      <point x="339" y="210"/>
      <point x="279" y="263"/>
      <point x="207" y="263" type="curve"/>
      <point x="199" y="263"/>
      <point x="172" y="258"/>
      <point x="154" y="253" type="curve"/>
      <point x="166" y="243" type="line"/>
      <point x="185" y="297"/>
      <point x="268" y="388"/>
      <point x="321" y="414" type="curve"/>
      <point x="321" y="425"/>
      <point x="314" y="437"/>
      <point x="304" y="444" type="curve"/>
      <point x="142" y="384"/>
      <point x="31" y="264"/>
      <point x="31" y="150" type="curve"/>
      <point x="31" y="62"/>
      <point x="96" y="-4"/>
    </contour>
    <contour>
      <point x="182" y="38" type="curve"/>
      <point x="175" y="38"/>
      <point x="151" y="79"/>
      <point x="151" y="142" type="curve"/>
      <point x="151" y="158"/>
      <point x="153" y="183"/>
      <point x="155" y="197" type="curve"/>
      <point x="158" y="210"/>
      <point x="154" y="215"/>
      <point x="157" y="215" type="curve"/>
      <point x="194" y="215"/>
      <point x="217" y="166"/>
      <point x="217" y="111" type="curve"/>
      <point x="217" y="72"/>
      <point x="200" y="38"/>
    </contour>
  </outline>
</glyph>
<glyph name="seven" format="1">
  <advance width="343"/>
  <unicode hex="0037"/>
  <outline>
    <contour>
      <point x="131" y="-10" type="curve"/>
      <point x="132" y="-10"/>
      <point x="133" y="-10"/>
      <point x="134" y="-10" type="curve"/>
      <point x="329" y="391" type="line" smooth="yes"/>
      <point x="350" y="433"/>
      <point x="348" y="433"/>
      <point x="348" y="437" type="curve"/>
      <point x="348" y="441"/>
      <point x="346" y="443"/>
      <point x="343" y="443" type="curve"/>
      <point x="319" y="443"/>
      <point x="303" y="441"/>
      <point x="293" y="441" type="curve"/>
      <point x="70" y="441" type="line" smooth="yes"/>
      <point x="62" y="441"/>
      <point x="57" y="438"/>
      <point x="55" y="433" type="curve"/>
      <point x="44" y="391"/>
      <point x="39" y="376"/>
      <point x="16" y="297" type="curve"/>
      <point x="17" y="294"/>
      <point x="25" y="292"/>
      <point x="32" y="292" type="curve"/>
      <point x="42" y="292"/>
      <point x="53" y="294"/>
      <point x="55" y="298" type="curve"/>
      <point x="67" y="331"/>
      <point x="72" y="361"/>
      <point x="110" y="361" type="curve"/>
      <point x="272" y="361" type="line"/>
      <point x="79" y="16" type="line"/>
      <point x="79" y="0"/>
      <point x="103" y="-10"/>
    </contour>
  </outline>
</glyph>
<glyph name="eight" format="1">
  <advance width="388"/>
  <unicode hex="0038"/>
  <outline>
    <contour>
      <point x="196" y="-6" type="curve"/>
      <point x="272" y="-6"/>
      <point x="367" y="47"/>
      <point x="367" y="121" type="curve"/>
      <point x="367" y="237"/>
      <point x="159" y="264"/>
      <point x="159" y="347" type="curve"/>
      <point x="159" y="389"/>
      <point x="176" y="406"/>
      <point x="193" y="406" type="curve"/>
      <point x="212" y="406"/>
      <point x="227" y="383"/>
      <point x="227" y="336" type="curve"/>
      <point x="227" y="312"/>
      <point x="223" y="278"/>
      <point x="209" y="263" type="curve"/>
      <point x="237" y="228" type="line"/>
      <point x="317" y="261"/>
      <point x="352" y="302"/>
      <point x="352" y="346" type="curve"/>
      <point x="352" y="408"/>
      <point x="283" y="442"/>
      <point x="204" y="442" type="curve"/>
      <point x="139" y="442"/>
      <point x="37" y="399"/>
      <point x="37" y="325" type="curve"/>
      <point x="37" y="193"/>
      <point x="241" y="175"/>
      <point x="241" y="98" type="curve"/>
      <point x="241" y="58"/>
      <point x="221" y="36"/>
      <point x="196" y="36" type="curve"/>
      <point x="167" y="36"/>
      <point x="148" y="68"/>
      <point x="148" y="107" type="curve"/>
      <point x="148" y="142"/>
      <point x="159" y="175"/>
      <point x="173" y="196" type="curve"/>
      <point x="161" y="222" type="line"/>
      <point x="79" y="207"/>
      <point x="20" y="163"/>
      <point x="21" y="108" type="curve"/>
      <point x="22" y="39"/>
      <point x="113" y="-6"/>
    </contour>
  </outline>
</glyph>
<glyph name="colon" format="1">
  <advance width="141"/>
  <unicode hex="003A"/>
  <outline>
    <contour>
      <point x="73" y="-6" type="curve" smooth="yes"/>
      <point x="106" y="-6"/>
      <point x="132" y="23"/>
      <point x="132" y="55" type="curve" smooth="yes"/>
      <point x="132" y="87"/>
      <point x="104" y="112"/>
      <point x="70" y="112" type="curve" smooth="yes"/>
      <point x="26" y="112"/>
      <point x="9" y="82"/>
      <point x="9" y="54" type="curve" smooth="yes"/>
      <point x="9" y="25"/>
      <point x="27" y="-6"/>
    </contour>
    <contour>
      <point x="73" y="220" type="curve" smooth="yes"/>
      <point x="106" y="220"/>
      <point x="132" y="249"/>
      <point x="132" y="281" type="curve" smooth="yes"/>
      <point x="132" y="313"/>
      <point x="104" y="338"/>
      <point x="70" y="338" type="curve" smooth="yes"/>
      <point x="26" y="338"/>
      <point x="9" y="308"/>
      <point x="9" y="280" type="curve" smooth="yes"/>
      <point x="9" y="251"/>
      <point x="27" y="220"/>
    </contour>
  </outline>
</glyph>
<glyph name="semicolon" format="1">
  <advance width="141"/>
  <unicode hex="003B"/>
  <outline>
    <contour>
      <point x="9" y="56" type="curve" smooth="yes"/>
      <point x="9" y="-3"/>
      <point x="46" y="7"/>
      <point x="46" y="-34" type="curve" smooth="yes"/>
      <point x="46" y="-52"/>
      <point x="36" y="-63"/>
      <point x="0" y="-89" type="curve"/>
      <point x="0" y="-98"/>
      <point x="18" y="-115"/>
      <point x="24" y="-115" type="curve"/>
      <point x="85" y="-81"/>
      <point x="132" y="-20"/>
      <point x="132" y="27" type="curve" smooth="yes"/>
      <point x="132" y="92"/>
      <point x="104" y="111"/>
      <point x="71" y="111" type="curve" smooth="yes"/>
      <point x="38" y="111"/>
      <point x="9" y="89"/>
    </contour>
    <contour>
      <point x="73" y="220" type="curve" smooth="yes"/>
      <point x="106" y="220"/>
      <point x="132" y="249"/>
      <point x="132" y="281" type="curve" smooth="yes"/>
      <point x="132" y="313"/>
      <point x="104" y="338"/>
      <point x="70" y="338" type="curve" smooth="yes"/>
      <point x="26" y="338"/>
      <point x="9" y="308"/>
      <point x="9" y="280" type="curve" smooth="yes"/>
      <point x="9" y="251"/>
      <point x="27" y="220"/>
    </contour>
  </outline>
</glyph>
<glyph name="less" format="1">
  <advance width="386"/>
  <unicode hex="003C"/>
  <outline>
    <contour>
      <point x="348" y="270" type="line"/>
      <point x="317" y="330" type="line"/>
      <point x="37" y="199" type="line"/>
      <point x="37" y="140" type="line"/>
      <point x="317" y="9" type="line"/>
      <point x="348" y="69" type="line"/>
      <point x="102" y="183" type="line"/>
      <point x="102" y="155" type="line"/>
    </contour>
  </outline>
</glyph>
<glyph name="equal" format="1">
  <advance width="423"/>
  <unicode hex="003D"/>
  <outline>
    <contour>
      <point x="37" y="144" type="line"/>
      <point x="37" y="84" type="line"/>
      <point x="386" y="84" type="line"/>
      <point x="386" y="144" type="line"/>
    </contour>
    <contour>
      <point x="37" y="254" type="line"/>
      <point x="37" y="194" type="line"/>
      <point x="386" y="194" type="line"/>
      <point x="386" y="254" type="line"/>
    </contour>
  </outline>
</glyph>
<glyph name="greater" format="1">
  <advance width="386"/>
  <unicode hex="003E"/>
  <outline>
    <contour>
      <point x="348" y="199" type="line"/>
      <point x="68" y="330" type="line"/>
      <point x="37" y="270" type="line"/>
      <point x="283" y="155" type="line"/>
      <point x="283" y="183" type="line"/>
      <point x="37" y="69" type="line"/>
      <point x="68" y="9" type="line"/>
      <point x="348" y="140" type="line"/>
    </contour>
  </outline>
</glyph>
<glyph name="question" format="1">
  <advance width="253"/>
  <unicode hex="003F"/>
  <outline>
    <contour>
      <point x="67" y="144" type="curve"/>
      <point x="72" y="144"/>
      <point x="79" y="145"/>
      <point x="79" y="149" type="curve"/>
      <point x="79" y="186"/>
      <point x="81" y="191"/>
      <point x="91" y="191" type="curve"/>
      <point x="99" y="192"/>
      <point x="132" y="201"/>
      <point x="135" y="197" type="curve"/>
      <point x="212" y="217"/>
      <point x="239" y="253"/>
      <point x="239" y="328" type="curve"/>
      <point x="239" y="393"/>
      <point x="164" y="446"/>
      <point x="49" y="446" type="curve"/>
      <point x="7" y="446"/>
      <point x="-8" y="434"/>
      <point x="-8" y="399" type="curve"/>
      <point x="-8" y="370"/>
      <point x="23" y="343"/>
      <point x="58" y="343" type="curve"/>
      <point x="96" y="343"/>
      <point x="109" y="356"/>
      <point x="135" y="356" type="curve"/>
      <point x="154" y="356"/>
      <point x="159" y="354"/>
      <point x="158" y="330" type="curve"/>
      <point x="157" y="308"/>
      <point x="140" y="299"/>
      <point x="69" y="264" type="curve"/>
      <point x="44" y="252"/>
      <point x="37" y="243"/>
      <point x="37" y="187" type="curve"/>
      <point x="37" y="162"/>
      <point x="41" y="160"/>
      <point x="43" y="153" type="curve"/>
      <point x="46" y="143"/>
      <point x="62" y="144"/>
    </contour>
    <contour>
      <point x="73" y="-6" type="curve"/>
      <point x="106" y="-6"/>
      <point x="132" y="23"/>
      <point x="132" y="55" type="curve"/>
      <point x="132" y="87"/>
      <point x="104" y="112"/>
      <point x="70" y="112" type="curve"/>
      <point x="26" y="112"/>
      <point x="9" y="82"/>
      <point x="9" y="54" type="curve"/>
      <point x="9" y="25"/>
      <point x="27" y="-6"/>
    </contour>
  </outline>
</glyph>
<glyph name="J" format="1">
  <advance width="277"/>
  <unicode hex="004A"/>
  <outline>
    <contour>
      <point x="142" y="451" type="curve"/>
      <point x="153" y="451"/>
      <point x="127" y="451"/>
      <point x="22" y="455" type="curve"/>
      <point x="22" y="456"/>
      <point x="21" y="450"/>
      <point x="21" y="440" type="curve"/>
      <point x="21" y="431"/>
      <point x="22" y="426"/>
      <point x="24" y="426" type="curve"/>
      <point x="35" y="426"/>
      <point x="61" y="415"/>
      <point x="68" y="407" type="curve"/>
      <point x="72" y="405"/>
      <point x="74" y="389"/>
      <point x="74" y="359" type="curve"/>
      <point x="74" y="119" type="line" smooth="yes"/>
      <point x="74" y="49"/>
      <point x="75" y="-1"/>
      <point x="73" y="-38" type="curve"/>
      <point x="71" y="-76"/>
      <point x="56" y="-93"/>
      <point x="29" y="-93" type="curve"/>
      <point x="22" y="-93"/>
      <point x="11" y="-85"/>
      <point x="-5" y="-69" type="curve"/>
      <point x="-20" y="-51"/>
      <point x="-32" y="-43"/>
      <point x="-45" y="-43" type="curve"/>
      <point x="-70" y="-43"/>
      <point x="-96" y="-66"/>
      <point x="-96" y="-91" type="curve"/>
      <point x="-96" y="-120"/>
      <point x="-67" y="-146"/>
      <point x="-23" y="-146" type="curve"/>
      <point x="107" y="-146"/>
      <point x="204" y="-58"/>
      <point x="204" y="125" type="curve"/>
      <point x="204" y="354" type="line" smooth="yes"/>
      <point x="204" y="380"/>
      <point x="205" y="398"/>
      <point x="209" y="409" type="curve"/>
      <point x="211" y="415"/>
      <point x="249" y="426"/>
      <point x="258" y="426" type="curve"/>
      <point x="260" y="426"/>
      <point x="261" y="431"/>
      <point x="261" y="442" type="curve"/>
      <point x="261" y="446"/>
      <point x="260" y="450"/>
      <point x="258" y="455" type="curve"/>
      <point x="173" y="452"/>
      <point x="145" y="451"/>
    </contour>
    <contour>
      <point x="55" y="0" type="move" name="bottom"/>
    </contour>
    <contour>
      <point x="141" y="453" type="move" name="top"/>
    </contour>
  </outline>
</glyph>
<glyph name="Q" format="1">
  <advance width="541"/>
  <unicode hex="0051"/>
  <outline>
    <contour>
      <point x="408" y="-102" type="curve"/>
      <point x="447" y="-102"/>
      <point x="520" y="-81"/>
      <point x="568" y="-56" type="curve"/>
      <point x="568" y="-52" type="line" smooth="yes"/>
      <point x="568" y="-43"/>
      <point x="566" y="-39"/>
      <point x="560" y="-39" type="curve"/>
      <point x="554" y="-39"/>
      <point x="517" y="-46"/>
      <point x="499" y="-46" type="curve"/>
      <point x="460" y="-46"/>
      <point x="431" y="-43"/>
      <point x="426" y="-39" type="curve"/>
      <point x="410" y="-32"/>
      <point x="372" y="-9"/>
      <point x="343" y="3" type="curve"/>
      <point x="425" y="24"/>
      <point x="511" y="108"/>
      <point x="511" y="226" type="curve"/>
      <point x="511" y="355"/>
      <point x="404" y="460"/>
      <point x="273" y="460" type="curve"/>
      <point x="138" y="460"/>
      <point x="31" y="354"/>
      <point x="31" y="226" type="curve"/>
      <point x="31" y="165"/>
      <point x="57" y="106"/>
      <point x="93" y="69" type="curve"/>
      <point x="130" y="33"/>
      <point x="168" y="10"/>
      <point x="204" y="0" type="curve"/>
      <point x="235" y="-9"/>
      <point x="300" y="-58"/>
      <point x="340" y="-81" type="curve"/>
      <point x="363" y="-95"/>
      <point x="384" y="-102"/>
    </contour>
    <contour>
      <point x="280" y="38" type="curve"/>
      <point x="216" y="38"/>
      <point x="174" y="131"/>
      <point x="174" y="240" type="curve"/>
      <point x="174" y="343"/>
      <point x="208" y="414"/>
      <point x="260" y="414" type="curve"/>
      <point x="325" y="414"/>
      <point x="367" y="321"/>
      <point x="367" y="214" type="curve"/>
      <point x="367" y="111"/>
      <point x="334" y="38"/>
    </contour>
    <contour>
      <point x="271" y="0" type="move" name="bottom"/>
    </contour>
    <contour>
      <point x="271" y="453" type="move" name="top"/>
    </contour>
  </outline>
</glyph>
<glyph name="S" format="1">
  <advance width="366"/>
  <unicode hex="0053"/>
  <outline>
    <contour>
      <point x="14" y="333" type="curve"/>
      <point x="14" y="274"/>
      <point x="25" y="250"/>
      <point x="118" y="193" type="curve"/>
      <point x="194" y="146"/>
      <point x="217" y="123"/>
      <point x="217" y="89" type="curve"/>
      <point x="217" y="62"/>
      <point x="202" y="38"/>
      <point x="161" y="38" type="curve"/>
      <point x="95" y="38"/>
      <point x="60" y="90"/>
      <point x="48" y="133" type="curve"/>
      <point x="49" y="135"/>
      <point x="41" y="136"/>
      <point x="27" y="136" type="curve"/>
      <point x="14" y="136"/>
      <point x="9" y="133"/>
      <point x="7" y="127" type="curve"/>
      <point x="7" y="103"/>
      <point x="18" y="22"/>
      <point x="23" y="10" type="curve"/>
      <point x="84" y="-2"/>
      <point x="110" y="-7"/>
      <point x="146" y="-7" type="curve"/>
      <point x="250" y="-7"/>
      <point x="345" y="39"/>
      <point x="345" y="129" type="curve"/>
      <point x="345" y="192"/>
      <point x="327" y="217"/>
      <point x="231" y="271" type="curve"/>
      <point x="152" y="316"/>
      <point x="139" y="342"/>
      <point x="139" y="369" type="curve"/>
      <point x="139" y="401"/>
      <point x="162" y="417"/>
      <point x="189" y="417" type="curve"/>
      <point x="238" y="417"/>
      <point x="263" y="385"/>
      <point x="283" y="314" type="curve"/>
      <point x="284" y="312"/>
      <point x="290" y="311"/>
      <point x="301" y="311" type="curve"/>
      <point x="311" y="311"/>
      <point x="318" y="313"/>
      <point x="322" y="319" type="curve"/>
      <point x="322" y="344"/>
      <point x="319" y="385"/>
      <point x="314" y="443" type="curve"/>
      <point x="268" y="459"/>
      <point x="221" y="463"/>
      <point x="206" y="463" type="curve"/>
      <point x="89" y="463"/>
      <point x="14" y="391"/>
    </contour>
    <contour>
      <point x="184" y="0" type="move" name="bottom"/>
    </contour>
    <contour>
      <point x="184" y="453" type="move" name="top"/>
    </contour>
  </outline>
</glyph>
<glyph name="V" format="1">
  <advance width="529"/>
  <unicode hex="0056"/>
  <outline>
    <contour>
      <point x="119" y="449" type="curve"/>
      <point x="110" y="449"/>
      <point x="39" y="451"/>
      <point x="2" y="455" type="curve"/>
      <point x="2" y="455"/>
      <point x="2" y="449"/>
      <point x="2" y="440" type="curve"/>
      <point x="2" y="431"/>
      <point x="2" y="426"/>
      <point x="5" y="426" type="curve"/>
      <point x="20" y="426"/>
      <point x="58" y="416"/>
      <point x="63" y="399" type="curve"/>
      <point x="60" y="403"/>
      <point x="66" y="386"/>
      <point x="82" y="349" type="curve"/>
      <point x="231" y="13" type="line" smooth="yes"/>
      <point x="238" y="-4"/>
      <point x="249" y="-7"/>
      <point x="260" y="-7" type="curve"/>
      <point x="274" y="-7"/>
      <point x="286" y="4"/>
      <point x="291" y="15" type="curve"/>
      <point x="462" y="370" type="line" smooth="yes"/>
      <point x="478" y="402"/>
      <point x="487" y="414"/>
      <point x="485" y="407" type="curve"/>
      <point x="505" y="417"/>
      <point x="543" y="428"/>
      <point x="547" y="428" type="curve"/>
      <point x="547" y="428"/>
      <point x="548" y="433"/>
      <point x="548" y="445" type="curve"/>
      <point x="548" y="450"/>
      <point x="547" y="454"/>
      <point x="544" y="455" type="curve"/>
      <point x="487" y="453"/>
      <point x="461" y="450"/>
      <point x="453" y="450" type="curve"/>
      <point x="440" y="450"/>
      <point x="431" y="450"/>
      <point x="362" y="455" type="curve"/>
      <point x="362" y="452"/>
      <point x="361" y="447"/>
      <point x="361" y="439" type="curve"/>
      <point x="361" y="431"/>
      <point x="362" y="428"/>
      <point x="363" y="426" type="curve"/>
      <point x="403" y="426"/>
      <point x="417" y="414"/>
      <point x="417" y="404" type="curve"/>
      <point x="417" y="393"/>
      <point x="411" y="378"/>
      <point x="401" y="358" type="curve"/>
      <point x="291" y="125" type="line"/>
      <point x="318" y="125" type="line"/>
      <point x="214" y="363" type="line" smooth="yes"/>
      <point x="205" y="382"/>
      <point x="197" y="397"/>
      <point x="197" y="400" type="curve"/>
      <point x="197" y="416"/>
      <point x="229" y="426"/>
      <point x="250" y="426" type="curve"/>
      <point x="253" y="426"/>
      <point x="253" y="429"/>
      <point x="253" y="439" type="curve"/>
      <point x="253" y="448"/>
      <point x="252" y="453"/>
      <point x="249" y="455" type="curve"/>
      <point x="163" y="451"/>
      <point x="134" y="449"/>
    </contour>
    <contour>
      <point x="267" y="0" type="move" name="bottom"/>
    </contour>
    <contour>
      <point x="267" y="453" type="move" name="top"/>
    </contour>
  </outline>
</glyph>
<glyph name="bracketleft" format="1">
  <advance width="305"/>
  <unicode hex="005B"/>
  <outline>
    <contour>
      <point x="199" y="-42" type="curve"/>
      <point x="199" y="507" type="line"/>
      <point x="217" y="509"/>
      <point x="259" y="517"/>
      <point x="295" y="532" type="curve"/>
      <point x="299" y="538"/>
      <point x="299" y="542"/>
      <point x="299" y="552" type="curve"/>
      <point x="299" y="557"/>
      <point x="297" y="563"/>
      <point x="294" y="565" type="curve"/>
      <point x="218" y="551"/>
      <point x="158" y="543"/>
      <point x="90" y="543" type="curve"/>
      <point x="80" y="543"/>
      <point x="76" y="539"/>
      <point x="76" y="532" type="curve"/>
      <point x="76" y="-67" type="line" smooth="yes"/>
      <point x="76" y="-74"/>
      <point x="80" y="-78"/>
      <point x="90" y="-78" type="curve"/>
      <point x="158" y="-78"/>
      <point x="218" y="-86"/>
      <point x="294" y="-101" type="curve"/>
      <point x="297" y="-98"/>
      <point x="299" y="-92"/>
      <point x="299" y="-87" type="curve"/>
      <point x="299" y="-77"/>
      <point x="299" y="-73"/>
      <point x="295" y="-67" type="curve"/>
      <point x="259" y="-52"/>
      <point x="217" y="-44"/>
    </contour>
  </outline>
</glyph>
<glyph name="backslash" format="1">
  <advance width="317"/>
  <unicode hex="005C"/>
  <outline>
    <contour>
      <point x="77" y="519" type="line"/>
      <point x="9" y="519" type="line"/>
      <point x="233" y="-19" type="line"/>
      <point x="302" y="-19" type="line"/>
    </contour>
  </outline>
</glyph>
<glyph name="bracketright" format="1">
  <advance width="305"/>
  <unicode hex="005D"/>
  <outline>
    <contour>
      <point x="106" y="507" type="curve"/>
      <point x="106" y="-42" type="line"/>
      <point x="88" y="-44"/>
      <point x="46" y="-52"/>
      <point x="10" y="-67" type="curve"/>
      <point x="6" y="-73"/>
      <point x="6" y="-77"/>
      <point x="6" y="-87" type="curve"/>
      <point x="6" y="-92"/>
      <point x="8" y="-98"/>
      <point x="11" y="-101" type="curve"/>
      <point x="87" y="-86"/>
      <point x="147" y="-78"/>
      <point x="215" y="-78" type="curve"/>
      <point x="225" y="-78"/>
      <point x="229" y="-74"/>
      <point x="229" y="-67" type="curve"/>
      <point x="229" y="532" type="line" smooth="yes"/>
      <point x="229" y="539"/>
      <point x="225" y="543"/>
      <point x="215" y="543" type="curve"/>
      <point x="147" y="543"/>
      <point x="87" y="551"/>
      <point x="11" y="565" type="curve"/>
      <point x="8" y="563"/>
      <point x="6" y="557"/>
      <point x="6" y="552" type="curve"/>
      <point x="6" y="542"/>
      <point x="6" y="538"/>
      <point x="10" y="532" type="curve"/>
      <point x="46" y="517"/>
      <point x="88" y="509"/>
    </contour>
  </outline>
</glyph>
<glyph name="asciicircum" format="1">
  <advance width="422"/>
  <unicode hex="005E"/>
  <outline>
    <contour>
      <point x="320" y="81" type="line"/>
      <point x="385" y="110" type="line"/>
      <point x="243" y="369" type="line"/>
      <point x="179" y="369" type="line"/>
      <point x="37" y="110" type="line"/>
      <point x="102" y="81" type="line"/>
      <point x="226" y="308" type="line"/>
      <point x="196" y="308" type="line"/>
    </contour>
  </outline>
</glyph>
<glyph name="underscore" format="1">
  <advance width="372"/>
  <unicode hex="005F"/>
  <outline>
    <contour>
      <point x="350" y="0" type="curve"/>
      <point x="31" y="0" type="line" smooth="yes"/>
      <point x="24" y="0"/>
      <point x="20" y="-29"/>
      <point x="20" y="-40" type="curve"/>
      <point x="20" y="-48"/>
      <point x="21" y="-53"/>
      <point x="22" y="-56" type="curve"/>
      <point x="341" y="-56" type="line" smooth="yes"/>
      <point x="348" y="-56"/>
      <point x="352" y="-27"/>
      <point x="352" y="-16" type="curve"/>
      <point x="352" y="-8"/>
      <point x="351" y="-3"/>
    </contour>
  </outline>
</glyph>
<glyph name="a" format="1">
  <advance width="378"/>
  <unicode hex="0061"/>
  <outline>
    <contour>
      <point x="112" y="-5" type="curve"/>
      <point x="152" y="-5"/>
      <point x="181" y="13"/>
      <point x="217" y="51" type="curve"/>
      <point x="193" y="47" type="line"/>
      <point x="220" y="11"/>
      <point x="233" y="-4"/>
      <point x="273" y="-4" type="curve"/>
      <point x="303" y="-4"/>
      <point x="353" y="13"/>
      <point x="368" y="28" type="curve"/>
      <point x="372" y="35"/>
      <point x="374" y="45"/>
      <point x="374" y="61" type="curve"/>
      <point x="374" y="66"/>
      <point x="372" y="71"/>
      <point x="367" y="74" type="curve"/>
      <point x="360" y="68"/>
      <point x="352" y="66"/>
      <point x="342" y="66" type="curve"/>
      <point x="326" y="66"/>
      <point x="320" y="79"/>
      <point x="320" y="110" type="curve"/>
      <point x="320" y="216" type="line" smooth="yes"/>
      <point x="320" y="292"/>
      <point x="281" y="312"/>
      <point x="216" y="312" type="curve"/>
      <point x="134" y="312"/>
      <point x="22" y="254"/>
      <point x="22" y="214" type="curve"/>
      <point x="22" y="199"/>
      <point x="32" y="183"/>
      <point x="73" y="183" type="curve"/>
      <point x="106" y="183"/>
      <point x="126" y="199"/>
      <point x="129" y="221" type="curve"/>
      <point x="135" y="258"/>
      <point x="145" y="267"/>
      <point x="170" y="267" type="curve"/>
      <point x="189" y="267"/>
      <point x="197" y="254"/>
      <point x="197" y="231" type="curve"/>
      <point x="197" y="192" type="line" smooth="yes"/>
      <point x="197" y="188"/>
      <point x="196" y="185"/>
      <point x="193" y="184" type="curve"/>
      <point x="81" y="152" type="line" smooth="yes"/>
      <point x="38" y="140"/>
      <point x="13" y="111"/>
      <point x="13" y="71" type="curve"/>
      <point x="13" y="25"/>
      <point x="56" y="-5"/>
    </contour>
    <contour>
      <point x="171" y="57" type="curve"/>
      <point x="147" y="57"/>
      <point x="132" y="75"/>
      <point x="132" y="96" type="curve"/>
      <point x="132" y="114"/>
      <point x="142" y="127"/>
      <point x="156" y="132" type="curve"/>
      <point x="197" y="145" type="line"/>
      <point x="197" y="69" type="line" smooth="yes"/>
      <point x="197" y="59"/>
      <point x="187" y="57"/>
    </contour>
    <contour>
      <point x="193" y="0" type="move" name="bottom"/>
    </contour>
    <contour>
      <point x="286" y="7" type="move" name="ogonek"/>
    </contour>
    <contour>
      <point x="193" y="306" type="move" name="top"/>
    </contour>
  </outline>
</glyph>
<glyph name="b" format="1">
  <advance width="430"/>
  <unicode hex="0062"/>
  <outline>
    <contour>
      <point x="250" y="312" type="curve"/>
      <point x="229" y="312"/>
      <point x="208" y="308"/>
      <point x="174" y="285" type="curve"/>
      <point x="174" y="391" type="line" smooth="yes"/>
      <point x="174" y="416"/>
      <point x="177" y="442"/>
      <point x="183" y="466" type="curve"/>
      <point x="181" y="473"/>
      <point x="177" y="479"/>
      <point x="173" y="479" type="curve"/>
      <point x="102" y="464"/>
      <point x="49" y="455"/>
      <point x="2" y="451" type="curve"/>
      <point x="-1" y="451"/>
      <point x="-3" y="447"/>
      <point x="-3" y="437" type="curve"/>
      <point x="-3" y="425"/>
      <point x="-1" y="419"/>
      <point x="2" y="419" type="curve"/>
      <point x="8" y="419" type="line" smooth="yes"/>
      <point x="31" y="419"/>
      <point x="45" y="416"/>
      <point x="47" y="408" type="curve"/>
      <point x="50" y="394"/>
      <point x="52" y="376"/>
      <point x="52" y="355" type="curve"/>
      <point x="52" y="85" type="line" smooth="yes"/>
      <point x="52" y="60"/>
      <point x="45" y="9"/>
      <point x="48" y="14" type="curve"/>
      <point x="54" y="4"/>
      <point x="68" y="-7"/>
      <point x="78" y="-8" type="curve"/>
      <point x="91" y="-2"/>
      <point x="112" y="8"/>
      <point x="130" y="8" type="curve"/>
      <point x="159" y="8"/>
      <point x="182" y="-6"/>
      <point x="232" y="-6" type="curve"/>
      <point x="326" y="-6"/>
      <point x="416" y="70"/>
      <point x="416" y="152" type="curve"/>
      <point x="416" y="251"/>
      <point x="334" y="312"/>
    </contour>
    <contour>
      <point x="201" y="252" type="curve"/>
      <point x="246" y="252"/>
      <point x="281" y="196"/>
      <point x="281" y="124" type="curve"/>
      <point x="281" y="56"/>
      <point x="262" y="37"/>
      <point x="224" y="37" type="curve"/>
      <point x="200" y="37"/>
      <point x="174" y="62"/>
      <point x="174" y="90" type="curve"/>
      <point x="174" y="230" type="line" smooth="yes"/>
      <point x="174" y="240"/>
      <point x="180" y="252"/>
    </contour>
    <contour>
      <point x="201" y="0" type="move" name="bottom"/>
    </contour>
    <contour>
      <point x="201" y="453" type="move" name="top"/>
    </contour>
  </outline>
</glyph>
<glyph name="f" format="1">
  <advance width="259"/>
  <unicode hex="0066"/>
  <outline>
    <contour>
      <point x="5" y="-3" type="curve"/>
      <point x="29" y="-1"/>
      <point x="108" y="4"/>
      <point x="122" y="4" type="curve"/>
      <point x="153" y="4"/>
      <point x="252" y="-3"/>
      <point x="243" y="-3" type="curve"/>
      <point x="243" y="-1"/>
      <point x="245" y="6"/>
      <point x="245" y="9" type="curve"/>
      <point x="245" y="17"/>
      <point x="243" y="26"/>
      <point x="242" y="26" type="curve"/>
      <point x="230" y="26"/>
      <point x="189" y="40"/>
      <point x="188" y="45" type="curve"/>
      <point x="185" y="55"/>
      <point x="183" y="76"/>
      <point x="183" y="109" type="curve"/>
      <point x="183" y="259" type="line"/>
      <point x="181" y="280" type="line"/>
      <point x="181" y="327" type="line" smooth="yes"/>
      <point x="181" y="401"/>
      <point x="196" y="444"/>
      <point x="221" y="444" type="curve"/>
      <point x="250" y="444"/>
      <point x="245" y="376"/>
      <point x="289" y="376" type="curve"/>
      <point x="315" y="376"/>
      <point x="335" y="393"/>
      <point x="335" y="415" type="curve"/>
      <point x="335" y="452"/>
      <point x="292" y="479"/>
      <point x="234" y="479" type="curve"/>
      <point x="150" y="479"/>
      <point x="60" y="395"/>
      <point x="60" y="318" type="curve"/>
      <point x="60" y="92" type="line" smooth="yes"/>
      <point x="60" y="71"/>
      <point x="59" y="56"/>
      <point x="57" y="45" type="curve"/>
      <point x="55" y="40"/>
      <point x="17" y="26"/>
      <point x="5" y="26" type="curve"/>
      <point x="2" y="26"/>
      <point x="1" y="22"/>
      <point x="1" y="13" type="curve"/>
      <point x="1" y="5"/>
      <point x="2" y="-1"/>
    </contour>
    <contour>
      <point x="0" y="254" type="curve"/>
      <point x="264" y="254" type="line"/>
      <point x="270" y="265"/>
      <point x="273" y="279"/>
      <point x="273" y="296" type="curve"/>
      <point x="273" y="299"/>
      <point x="272" y="301"/>
      <point x="270" y="301" type="curve"/>
      <point x="29" y="301" type="line" smooth="yes"/>
      <point x="16" y="301"/>
      <point x="-2" y="276"/>
      <point x="-2" y="258" type="curve"/>
      <point x="-2" y="255"/>
      <point x="-2" y="254"/>
    </contour>
    <contour>
      <point x="122" y="0" type="move" name="bottom"/>
    </contour>
    <contour>
      <point x="130" y="453" type="move" name="top"/>
    </contour>
  </outline>
</glyph>
<glyph name="i" format="1">
  <advance width="244"/>
  <unicode hex="0069"/>
  <outline>
    <component base="dotaccentcomb.i" xOffset="12" yOffset="9"/>
    <component base="idotless"/>
    <contour>
      <point x="137" y="0" type="move" name="bottom"/>
    </contour>
  </outline>
</glyph>
<glyph name="k" format="1">
  <advance width="455"/>
  <unicode hex="006B"/>
  <outline>
    <contour>
      <point x="1" y="-3" type="curve"/>
      <point x="-2" y="-3"/>
      <point x="91" y="4"/>
      <point x="118" y="4" type="curve"/>
      <point x="145" y="4"/>
      <point x="227" y="-3"/>
      <point x="220" y="-3" type="curve"/>
      <point x="221" y="-2"/>
      <point x="222" y="3"/>
      <point x="222" y="9" type="curve"/>
      <point x="222" y="18"/>
      <point x="220" y="26"/>
      <point x="219" y="26" type="curve"/>
      <point x="211" y="27"/>
      <point x="187" y="41"/>
      <point x="186" y="45" type="curve"/>
      <point x="181" y="59"/>
      <point x="180" y="80"/>
      <point x="181" y="109" type="curve"/>
      <point x="181" y="142" type="line"/>
      <point x="189" y="144" type="line"/>
      <point x="270" y="43" type="line" smooth="yes"/>
      <point x="271" y="42"/>
      <point x="272" y="39"/>
      <point x="272" y="35" type="curve"/>
      <point x="272" y="30"/>
      <point x="255" y="26"/>
      <point x="239" y="26" type="curve"/>
      <point x="237" y="26"/>
      <point x="236" y="23"/>
      <point x="236" y="13" type="curve"/>
      <point x="236" y="5"/>
      <point x="237" y="-1"/>
      <point x="238" y="-3" type="curve"/>
      <point x="281" y="-1"/>
      <point x="343" y="3"/>
      <point x="356" y="3" type="curve"/>
      <point x="363" y="3"/>
      <point x="395" y="1"/>
      <point x="460" y="-2" type="curve"/>
      <point x="461" y="1"/>
      <point x="462" y="5"/>
      <point x="462" y="12" type="curve"/>
      <point x="462" y="22"/>
      <point x="460" y="27"/>
      <point x="458" y="27" type="curve"/>
      <point x="428" y="31"/>
      <point x="419" y="41"/>
      <point x="402" y="61" type="curve"/>
      <point x="289" y="193" type="line"/>
      <point x="261" y="164" type="line"/>
      <point x="326" y="219" type="line" smooth="yes"/>
      <point x="356" y="246"/>
      <point x="396" y="265"/>
      <point x="427" y="266" type="curve"/>
      <point x="429" y="266"/>
      <point x="429" y="272"/>
      <point x="429" y="278" type="curve"/>
      <point x="429" y="286"/>
      <point x="428" y="295"/>
      <point x="425" y="297" type="curve"/>
      <point x="397" y="296"/>
      <point x="391" y="296"/>
      <point x="351" y="296" type="curve"/>
      <point x="329" y="296"/>
      <point x="295" y="295"/>
      <point x="249" y="297" type="curve"/>
      <point x="247" y="296"/>
      <point x="246" y="292"/>
      <point x="246" y="284" type="curve"/>
      <point x="246" y="276"/>
      <point x="247" y="269"/>
      <point x="247" y="267" type="curve"/>
      <point x="279" y="264"/>
      <point x="282" y="261"/>
      <point x="282" y="256" type="curve"/>
      <point x="282" y="249"/>
      <point x="278" y="242"/>
      <point x="271" y="238" type="curve"/>
      <point x="211" y="185" type="line" smooth="yes"/>
      <point x="207" y="182"/>
      <point x="198" y="179"/>
      <point x="181" y="174" type="curve"/>
      <point x="181" y="391" type="line" smooth="yes"/>
      <point x="181" y="416"/>
      <point x="184" y="442"/>
      <point x="190" y="466" type="curve"/>
      <point x="190" y="471"/>
      <point x="185" y="477"/>
      <point x="180" y="479" type="curve"/>
      <point x="119" y="466"/>
      <point x="63" y="457"/>
      <point x="9" y="451" type="curve"/>
      <point x="6" y="451"/>
      <point x="5" y="447"/>
      <point x="5" y="439" type="curve"/>
      <point x="5" y="427"/>
      <point x="6" y="420"/>
      <point x="9" y="420" type="curve"/>
      <point x="16" y="420" type="line" smooth="yes"/>
      <point x="16" y="420"/>
      <point x="42" y="418"/>
      <point x="48" y="413" type="curve"/>
      <point x="56" y="408"/>
      <point x="58" y="385"/>
      <point x="58" y="345" type="curve"/>
      <point x="58" y="100" type="line" smooth="yes"/>
      <point x="58" y="77"/>
      <point x="57" y="60"/>
      <point x="53" y="45" type="curve"/>
      <point x="51" y="39"/>
      <point x="14" y="26"/>
      <point x="3" y="26" type="curve"/>
      <point x="1" y="26"/>
      <point x="0" y="22"/>
      <point x="0" y="13" type="curve"/>
      <point x="0" y="5"/>
      <point x="1" y="-2"/>
    </contour>
    <contour>
      <point x="252" y="0" type="move" name="bottom"/>
    </contour>
    <contour>
      <point x="252" y="453" type="move" name="top"/>
    </contour>
  </outline>
</glyph>
<glyph name="o" format="1">
  <advance width="394"/>
  <unicode hex="006F"/>
  <outline>
    <contour>
      <point x="182" y="266" type="curve"/>
      <point x="214" y="266"/>
      <point x="247" y="206"/>
      <point x="247" y="142" type="curve"/>
      <point x="247" y="71"/>
      <point x="235" y="41"/>
      <point x="213" y="41" type="curve"/>
      <point x="176" y="41"/>
      <point x="147" y="103"/>
      <point x="147" y="169" type="curve"/>
      <point x="147" y="241"/>
      <point x="159" y="266"/>
    </contour>
    <contour>
      <point x="192" y="312" type="curve"/>
      <point x="92" y="312"/>
      <point x="13" y="244"/>
      <point x="13" y="154" type="curve"/>
      <point x="13" y="62"/>
      <point x="91" y="-5"/>
      <point x="200" y="-5" type="curve"/>
      <point x="301" y="-5"/>
      <point x="380" y="62"/>
      <point x="380" y="154" type="curve"/>
      <point x="380" y="241"/>
      <point x="297" y="312"/>
    </contour>
    <contour>
      <point x="198" y="0" type="move" name="bottom"/>
    </contour>
    <contour>
      <point x="198" y="149" type="move" name="center"/>
    </contour>
    <contour>
      <point x="356" y="7" type="move" name="ogonek"/>
    </contour>
    <contour>
      <point x="198" y="306" type="move" name="top"/>
    </contour>
    <contour>
      <point x="380" y="297" type="move" name="topright"/>
    </contour>
  </outline>
</glyph>
<glyph name="p" format="1">
  <advance width="437"/>
  <unicode hex="0070"/>
  <outline>
    <contour>
      <point x="258" y="312" type="curve"/>
      <point x="236" y="312"/>
      <point x="215" y="308"/>
      <point x="182" y="275" type="curve"/>
      <point x="183" y="290"/>
      <point x="184" y="297"/>
      <point x="184" y="301" type="curve"/>
      <point x="184" y="308"/>
      <point x="181" y="309"/>
      <point x="178" y="309" type="curve"/>
      <point x="170" y="309"/>
      <point x="164" y="308"/>
      <point x="159" y="307" type="curve"/>
      <point x="131" y="299"/>
      <point x="45" y="274"/>
      <point x="13" y="278" type="curve"/>
      <point x="10" y="280"/>
      <point x="8" y="268"/>
      <point x="8" y="249" type="curve"/>
      <point x="21" y="246"/>
      <point x="34" y="242"/>
      <point x="44" y="232" type="curve"/>
      <point x="54" y="222"/>
      <point x="59" y="202"/>
      <point x="59" y="171" type="curve"/>
      <point x="59" y="-43" type="line" smooth="yes"/>
      <point x="59" y="-66"/>
      <point x="58" y="-84"/>
      <point x="54" y="-98" type="curve"/>
      <point x="52" y="-104"/>
      <point x="15" y="-117"/>
      <point x="4" y="-117" type="curve"/>
      <point x="2" y="-117"/>
      <point x="1" y="-122"/>
      <point x="1" y="-131" type="curve"/>
      <point x="1" y="-140"/>
      <point x="2" y="-144"/>
      <point x="4" y="-146" type="curve"/>
      <point x="11" y="-145"/>
      <point x="79" y="-140"/>
      <point x="119" y="-140" type="curve"/>
      <point x="159" y="-140"/>
      <point x="228" y="-145"/>
      <point x="236" y="-146" type="curve"/>
      <point x="237" y="-145"/>
      <point x="238" y="-140"/>
      <point x="238" y="-134" type="curve"/>
      <point x="238" y="-125"/>
      <point x="236" y="-117"/>
      <point x="235" y="-117" type="curve"/>
      <point x="227" y="-117"/>
      <point x="189" y="-104"/>
      <point x="187" y="-98" type="curve"/>
      <point x="182" y="-87"/>
      <point x="182" y="-66"/>
      <point x="182" y="-34" type="curve"/>
      <point x="182" y="3" type="line"/>
      <point x="198" y="-4"/>
      <point x="234" y="-6"/>
      <point x="239" y="-6" type="curve"/>
      <point x="334" y="-6"/>
      <point x="424" y="70"/>
      <point x="424" y="152" type="curve"/>
      <point x="424" y="251"/>
      <point x="341" y="312"/>
    </contour>
    <contour>
      <point x="216" y="252" type="curve"/>
      <point x="254" y="252"/>
      <point x="288" y="196"/>
      <point x="288" y="124" type="curve"/>
      <point x="288" y="56"/>
      <point x="269" y="37"/>
      <point x="231" y="37" type="curve"/>
      <point x="207" y="37"/>
      <point x="182" y="62"/>
      <point x="182" y="90" type="curve"/>
      <point x="182" y="210" type="line" smooth="yes"/>
      <point x="182" y="238"/>
      <point x="198" y="252"/>
    </contour>
    <contour>
      <point x="219" y="0" type="move" name="bottom"/>
    </contour>
    <contour>
      <point x="219" y="306" type="move" name="top"/>
    </contour>
  </outline>
</glyph>
<glyph name="q" format="1">
  <advance width="430"/>
  <unicode hex="0071"/>
  <outline>
    <contour>
      <point x="430" y="-117" type="curve"/>
      <point x="421" y="-117"/>
      <point x="383" y="-104"/>
      <point x="381" y="-98" type="curve"/>
      <point x="377" y="-86"/>
      <point x="376" y="-66"/>
      <point x="376" y="-34" type="curve"/>
      <point x="376" y="220" type="line" smooth="yes"/>
      <point x="376" y="245"/>
      <point x="383" y="296"/>
      <point x="380" y="291" type="curve"/>
      <point x="375" y="302"/>
      <point x="361" y="312"/>
      <point x="350" y="314" type="curve"/>
      <point x="337" y="307"/>
      <point x="316" y="297"/>
      <point x="298" y="297" type="curve"/>
      <point x="270" y="297"/>
      <point x="251" y="311"/>
      <point x="202" y="311" type="curve"/>
      <point x="97" y="311"/>
      <point x="13" y="231"/>
      <point x="13" y="142" type="curve"/>
      <point x="13" y="60"/>
      <point x="83" y="-5"/>
      <point x="156" y="-5" type="curve"/>
      <point x="181" y="-5"/>
      <point x="221" y="11"/>
      <point x="254" y="35" type="curve"/>
      <point x="254" y="-43" type="line" smooth="yes"/>
      <point x="254" y="-66"/>
      <point x="252" y="-84"/>
      <point x="249" y="-98" type="curve"/>
      <point x="247" y="-104"/>
      <point x="209" y="-117"/>
      <point x="198" y="-117" type="curve"/>
      <point x="196" y="-117"/>
      <point x="195" y="-122"/>
      <point x="195" y="-131" type="curve"/>
      <point x="195" y="-140"/>
      <point x="196" y="-144"/>
      <point x="198" y="-146" type="curve"/>
      <point x="205" y="-145"/>
      <point x="274" y="-140"/>
      <point x="314" y="-140" type="curve"/>
      <point x="354" y="-140"/>
      <point x="423" y="-145"/>
      <point x="431" y="-146" type="curve"/>
      <point x="431" y="-145"/>
      <point x="433" y="-140"/>
      <point x="433" y="-134" type="curve"/>
      <point x="433" y="-125"/>
      <point x="431" y="-117"/>
    </contour>
    <contour>
      <point x="223" y="65" type="curve"/>
      <point x="175" y="65"/>
      <point x="146" y="112"/>
      <point x="146" y="171" type="curve"/>
      <point x="146" y="223"/>
      <point x="169" y="265"/>
      <point x="205" y="265" type="curve"/>
      <point x="232" y="265"/>
      <point x="254" y="248"/>
      <point x="254" y="232" type="curve"/>
      <point x="254" y="100" type="line" smooth="yes"/>
      <point x="254" y="83"/>
      <point x="237" y="65"/>
    </contour>
    <contour>
      <point x="197" y="0" type="move" name="bottom"/>
    </contour>
    <contour>
      <point x="197" y="306" type="move" name="top"/>
    </contour>
  </outline>
</glyph>
<glyph name="v" format="1">
  <advance width="401"/>
  <unicode hex="0076"/>
  <outline>
    <contour>
      <point x="190" y="-8" type="curve"/>
      <point x="198" y="-8"/>
      <point x="206" y="2"/>
      <point x="215" y="15" type="curve"/>
      <point x="354" y="250" type="line" smooth="yes"/>
      <point x="362" y="262"/>
      <point x="373" y="274"/>
      <point x="418" y="280" type="curve"/>
      <point x="419" y="280"/>
      <point x="420" y="284"/>
      <point x="420" y="296" type="curve"/>
      <point x="420" y="304"/>
      <point x="419" y="307"/>
      <point x="416" y="309" type="curve"/>
      <point x="386" y="306"/>
      <point x="338" y="303"/>
      <point x="321" y="303" type="curve"/>
      <point x="304" y="303"/>
      <point x="269" y="306"/>
      <point x="234" y="309" type="curve"/>
      <point x="233" y="306"/>
      <point x="232" y="300"/>
      <point x="232" y="292" type="curve"/>
      <point x="232" y="285"/>
      <point x="233" y="281"/>
      <point x="234" y="280" type="curve"/>
      <point x="277" y="273"/>
      <point x="282" y="269"/>
      <point x="282" y="259" type="curve"/>
      <point x="282" y="250"/>
      <point x="279" y="240"/>
      <point x="276" y="235" type="curve"/>
      <point x="229" y="150" type="line"/>
      <point x="192" y="238" type="line" smooth="yes"/>
      <point x="188" y="246"/>
      <point x="187" y="252"/>
      <point x="187" y="255" type="curve"/>
      <point x="187" y="268"/>
      <point x="199" y="274"/>
      <point x="244" y="280" type="curve"/>
      <point x="246" y="280"/>
      <point x="246" y="281"/>
      <point x="246" y="291" type="curve"/>
      <point x="246" y="302"/>
      <point x="245" y="306"/>
      <point x="243" y="309" type="curve"/>
      <point x="232" y="307"/>
      <point x="145" y="302"/>
      <point x="124" y="302" type="curve"/>
      <point x="100" y="302"/>
      <point x="19" y="307"/>
      <point x="0" y="309" type="curve"/>
      <point x="-2" y="307"/>
      <point x="-3" y="302"/>
      <point x="-3" y="297" type="curve"/>
      <point x="-3" y="286"/>
      <point x="-2" y="280"/>
      <point x="0" y="280" type="curve"/>
      <point x="21" y="280"/>
      <point x="50" y="265"/>
      <point x="54" y="257" type="curve"/>
      <point x="175" y="5" type="line" smooth="yes"/>
      <point x="179" y="-4"/>
      <point x="181" y="-8"/>
    </contour>
    <contour>
      <point x="213" y="0" type="move" name="bottom"/>
    </contour>
    <contour>
      <point x="213" y="306" type="move" name="top"/>
    </contour>
  </outline>
</glyph>
<glyph name="z" format="1">
  <advance width="333"/>
  <unicode hex="007A"/>
  <outline>
    <contour>
      <point x="208" y="43" type="curve"/>
      <point x="146" y="43" type="line"/>
      <point x="150" y="35" type="line"/>
      <point x="312" y="286" type="line"/>
      <point x="312" y="294"/>
      <point x="311" y="300"/>
      <point x="310" y="302" type="curve"/>
      <point x="277" y="299"/>
      <point x="244" y="297"/>
      <point x="210" y="297" type="curve"/>
      <point x="93" y="297" type="line" smooth="yes"/>
      <point x="75" y="297"/>
      <point x="51" y="298"/>
      <point x="22" y="301" type="curve"/>
      <point x="21" y="288"/>
      <point x="19" y="272"/>
      <point x="15" y="244" type="curve"/>
      <point x="11" y="211"/>
      <point x="10" y="199"/>
      <point x="10" y="195" type="curve"/>
      <point x="10" y="192"/>
      <point x="16" y="190"/>
      <point x="22" y="190" type="curve"/>
      <point x="31" y="190"/>
      <point x="37" y="192"/>
      <point x="39" y="194" type="curve"/>
      <point x="47" y="233"/>
      <point x="68" y="253"/>
      <point x="104" y="253" type="curve"/>
      <point x="188" y="253" type="line"/>
      <point x="172" y="275" type="line"/>
      <point x="16" y="19" type="line"/>
      <point x="16" y="18"/>
      <point x="16" y="17"/>
      <point x="16" y="15" type="curve"/>
      <point x="16" y="10"/>
      <point x="17" y="6"/>
      <point x="22" y="0" type="curve"/>
      <point x="232" y="0" type="line" smooth="yes"/>
      <point x="246" y="0"/>
      <point x="260" y="0"/>
      <point x="303" y="-3" type="curve"/>
      <point x="313" y="109" type="line"/>
      <point x="312" y="109"/>
      <point x="304" y="111"/>
      <point x="300" y="111" type="curve"/>
      <point x="290" y="111"/>
      <point x="286" y="110"/>
      <point x="284" y="105" type="curve"/>
      <point x="268" y="60"/>
      <point x="247" y="43"/>
    </contour>
    <contour>
      <point x="170" y="0" type="move" name="bottom"/>
    </contour>
    <contour>
      <point x="170" y="149" type="move" name="center"/>
    </contour>
    <contour>
      <point x="170" y="306" type="move" name="top"/>
    </contour>
  </outline>
</glyph>
<glyph name="braceleft" format="1">
  <advance width="246"/>
  <unicode hex="007B"/>
  <outline>
    <contour>
      <point x="163" y="10" type="curve"/>
      <point x="163" y="54"/>
      <point x="184" y="94"/>
      <point x="184" y="136" type="curve"/>
      <point x="184" y="178"/>
      <point x="144" y="208"/>
      <point x="75" y="212" type="curve"/>
      <point x="144" y="216"/>
      <point x="184" y="248"/>
      <point x="184" y="290" type="curve"/>
      <point x="184" y="332"/>
      <point x="163" y="371"/>
      <point x="163" y="415" type="curve"/>
      <point x="163" y="442"/>
      <point x="155" y="480"/>
      <point x="229" y="482" type="curve"/>
      <point x="231" y="485"/>
      <point x="232" y="493"/>
      <point x="232" y="499" type="curve"/>
      <point x="232" y="505"/>
      <point x="231" y="511"/>
      <point x="229" y="513" type="curve"/>
      <point x="123" y="514"/>
      <point x="50" y="473"/>
      <point x="50" y="397" type="curve"/>
      <point x="50" y="354"/>
      <point x="78" y="303"/>
      <point x="78" y="275" type="curve"/>
      <point x="78" y="242"/>
      <point x="45" y="234"/>
      <point x="-1" y="228" type="curve"/>
      <point x="-3" y="224"/>
      <point x="-4" y="216"/>
      <point x="-4" y="213" type="curve"/>
      <point x="-4" y="209"/>
      <point x="-3" y="201"/>
      <point x="-1" y="197" type="curve"/>
      <point x="45" y="191"/>
      <point x="78" y="183"/>
      <point x="78" y="151" type="curve"/>
      <point x="78" y="122"/>
      <point x="50" y="72"/>
      <point x="50" y="29" type="curve"/>
      <point x="50" y="-48"/>
      <point x="123" y="-89"/>
      <point x="229" y="-88" type="curve"/>
      <point x="231" y="-86"/>
      <point x="232" y="-80"/>
      <point x="232" y="-73" type="curve"/>
      <point x="232" y="-68"/>
      <point x="231" y="-59"/>
      <point x="229" y="-57" type="curve"/>
      <point x="155" y="-55"/>
      <point x="163" y="-17"/>
    </contour>
  </outline>
</glyph>
<glyph name="bar" format="1">
  <advance width="225"/>
  <unicode hex="007C"/>
  <outline>
    <contour>
      <point x="75" y="-78" type="line"/>
      <point x="151" y="-78" type="line"/>
      <point x="151" y="526" type="line"/>
      <point x="75" y="526" type="line"/>
    </contour>
  </outline>
</glyph>
<glyph name="braceright" format="1">
  <advance width="246"/>
  <unicode hex="007D"/>
  <outline>
    <contour>
      <point x="83" y="10" type="curve"/>
      <point x="83" y="-17"/>
      <point x="91" y="-55"/>
      <point x="17" y="-57" type="curve"/>
      <point x="15" y="-59"/>
      <point x="14" y="-68"/>
      <point x="14" y="-73" type="curve"/>
      <point x="14" y="-80"/>
      <point x="15" y="-86"/>
      <point x="17" y="-88" type="curve"/>
      <point x="123" y="-89"/>
      <point x="196" y="-48"/>
      <point x="196" y="29" type="curve"/>
      <point x="196" y="72"/>
      <point x="168" y="122"/>
      <point x="168" y="151" type="curve"/>
      <point x="168" y="183"/>
      <point x="201" y="191"/>
      <point x="247" y="197" type="curve"/>
      <point x="249" y="201"/>
      <point x="250" y="209"/>
      <point x="250" y="213" type="curve"/>
      <point x="250" y="216"/>
      <point x="249" y="224"/>
      <point x="247" y="228" type="curve"/>
      <point x="201" y="234"/>
      <point x="168" y="242"/>
      <point x="168" y="275" type="curve"/>
      <point x="168" y="303"/>
      <point x="196" y="354"/>
      <point x="196" y="397" type="curve"/>
      <point x="196" y="473"/>
      <point x="123" y="514"/>
      <point x="17" y="513" type="curve"/>
      <point x="15" y="511"/>
      <point x="14" y="505"/>
      <point x="14" y="499" type="curve"/>
      <point x="14" y="493"/>
      <point x="15" y="485"/>
      <point x="17" y="482" type="curve"/>
      <point x="91" y="480"/>
      <point x="83" y="442"/>
      <point x="83" y="415" type="curve"/>
      <point x="83" y="371"/>
      <point x="62" y="332"/>
      <point x="62" y="290" type="curve"/>
      <point x="62" y="248"/>
      <point x="101" y="216"/>
      <point x="171" y="212" type="curve"/>
      <point x="101" y="208"/>
      <point x="62" y="178"/>
      <point x="62" y="136" type="curve"/>
      <point x="62" y="94"/>
      <point x="83" y="54"/>
    </contour>
  </outline>
</glyph>
<glyph name="asciitilde" format="1">
  <advance width="442"/>
  <unicode hex="007E"/>
  <outline>
    <contour>
      <point x="37" y="145" type="curve"/>
      <point x="58" y="125" type="line"/>
      <point x="82" y="152"/>
      <point x="105" y="167"/>
      <point x="137" y="167" type="curve"/>
      <point x="193" y="167"/>
      <point x="233" y="119"/>
      <point x="294" y="119" type="curve"/>
      <point x="340" y="119"/>
      <point x="385" y="152"/>
      <point x="405" y="194" type="curve"/>
      <point x="384" y="214" type="line"/>
      <point x="360" y="186"/>
      <point x="337" y="172"/>
      <point x="305" y="172" type="curve"/>
      <point x="248" y="172"/>
      <point x="209" y="220"/>
      <point x="148" y="220" type="curve"/>
      <point x="101" y="220"/>
      <point x="57" y="186"/>
    </contour>
  </outline>
</glyph>
<glyph name="exclamdown" format="1">
  <advance width="141"/>
  <unicode hex="00A1"/>
  <outline>
    <contour>
      <point x="70" y="153" type="curve"/>
      <point x="58" y="153"/>
      <point x="53" y="147"/>
      <point x="50" y="130" type="curve"/>
      <point x="41" y="78"/>
      <point x="15" y="-63"/>
      <point x="15" y="-88" type="curve"/>
      <point x="15" y="-118"/>
      <point x="40" y="-139"/>
      <point x="72" y="-139" type="curve"/>
      <point x="100" y="-139"/>
      <point x="126" y="-118"/>
      <point x="126" y="-88" type="curve"/>
      <point x="126" y="-63"/>
      <point x="99" y="78"/>
      <point x="90" y="130" type="curve"/>
      <point x="87" y="147"/>
      <point x="81" y="153"/>
    </contour>
    <contour>
      <point x="73" y="309" type="curve"/>
      <point x="27" y="309"/>
      <point x="9" y="278"/>
      <point x="9" y="249" type="curve"/>
      <point x="9" y="221"/>
      <point x="26" y="191"/>
      <point x="70" y="191" type="curve"/>
      <point x="104" y="191"/>
      <point x="132" y="216"/>
      <point x="132" y="248" type="curve"/>
      <point x="132" y="280"/>
      <point x="106" y="309"/>
    </contour>
  </outline>
</glyph>
<glyph name="cent" format="1">
  <advance width="362"/>
  <unicode hex="00A2"/>
  <outline>
    <contour>
      <point x="207" y="312" type="curve"/>
      <point x="103" y="312"/>
      <point x="13" y="248"/>
      <point x="13" y="152" type="curve"/>
      <point x="13" y="61"/>
      <point x="90" y="-5"/>
      <point x="187" y="-5" type="curve"/>
      <point x="262" y="-5"/>
      <point x="316" y="31"/>
      <point x="334" y="72" type="curve"/>
      <point x="335" y="75"/>
      <point x="336" y="79"/>
      <point x="336" y="88" type="curve"/>
      <point x="336" y="94"/>
      <point x="332" y="98"/>
      <point x="328" y="103" type="curve"/>
      <point x="301" y="76"/>
      <point x="275" y="69"/>
      <point x="241" y="69" type="curve"/>
      <point x="187" y="69"/>
      <point x="147" y="102"/>
      <point x="147" y="184" type="curve"/>
      <point x="147" y="227"/>
      <point x="163" y="267"/>
      <point x="200" y="267" type="curve"/>
      <point x="219" y="267"/>
      <point x="228" y="260"/>
      <point x="233" y="241" type="curve"/>
      <point x="242" y="213"/>
      <point x="262" y="198"/>
      <point x="288" y="198" type="curve"/>
      <point x="317" y="198"/>
      <point x="340" y="219"/>
      <point x="340" y="244" type="curve"/>
      <point x="340" y="278"/>
      <point x="297" y="312"/>
    </contour>
    <contour>
      <point x="269" y="374" type="line"/>
      <point x="217" y="374" type="line"/>
      <point x="142" y="-69" type="line"/>
      <point x="195" y="-69" type="line"/>
    </contour>
  </outline>
</glyph>
<glyph name="currency" format="1">
  <advance width="349"/>
  <unicode hex="00A4"/>
  <outline>
    <contour>
      <point x="186" y="118" type="curve"/>
      <point x="147" y="118"/>
      <point x="139" y="149"/>
      <point x="139" y="237" type="curve"/>
      <point x="139" y="275"/>
      <point x="140" y="306"/>
      <point x="170" y="306" type="curve"/>
      <point x="210" y="306"/>
      <point x="219" y="275"/>
      <point x="219" y="185" type="curve"/>
      <point x="219" y="150"/>
      <point x="215" y="118"/>
    </contour>
    <contour>
      <point x="299" y="351" type="curve"/>
      <point x="265" y="321" type="line"/>
      <point x="239" y="335"/>
      <point x="210" y="342"/>
      <point x="179" y="342" type="curve"/>
      <point x="149" y="342"/>
      <point x="122" y="336"/>
      <point x="98" y="322" type="curve"/>
      <point x="63" y="358" type="line"/>
      <point x="51" y="354"/>
      <point x="18" y="333"/>
      <point x="25" y="326" type="curve"/>
      <point x="60" y="292" type="line"/>
      <point x="39" y="268"/>
      <point x="28" y="242"/>
      <point x="28" y="212" type="curve"/>
      <point x="28" y="187"/>
      <point x="37" y="162"/>
      <point x="53" y="140" type="curve"/>
      <point x="17" y="108" type="line"/>
      <point x="20" y="97"/>
      <point x="43" y="67"/>
      <point x="51" y="73" type="curve"/>
      <point x="89" y="107" type="line"/>
      <point x="116" y="90"/>
      <point x="146" y="81"/>
      <point x="179" y="81" type="curve"/>
      <point x="207" y="81"/>
      <point x="233" y="87"/>
      <point x="256" y="99" type="curve"/>
      <point x="288" y="67" type="line"/>
      <point x="300" y="70"/>
      <point x="333" y="91"/>
      <point x="325" y="98" type="curve"/>
      <point x="296" y="127" type="line"/>
      <point x="319" y="149"/>
      <point x="331" y="179"/>
      <point x="331" y="212" type="curve"/>
      <point x="331" y="240"/>
      <point x="321" y="266"/>
      <point x="302" y="289" type="curve"/>
      <point x="333" y="316" type="line"/>
      <point x="329" y="328"/>
      <point x="306" y="358"/>
    </contour>
  </outline>
</glyph>
<glyph name="brokenbar" format="1">
  <advance width="225"/>
  <unicode hex="00A6"/>
  <outline>
    <contour>
      <point x="151" y="-78" type="line"/>
      <point x="151" y="180" type="line"/>
      <point x="75" y="180" type="line"/>
      <point x="75" y="-78" type="line"/>
    </contour>
    <contour>
      <point x="75" y="526" type="line"/>
      <point x="75" y="268" type="line"/>
      <point x="151" y="268" type="line"/>
      <point x="151" y="526" type="line"/>
    </contour>
  </outline>
</glyph>
<glyph name="section" format="1">
  <advance width="367"/>
  <unicode hex="00A7"/>
  <outline>
    <contour>
      <point x="175" y="299" type="curve"/>
      <point x="140" y="307" type="line"/>
      <point x="66" y="274"/>
      <point x="38" y="244"/>
      <point x="38" y="201" type="curve"/>
      <point x="38" y="101"/>
      <point x="196" y="117"/>
      <point x="196" y="42" type="curve"/>
      <point x="196" y="34"/>
      <point x="193" y="17"/>
      <point x="175" y="17" type="curve"/>
      <point x="142" y="17"/>
      <point x="156" y="72"/>
      <point x="99" y="72" type="curve"/>
      <point x="75" y="72"/>
      <point x="56" y="57"/>
      <point x="56" y="33" type="curve"/>
      <point x="56" y="-1"/>
      <point x="95" y="-28"/>
      <point x="162" y="-28" type="curve"/>
      <point x="225" y="-28"/>
      <point x="296" y="10"/>
      <point x="296" y="78" type="curve"/>
      <point x="296" y="171"/>
      <point x="125" y="182"/>
      <point x="125" y="233" type="curve"/>
      <point x="125" y="249"/>
      <point x="135" y="268"/>
    </contour>
    <contour>
      <point x="192" y="131" type="curve"/>
      <point x="227" y="123" type="line"/>
      <point x="301" y="156"/>
      <point x="329" y="186"/>
      <point x="329" y="229" type="curve"/>
      <point x="329" y="329"/>
      <point x="171" y="313"/>
      <point x="171" y="388" type="curve"/>
      <point x="171" y="396"/>
      <point x="174" y="413"/>
      <point x="192" y="413" type="curve"/>
      <point x="225" y="413"/>
      <point x="211" y="358"/>
      <point x="268" y="358" type="curve"/>
      <point x="292" y="358"/>
      <point x="311" y="373"/>
      <point x="311" y="397" type="curve"/>
      <point x="311" y="431"/>
      <point x="272" y="458"/>
      <point x="205" y="458" type="curve"/>
      <point x="142" y="458"/>
      <point x="71" y="420"/>
      <point x="71" y="352" type="curve"/>
      <point x="71" y="259"/>
      <point x="242" y="248"/>
      <point x="242" y="197" type="curve"/>
      <point x="242" y="181"/>
      <point x="232" y="162"/>
    </contour>
  </outline>
</glyph>
<glyph name="dieresis" format="1">
  <advance width="223"/>
  <unicode hex="00A8"/>
  <outline>
    <contour>
      <point x="45" y="330" type="curve"/>
      <point x="72" y="330"/>
      <point x="92" y="351"/>
      <point x="92" y="374" type="curve"/>
      <point x="92" y="397"/>
      <point x="72" y="418"/>
      <point x="45" y="418" type="curve"/>
      <point x="18" y="418"/>
      <point x="-2" y="397"/>
      <point x="-2" y="374" type="curve"/>
      <point x="-2" y="351"/>
      <point x="18" y="330"/>
    </contour>
    <contour>
      <point x="178" y="330" type="curve"/>
      <point x="205" y="330"/>
      <point x="226" y="351"/>
      <point x="226" y="374" type="curve"/>
      <point x="226" y="397"/>
      <point x="205" y="418"/>
      <point x="178" y="418" type="curve"/>
      <point x="151" y="418"/>
      <point x="131" y="397"/>
      <point x="131" y="374" type="curve"/>
      <point x="131" y="351"/>
      <point x="151" y="330"/>
    </contour>
    <contour>
      <point x="112" y="306" type="move" name="_top"/>
    </contour>
    <contour>
      <point x="112" y="440" type="move" name="top"/>
    </contour>
  </outline>
</glyph>
<glyph name="copyright" format="1">
  <advance width="445"/>
  <unicode hex="00A9"/>
  <outline>
    <contour>
      <point x="298" y="181" type="curve"/>
      <point x="296" y="183"/>
      <point x="292" y="185"/>
      <point x="286" y="185" type="curve"/>
      <point x="285" y="185"/>
      <point x="270" y="172"/>
      <point x="264" y="167" type="curve"/>
      <point x="257" y="161"/>
      <point x="248" y="158"/>
      <point x="234" y="158" type="curve"/>
      <point x="192" y="158"/>
      <point x="183" y="198"/>
      <point x="183" y="238" type="curve"/>
      <point x="183" y="278"/>
      <point x="193" y="311"/>
      <point x="222" y="311" type="curve"/>
      <point x="260" y="311"/>
      <point x="273" y="291"/>
      <point x="279" y="276" type="curve"/>
      <point x="283" y="275"/>
      <point x="287" y="274"/>
      <point x="292" y="274" type="curve"/>
      <point x="293" y="274"/>
      <point x="294" y="274"/>
      <point x="294" y="275" type="curve"/>
      <point x="294" y="282"/>
      <point x="288" y="341"/>
      <point x="289" y="325" type="curve"/>
      <point x="266" y="328"/>
      <point x="245" y="330"/>
      <point x="226" y="330" type="curve"/>
      <point x="168" y="330"/>
      <point x="124" y="286"/>
      <point x="124" y="232" type="curve"/>
      <point x="124" y="183"/>
      <point x="168" y="139"/>
      <point x="219" y="139" type="curve"/>
      <point x="248" y="139"/>
      <point x="269" y="144"/>
      <point x="284" y="153" type="curve"/>
      <point x="292" y="157"/>
      <point x="298" y="174"/>
    </contour>
  </outline>
</glyph>
<glyph name="logicalnot" format="1">
  <advance width="423"/>
  <unicode hex="00AC"/>
  <outline>
    <contour>
      <point x="386" y="289" type="line"/>
      <point x="37" y="289" type="line"/>
      <point x="37" y="229" type="line"/>
      <point x="319" y="229" type="line"/>
      <point x="319" y="116" type="line"/>
      <point x="386" y="116" type="line"/>
    </contour>
  </outline>
</glyph>
<glyph name="macron" format="1">
  <advance width="223"/>
  <unicode hex="00AF"/>
  <outline>
    <contour>
      <point x="193" y="391" type="line"/>
      <point x="30" y="391" type="line"/>
      <point x="30" y="352" type="line"/>
      <point x="193" y="352" type="line"/>
    </contour>
    <contour>
      <point x="112" y="306" type="move" name="_top"/>
    </contour>
    <contour>
      <point x="112" y="440" type="move" name="top"/>
    </contour>
  </outline>
</glyph>
<glyph name="degree" format="1">
  <advance width="309"/>
  <unicode hex="00B0"/>
  <outline>
    <contour>
      <point x="155" y="255" type="curve"/>
      <point x="218" y="255"/>
      <point x="268" y="297"/>
      <point x="268" y="356" type="curve"/>
      <point x="268" y="415"/>
      <point x="218" y="457"/>
      <point x="155" y="457" type="curve"/>
      <point x="90" y="457"/>
      <point x="41" y="415"/>
      <point x="41" y="356" type="curve"/>
      <point x="41" y="297"/>
      <point x="90" y="255"/>
    </contour>
    <contour>
      <point x="155" y="304" type="curve"/>
      <point x="122" y="304"/>
      <point x="99" y="324"/>
      <point x="99" y="356" type="curve"/>
      <point x="99" y="387"/>
      <point x="122" y="408"/>
      <point x="155" y="408" type="curve"/>
      <point x="186" y="408"/>
      <point x="210" y="387"/>
      <point x="210" y="356" type="curve"/>
      <point x="210" y="324"/>
      <point x="186" y="304"/>
    </contour>
  </outline>
</glyph>
<glyph name="plusminus" format="1">
  <advance width="393"/>
  <unicode hex="00B1"/>
  <outline>
    <contour>
      <point x="37" y="273" type="line"/>
      <point x="37" y="213" type="line"/>
      <point x="386" y="213" type="line"/>
      <point x="386" y="273" type="line"/>
    </contour>
    <contour>
      <point x="178" y="82" type="line"/>
      <point x="245" y="82" type="line"/>
      <point x="245" y="405" type="line"/>
      <point x="178" y="405" type="line"/>
    </contour>
    <contour>
      <point x="37" y="60" type="line"/>
      <point x="37" y="0" type="line"/>
      <point x="386" y="0" type="line"/>
      <point x="386" y="60" type="line"/>
    </contour>
  </outline>
</glyph>
<glyph name="acute" format="1">
  <advance width="223"/>
  <unicode hex="00B4"/>
  <outline>
    <contour>
      <point x="191" y="446" type="curve"/>
      <point x="178" y="446"/>
      <point x="170" y="444"/>
      <point x="166" y="440" type="curve"/>
      <point x="151" y="424"/>
      <point x="97" y="353"/>
      <point x="97" y="345" type="curve"/>
      <point x="97" y="341"/>
      <point x="107" y="330"/>
      <point x="112" y="330" type="curve"/>
      <point x="124" y="330"/>
      <point x="228" y="401"/>
      <point x="228" y="424" type="curve"/>
      <point x="228" y="432"/>
      <point x="217" y="446"/>
    </contour>
    <contour>
      <point x="112" y="306" type="move" name="_top"/>
    </contour>
    <contour>
      <point x="112" y="440" type="move" name="top"/>
    </contour>
  </outline>
</glyph>
<glyph name="paragraph" format="1">
  <advance width="414"/>
  <unicode hex="00B6"/>
  <outline>
    <contour>
      <point x="116" y="-3" type="curve"/>
      <point x="150" y="-1"/>
      <point x="225" y="4"/>
      <point x="245" y="4" type="curve"/>
      <point x="281" y="4"/>
      <point x="371" y="-2"/>
      <point x="393" y="-3" type="curve"/>
      <point x="395" y="-1"/>
      <point x="396" y="4"/>
      <point x="396" y="17" type="curve"/>
      <point x="396" y="27"/>
      <point x="395" y="29"/>
      <point x="393" y="29" type="curve"/>
      <point x="373" y="29"/>
      <point x="338" y="34"/>
      <point x="335" y="39" type="curve"/>
      <point x="332" y="52"/>
      <point x="331" y="88"/>
      <point x="331" y="123" type="curve"/>
      <point x="331" y="372" type="line" smooth="yes"/>
      <point x="331" y="405"/>
      <point x="331" y="401"/>
      <point x="334" y="409" type="curve"/>
      <point x="336" y="419"/>
      <point x="369" y="430"/>
      <point x="393" y="430" type="curve"/>
      <point x="395" y="430"/>
      <point x="396" y="433"/>
      <point x="396" y="446" type="curve"/>
      <point x="396" y="456"/>
      <point x="395" y="460"/>
      <point x="393" y="463" type="curve"/>
      <point x="355" y="460"/>
      <point x="321" y="457"/>
      <point x="274" y="457" type="curve"/>
      <point x="253" y="457"/>
      <point x="227" y="462"/>
      <point x="185" y="462" type="curve"/>
      <point x="97" y="462"/>
      <point x="27" y="413"/>
      <point x="27" y="312" type="curve"/>
      <point x="27" y="224"/>
      <point x="104" y="161"/>
      <point x="214" y="161" type="curve"/>
      <point x="255" y="161"/>
      <point x="344" y="172"/>
      <point x="390" y="185" type="curve"/>
      <point x="392" y="191"/>
      <point x="393" y="195"/>
      <point x="393" y="203" type="curve"/>
      <point x="393" y="210"/>
      <point x="390" y="219"/>
      <point x="388" y="222" type="curve"/>
      <point x="322" y="207"/>
      <point x="274" y="204"/>
      <point x="241" y="202" type="curve"/>
      <point x="240" y="416" type="line"/>
      <point x="247" y="420"/>
      <point x="253" y="420"/>
      <point x="260" y="420" type="curve"/>
      <point x="267" y="420"/>
      <point x="276" y="417"/>
      <point x="278" y="414" type="curve"/>
      <point x="278" y="127" type="line" smooth="yes"/>
      <point x="278" y="66"/>
      <point x="278" y="53"/>
      <point x="276" y="46" type="curve"/>
      <point x="276" y="42"/>
      <point x="267" y="38"/>
      <point x="260" y="38" type="curve"/>
      <point x="249" y="38"/>
      <point x="243" y="42"/>
      <point x="243" y="52" type="curve"/>
      <point x="241" y="62"/>
      <point x="241" y="75"/>
      <point x="241" y="123" type="curve"/>
      <point x="241" y="192" type="line"/>
      <point x="189" y="192" type="line"/>
      <point x="189" y="115" type="line" smooth="yes"/>
      <point x="189" y="82"/>
      <point x="187" y="57"/>
      <point x="184" y="40" type="curve"/>
      <point x="181" y="35"/>
      <point x="139" y="29"/>
      <point x="118" y="29" type="curve"/>
      <point x="116" y="29"/>
      <point x="115" y="22"/>
      <point x="115" y="15" type="curve"/>
      <point x="115" y="5"/>
      <point x="115" y="-1"/>
    </contour>
  </outline>
</glyph>
<glyph name="cedilla" format="1">
  <advance width="223"/>
  <unicode hex="00B8"/>
  <outline>
    <contour>
      <point x="107" y="-33" type="curve"/>
      <point x="141" y="4" type="line"/>
      <point x="101" y="4" type="line"/>
      <point x="85" y="-18"/>
      <point x="56" y="-50"/>
      <point x="48" y="-60" type="curve"/>
      <point x="47" y="-63"/>
      <point x="58" y="-75"/>
      <point x="64" y="-75" type="curve"/>
      <point x="78" y="-70"/>
      <point x="88" y="-68"/>
      <point x="100" y="-68" type="curve"/>
      <point x="125" y="-68"/>
      <point x="136" y="-83"/>
      <point x="136" y="-96" type="curve"/>
      <point x="136" y="-118"/>
      <point x="118" y="-132"/>
      <point x="90" y="-132" type="curve"/>
      <point x="62" y="-132"/>
      <point x="47" y="-114"/>
      <point x="33" y="-114" type="curve"/>
      <point x="24" y="-114"/>
      <point x="13" y="-126"/>
      <point x="13" y="-134" type="curve"/>
      <point x="13" y="-152"/>
      <point x="46" y="-159"/>
      <point x="74" y="-159" type="curve"/>
      <point x="152" y="-159"/>
      <point x="192" y="-125"/>
      <point x="192" y="-80" type="curve"/>
      <point x="192" y="-44"/>
      <point x="164" y="-30"/>
      <point x="137" y="-30" type="curve"/>
      <point x="125" y="-30"/>
      <point x="116" y="-31"/>
    </contour>
    <contour>
      <point x="112" y="0" type="move" name="_bottom"/>
    </contour>
    <contour>
      <point x="112" y="-131" type="move" name="bottom"/>
    </contour>
  </outline>
</glyph>
<glyph name="questiondown" format="1">
  <advance width="253"/>
  <unicode hex="00BF"/>
  <outline>
    <contour>
      <point x="186" y="158" type="curve"/>
      <point x="181" y="158"/>
      <point x="174" y="158"/>
      <point x="174" y="154" type="curve"/>
      <point x="174" y="116"/>
      <point x="172" y="111"/>
      <point x="162" y="111" type="curve"/>
      <point x="153" y="110"/>
      <point x="121" y="101"/>
      <point x="117" y="106" type="curve"/>
      <point x="41" y="86"/>
      <point x="14" y="49"/>
      <point x="14" y="-26" type="curve"/>
      <point x="14" y="-91"/>
      <point x="89" y="-144"/>
      <point x="203" y="-144" type="curve"/>
      <point x="246" y="-144"/>
      <point x="261" y="-131"/>
      <point x="261" y="-96" type="curve"/>
      <point x="261" y="-67"/>
      <point x="229" y="-41"/>
      <point x="195" y="-41" type="curve"/>
      <point x="157" y="-41"/>
      <point x="144" y="-53"/>
      <point x="118" y="-53" type="curve"/>
      <point x="99" y="-53"/>
      <point x="93" y="-52"/>
      <point x="94" y="-27" type="curve"/>
      <point x="96" y="-6"/>
      <point x="113" y="3"/>
      <point x="183" y="38" type="curve"/>
      <point x="209" y="50"/>
      <point x="215" y="60"/>
      <point x="215" y="115" type="curve"/>
      <point x="215" y="141"/>
      <point x="212" y="143"/>
      <point x="209" y="149" type="curve"/>
      <point x="206" y="160"/>
      <point x="191" y="158"/>
    </contour>
    <contour>
      <point x="180" y="309" type="curve"/>
      <point x="146" y="309"/>
      <point x="121" y="280"/>
      <point x="121" y="247" type="curve"/>
      <point x="121" y="216"/>
      <point x="149" y="190"/>
      <point x="182" y="190" type="curve"/>
      <point x="227" y="190"/>
      <point x="244" y="220"/>
      <point x="244" y="248" type="curve"/>
      <point x="244" y="278"/>
      <point x="226" y="309"/>
    </contour>
  </outline>
</glyph>
<glyph name="AE" format="1">
  <advance width="670"/>
  <unicode hex="00C6"/>
  <outline>
    <contour>
      <point x="-38" y="-3" type="curve"/>
      <point x="-25" y="-1"/>
      <point x="49" y="5"/>
      <point x="67" y="5" type="curve"/>
      <point x="83" y="5"/>
      <point x="126" y="0"/>
      <point x="159" y="-3" type="curve"/>
      <point x="162" y="1"/>
      <point x="166" y="19"/>
      <point x="163" y="26" type="curve"/>
      <point x="147" y="26"/>
      <point x="131" y="27"/>
      <point x="116" y="32" type="curve"/>
      <point x="108" y="35"/>
      <point x="105" y="40"/>
      <point x="105" y="46" type="curve"/>
      <point x="105" y="55"/>
      <point x="121" y="74"/>
      <point x="130" y="89" type="curve"/>
      <point x="157" y="130" type="line"/>
      <point x="161" y="130"/>
      <point x="188" y="129"/>
      <point x="227" y="129" type="curve"/>
      <point x="245" y="129"/>
      <point x="266" y="129"/>
      <point x="280" y="130" type="curve"/>
      <point x="280" y="93" type="line"/>
      <point x="280" y="68"/>
      <point x="278" y="51"/>
      <point x="276" y="42" type="curve"/>
      <point x="273" y="36"/>
      <point x="245" y="26"/>
      <point x="234" y="26" type="curve"/>
      <point x="232" y="26"/>
      <point x="231" y="20"/>
      <point x="231" y="9" type="curve"/>
      <point x="231" y="2"/>
      <point x="232" y="-1"/>
      <point x="234" y="-3" type="curve"/>
      <point x="349" y="1" type="line"/>
      <point x="370" y="1"/>
      <point x="411" y="1"/>
      <point x="471" y="0" type="curve"/>
      <point x="532" y="0"/>
      <point x="576" y="0"/>
      <point x="604" y="0" type="curve"/>
      <point x="606" y="11"/>
      <point x="609" y="28"/>
      <point x="644" y="121" type="curve"/>
      <point x="641" y="123"/>
      <point x="633" y="125"/>
      <point x="619" y="125" type="curve"/>
      <point x="613" y="125"/>
      <point x="610" y="123"/>
      <point x="609" y="121" type="curve"/>
      <point x="596" y="97"/>
      <point x="569" y="72"/>
      <point x="551" y="64" type="curve"/>
      <point x="521" y="50"/>
      <point x="495" y="42"/>
      <point x="474" y="42" type="curve"/>
      <point x="466" y="42" type="line" smooth="yes"/>
      <point x="435" y="42"/>
      <point x="418" y="46"/>
      <point x="415" y="55" type="curve"/>
      <point x="413" y="65"/>
      <point x="410" y="78"/>
      <point x="410" y="95" type="curve"/>
      <point x="410" y="201" type="line" smooth="yes"/>
      <point x="410" y="205"/>
      <point x="428" y="207"/>
      <point x="463" y="207" type="curve"/>
      <point x="506" y="207"/>
      <point x="513" y="203"/>
      <point x="522" y="190" type="curve"/>
      <point x="522" y="187"/>
      <point x="527" y="166"/>
      <point x="528" y="164" type="curve"/>
      <point x="530" y="160"/>
      <point x="534" y="158"/>
      <point x="540" y="158" type="curve"/>
      <point x="550" y="158"/>
      <point x="556" y="159"/>
      <point x="558" y="161" type="curve"/>
      <point x="558" y="291" type="line"/>
      <point x="556" y="293"/>
      <point x="549" y="294"/>
      <point x="540" y="294" type="curve"/>
      <point x="533" y="294"/>
      <point x="529" y="293"/>
      <point x="527" y="291" type="curve"/>
      <point x="528" y="298"/>
      <point x="530" y="256"/>
      <point x="527" y="252" type="curve"/>
      <point x="529" y="251"/>
      <point x="508" y="250"/>
      <point x="462" y="250" type="curve"/>
      <point x="442" y="250" type="line" smooth="yes"/>
      <point x="420" y="250"/>
      <point x="410" y="251"/>
      <point x="410" y="254" type="curve"/>
      <point x="410" y="357" type="line" smooth="yes"/>
      <point x="410" y="380"/>
      <point x="411" y="397"/>
      <point x="413" y="408" type="curve"/>
      <point x="414" y="414"/>
      <point x="427" y="417"/>
      <point x="451" y="417" type="curve"/>
      <point x="470" y="417" type="line" smooth="yes"/>
      <point x="498" y="417"/>
      <point x="559" y="376"/>
      <point x="581" y="351" type="curve"/>
      <point x="582" y="348"/>
      <point x="587" y="346"/>
      <point x="591" y="346" type="curve"/>
      <point x="601" y="346"/>
      <point x="608" y="348"/>
      <point x="610" y="350" type="curve"/>
      <point x="597" y="410"/>
      <point x="587" y="466"/>
      <point x="589" y="457" type="curve"/>
      <point x="562" y="457"/>
      <point x="520" y="456"/>
      <point x="465" y="454" type="curve"/>
      <point x="410" y="452"/>
      <point x="371" y="451"/>
      <point x="349" y="451" type="curve"/>
      <point x="315" y="451"/>
      <point x="277" y="454"/>
      <point x="235" y="460" type="curve"/>
      <point x="234" y="459"/>
      <point x="233" y="453"/>
      <point x="233" y="444" type="curve"/>
      <point x="233" y="435"/>
      <point x="234" y="430"/>
      <point x="236" y="430" type="curve"/>
      <point x="247" y="430"/>
      <point x="275" y="419"/>
      <point x="275" y="409" type="curve"/>
      <point x="275" y="405"/>
      <point x="275" y="403"/>
      <point x="273" y="402" type="curve"/>
      <point x="61" y="89" type="line" smooth="yes"/>
      <point x="59" y="85"/>
      <point x="54" y="72"/>
      <point x="36" y="52" type="curve"/>
      <point x="30" y="46"/>
      <point x="-31" y="26"/>
      <point x="-37" y="26" type="curve"/>
      <point x="-36" y="26"/>
      <point x="-40" y="13"/>
      <point x="-40" y="7" type="curve"/>
      <point x="-40" y="0"/>
      <point x="-39" y="-4"/>
    </contour>
    <contour>
      <point x="241" y="176" type="curve"/>
      <point x="218" y="176"/>
      <point x="198" y="176"/>
      <point x="192" y="178" type="curve"/>
      <point x="289" y="323" type="line"/>
      <point x="280" y="332" type="line"/>
      <point x="280" y="178" type="line"/>
      <point x="282" y="177"/>
      <point x="251" y="176"/>
    </contour>
    <contour>
      <point x="344" y="0" type="move" name="bottom"/>
    </contour>
    <contour>
      <point x="344" y="453" type="move" name="top"/>
    </contour>
  </outline>
</glyph>
<glyph name="Icircumflex" format="1">
  <advance width="281"/>
  <unicode hex="00CE"/>
  <outline>
    <contour>
      <point x="23" y="-3" type="curve"/>
      <point x="24" y="-3"/>
      <point x="110" y="4"/>
      <point x="143" y="4" type="curve"/>
      <point x="166" y="4"/>
      <point x="238" y="-2"/>
      <point x="258" y="-3" type="curve"/>
      <point x="259" y="0"/>
      <point x="260" y="4"/>
      <point x="260" y="11" type="curve"/>
      <point x="260" y="21"/>
      <point x="259" y="26"/>
      <point x="257" y="26" type="curve"/>
      <point x="248" y="26"/>
      <point x="214" y="39"/>
      <point x="211" y="45" type="curve"/>
      <point x="206" y="69"/>
      <point x="206" y="89"/>
      <point x="206" y="104" type="curve"/>
      <point x="206" y="371" type="line" smooth="yes"/>
      <point x="206" y="376"/>
      <point x="208" y="401"/>
      <point x="210" y="409" type="curve"/>
      <point x="211" y="415"/>
      <point x="251" y="426"/>
      <point x="259" y="426" type="curve"/>
      <point x="261" y="426"/>
      <point x="262" y="431"/>
      <point x="262" y="442" type="curve"/>
      <point x="262" y="446"/>
      <point x="261" y="450"/>
      <point x="259" y="455" type="curve"/>
      <point x="189" y="452"/>
      <point x="144" y="451"/>
      <point x="143" y="451" type="curve"/>
      <point x="96" y="451"/>
      <point x="55" y="453"/>
      <point x="23" y="455" type="curve"/>
      <point x="24" y="456"/>
      <point x="23" y="450"/>
      <point x="23" y="440" type="curve"/>
      <point x="23" y="431"/>
      <point x="24" y="426"/>
      <point x="26" y="426" type="curve"/>
      <point x="36" y="426"/>
      <point x="63" y="415"/>
      <point x="70" y="407" type="curve"/>
      <point x="73" y="405"/>
      <point x="76" y="389"/>
      <point x="76" y="359" type="curve"/>
      <point x="76" y="96" type="line" smooth="yes"/>
      <point x="76" y="75"/>
      <point x="74" y="58"/>
      <point x="71" y="45" type="curve"/>
      <point x="68" y="38"/>
      <point x="32" y="26"/>
      <point x="22" y="26" type="curve"/>
      <point x="21" y="26"/>
      <point x="20" y="20"/>
      <point x="20" y="8" type="curve"/>
      <point x="20" y="2"/>
      <point x="21" y="-1"/>
    </contour>
    <contour>
      <point x="236" y="477" type="curve"/>
      <point x="242" y="477"/>
      <point x="256" y="483"/>
      <point x="244" y="502" type="curve"/>
      <point x="244" y="502"/>
      <point x="198" y="531"/>
      <point x="189" y="539" type="curve"/>
      <point x="181" y="546"/>
      <point x="168" y="557"/>
      <point x="151" y="573" type="curve"/>
      <point x="149" y="577"/>
      <point x="145" y="579"/>
      <point x="142" y="579" type="curve"/>
      <point x="140" y="579"/>
      <point x="137" y="577"/>
      <point x="134" y="573" type="curve"/>
      <point x="125" y="560"/>
      <point x="111" y="551"/>
      <point x="96" y="541" type="curve"/>
      <point x="87" y="535"/>
      <point x="76" y="527"/>
      <point x="63" y="519" type="curve"/>
      <point x="50" y="510"/>
      <point x="43" y="504"/>
      <point x="41" y="503" type="curve"/>
      <point x="29" y="483"/>
      <point x="43" y="477"/>
      <point x="50" y="477" type="curve"/>
      <point x="60" y="477"/>
      <point x="112" y="496"/>
      <point x="142" y="506" type="curve"/>
      <point x="173" y="496"/>
      <point x="226" y="477"/>
    </contour>
    <contour>
      <point x="142" y="0" type="move" name="bottom"/>
    </contour>
    <contour>
      <point x="228" y="7" type="move" name="ogonek"/>
    </contour>
    <contour>
      <point x="143" y="587" type="move" name="top"/>
    </contour>
    <contour>
      <point x="22" y="453" type="move" name="topleft"/>
    </contour>
  </outline>
</glyph>
<glyph name="Ograve" format="1">
  <advance width="541"/>
  <unicode hex="00D2"/>
  <outline>
    <contour>
      <point x="157" y="550" type="curve"/>
      <point x="157" y="534"/>
      <point x="259" y="477"/>
      <point x="273" y="477" type="curve"/>
      <point x="276" y="477"/>
      <point x="288" y="488"/>
      <point x="288" y="492" type="curve"/>
      <point x="288" y="500"/>
      <point x="232" y="552"/>
      <point x="218" y="566" type="curve"/>
      <point x="214" y="570"/>
      <point x="205" y="572"/>
      <point x="193" y="572" type="curve"/>
      <point x="167" y="572"/>
      <point x="157" y="558"/>
    </contour>
    <contour>
      <point x="272" y="-7" type="curve"/>
      <point x="402" y="-7"/>
      <point x="511" y="94"/>
      <point x="511" y="226" type="curve"/>
      <point x="511" y="355"/>
      <point x="404" y="460"/>
      <point x="273" y="460" type="curve"/>
      <point x="138" y="460"/>
      <point x="31" y="355"/>
      <point x="31" y="227" type="curve"/>
      <point x="31" y="95"/>
      <point x="137" y="-7"/>
    </contour>
    <contour>
      <point x="280" y="38" type="curve"/>
      <point x="216" y="38"/>
      <point x="174" y="131"/>
      <point x="174" y="240" type="curve"/>
      <point x="174" y="343"/>
      <point x="208" y="414"/>
      <point x="260" y="414" type="curve"/>
      <point x="325" y="414"/>
      <point x="367" y="321"/>
      <point x="367" y="214" type="curve"/>
      <point x="367" y="111"/>
      <point x="334" y="38"/>
    </contour>
    <contour>
      <point x="273" y="453" type="move" name="_top"/>
    </contour>
    <contour>
      <point x="272" y="0" type="move" name="bottom"/>
    </contour>
    <contour>
      <point x="272" y="226" type="move" name="center"/>
    </contour>
    <contour>
      <point x="473" y="7" type="move" name="ogonek"/>
    </contour>
    <contour>
      <point x="272" y="453" type="move" name="top"/>
    </contour>
    <contour>
      <point x="36" y="453" type="move" name="topleft"/>
    </contour>
    <contour>
      <point x="507" y="453" type="move" name="topright"/>
    </contour>
  </outline>
</glyph>
<glyph name="Otilde" format="1">
  <advance width="541"/>
  <unicode hex="00D5"/>
  <outline>
    <contour>
      <point x="155" y="488" type="curve"/>
      <point x="158" y="488"/>
      <point x="193" y="523"/>
      <point x="202" y="523" type="curve"/>
      <point x="246" y="523"/>
      <point x="287" y="488"/>
      <point x="329" y="488" type="curve"/>
      <point x="368" y="488"/>
      <point x="396" y="529"/>
      <point x="396" y="551" type="curve"/>
      <point x="396" y="561"/>
      <point x="395" y="567"/>
      <point x="393" y="567" type="curve"/>
      <point x="387" y="567"/>
      <point x="354" y="531"/>
      <point x="347" y="531" type="curve"/>
      <point x="304" y="531"/>
      <point x="267" y="568"/>
      <point x="216" y="568" type="curve"/>
      <point x="183" y="568"/>
      <point x="149" y="523"/>
      <point x="149" y="504" type="curve"/>
      <point x="149" y="494"/>
      <point x="151" y="488"/>
    </contour>
    <contour>
      <point x="272" y="-7" type="curve"/>
      <point x="402" y="-7"/>
      <point x="511" y="94"/>
      <point x="511" y="226" type="curve"/>
      <point x="511" y="355"/>
      <point x="404" y="460"/>
      <point x="273" y="460" type="curve"/>
      <point x="138" y="460"/>
      <point x="31" y="355"/>
      <point x="31" y="227" type="curve"/>
      <point x="31" y="95"/>
      <point x="137" y="-7"/>
    </contour>
    <contour>
      <point x="280" y="38" type="curve"/>
      <point x="216" y="38"/>
      <point x="174" y="131"/>
      <point x="174" y="240" type="curve"/>
      <point x="174" y="343"/>
      <point x="208" y="414"/>
      <point x="260" y="414" type="curve"/>
      <point x="325" y="414"/>
      <point x="367" y="321"/>
      <point x="367" y="214" type="curve"/>
      <point x="367" y="111"/>
      <point x="334" y="38"/>
    </contour>
    <contour>
      <point x="273" y="453" type="move" name="_top"/>
    </contour>
    <contour>
      <point x="272" y="0" type="move" name="bottom"/>
    </contour>
    <contour>
      <point x="272" y="226" type="move" name="center"/>
    </contour>
    <contour>
      <point x="473" y="7" type="move" name="ogonek"/>
    </contour>
    <contour>
      <point x="272" y="453" type="move" name="top"/>
    </contour>
    <contour>
      <point x="36" y="453" type="move" name="topleft"/>
    </contour>
    <contour>
      <point x="507" y="453" type="move" name="topright"/>
    </contour>
  </outline>
</glyph>
<glyph name="multiply" format="1">
  <advance width="358"/>
  <unicode hex="00D7"/>
  <outline>
    <contour>
      <point x="321" y="81" type="line"/>
      <point x="84" y="300" type="line"/>
      <point x="37" y="257" type="line"/>
      <point x="274" y="38" type="line"/>
    </contour>
    <contour>
      <point x="321" y="257" type="line"/>
      <point x="274" y="300" type="line"/>
      <point x="37" y="81" type="line"/>
      <point x="84" y="38" type="line"/>
    </contour>
  </outline>
</glyph>
<glyph name="Oslash" format="1">
  <advance width="541"/>
  <unicode hex="00D8"/>
  <outline>
    <contour>
      <point x="385" y="469" type="curve"/>
      <point x="124" y="0" type="line"/>
      <point x="125" y="-3"/>
      <point x="129" y="-5"/>
      <point x="157" y="-15" type="curve"/>
      <point x="417" y="455" type="line"/>
      <point x="417" y="457"/>
      <point x="413" y="459"/>
    </contour>
    <contour>
      <point x="272" y="-7" type="curve"/>
      <point x="402" y="-7"/>
      <point x="511" y="94"/>
      <point x="511" y="226" type="curve"/>
      <point x="511" y="355"/>
      <point x="404" y="460"/>
      <point x="273" y="460" type="curve"/>
      <point x="138" y="460"/>
      <point x="31" y="355"/>
      <point x="31" y="227" type="curve"/>
      <point x="31" y="95"/>
      <point x="137" y="-7"/>
    </contour>
    <contour>
      <point x="280" y="38" type="curve"/>
      <point x="216" y="38"/>
      <point x="174" y="131"/>
      <point x="174" y="240" type="curve"/>
      <point x="174" y="343"/>
      <point x="208" y="414"/>
      <point x="260" y="414" type="curve"/>
      <point x="325" y="414"/>
      <point x="367" y="321"/>
      <point x="367" y="214" type="curve"/>
      <point x="367" y="111"/>
      <point x="334" y="38"/>
    </contour>
    <contour>
      <point x="271" y="0" type="move" name="bottom"/>
    </contour>
    <contour>
      <point x="271" y="453" type="move" name="top"/>
    </contour>
  </outline>
</glyph>
<glyph name="Thorn" format="1">
  <advance width="451"/>
  <unicode hex="00DE"/>
  <outline>
    <contour>
      <point x="24" y="-3" type="curve"/>
      <point x="65" y="-2"/>
      <point x="104" y="1"/>
      <point x="145" y="1" type="curve"/>
      <point x="162" y="1"/>
      <point x="204" y="0"/>
      <point x="270" y="-3" type="curve"/>
      <point x="270" y="0"/>
      <point x="271" y="4"/>
      <point x="271" y="11" type="curve"/>
      <point x="271" y="21"/>
      <point x="270" y="26"/>
      <point x="268" y="26" type="curve"/>
      <point x="242" y="26"/>
      <point x="212" y="34"/>
      <point x="211" y="42" type="curve"/>
      <point x="207" y="60"/>
      <point x="206" y="78"/>
      <point x="206" y="97" type="curve"/>
      <point x="206" y="251" type="line" smooth="yes"/>
      <point x="206" y="297"/>
      <point x="210" y="313"/>
      <point x="218" y="314" type="curve"/>
      <point x="217" y="317"/>
      <point x="229" y="319"/>
      <point x="228" y="319" type="curve"/>
      <point x="270" y="319"/>
      <point x="289" y="291"/>
      <point x="289" y="233" type="curve"/>
      <point x="289" y="173"/>
      <point x="281" y="141"/>
      <point x="245" y="141" type="curve"/>
      <point x="231" y="141"/>
      <point x="224" y="144"/>
      <point x="221" y="146" type="curve"/>
      <point x="219" y="144"/>
      <point x="219" y="138"/>
      <point x="219" y="135" type="curve"/>
      <point x="219" y="127"/>
      <point x="221" y="122"/>
      <point x="225" y="119" type="curve"/>
      <point x="235" y="112"/>
      <point x="259" y="102"/>
      <point x="274" y="102" type="curve"/>
      <point x="358" y="102"/>
      <point x="431" y="151"/>
      <point x="431" y="227" type="curve"/>
      <point x="431" y="325"/>
      <point x="341" y="365"/>
      <point x="248" y="365" type="curve"/>
      <point x="230" y="365"/>
      <point x="205" y="362"/>
      <point x="175" y="358" type="curve"/>
      <point x="205" y="326" type="line"/>
      <point x="205" y="371" type="line" smooth="yes"/>
      <point x="205" y="376"/>
      <point x="207" y="401"/>
      <point x="209" y="409" type="curve"/>
      <point x="210" y="415"/>
      <point x="249" y="426"/>
      <point x="258" y="426" type="curve"/>
      <point x="260" y="426"/>
      <point x="261" y="431"/>
      <point x="261" y="442" type="curve"/>
      <point x="261" y="446"/>
      <point x="260" y="450"/>
      <point x="258" y="455" type="curve"/>
      <point x="187" y="452"/>
      <point x="143" y="451"/>
      <point x="142" y="451" type="curve"/>
      <point x="96" y="451"/>
      <point x="55" y="453"/>
      <point x="23" y="455" type="curve"/>
      <point x="24" y="456"/>
      <point x="23" y="450"/>
      <point x="23" y="440" type="curve"/>
      <point x="23" y="431"/>
      <point x="24" y="426"/>
      <point x="26" y="426" type="curve"/>
      <point x="36" y="426"/>
      <point x="63" y="415"/>
      <point x="70" y="407" type="curve"/>
      <point x="73" y="405"/>
      <point x="76" y="389"/>
      <point x="76" y="359" type="curve"/>
      <point x="76" y="98" type="line" smooth="yes"/>
      <point x="76" y="74"/>
      <point x="74" y="54"/>
      <point x="72" y="41" type="curve"/>
      <point x="71" y="35"/>
      <point x="38" y="25"/>
      <point x="24" y="25" type="curve"/>
      <point x="22" y="25"/>
      <point x="21" y="19"/>
      <point x="21" y="8" type="curve"/>
      <point x="21" y="2"/>
      <point x="22" y="-1"/>
    </contour>
  </outline>
</glyph>
<glyph name="germandbls" format="1">
  <advance width="464"/>
  <unicode hex="00DF"/>
  <outline>
    <contour>
      <point x="323" y="-3" type="curve"/>
      <point x="381" y="-3"/>
      <point x="457" y="44"/>
      <point x="457" y="102" type="curve"/>
      <point x="457" y="175"/>
      <point x="336" y="226"/>
      <point x="336" y="262" type="curve"/>
      <point x="336" y="284"/>
      <point x="339" y="297"/>
      <point x="373" y="322" type="curve"/>
      <point x="384" y="331"/>
      <point x="409" y="342"/>
      <point x="409" y="391" type="curve"/>
      <point x="409" y="440"/>
      <point x="333" y="480"/>
      <point x="257" y="480" type="curve"/>
      <point x="155" y="480"/>
      <point x="60" y="411"/>
      <point x="60" y="304" type="curve"/>
      <point x="60" y="298" type="line"/>
      <point x="26" y="298" type="line" smooth="yes"/>
      <point x="22" y="298"/>
      <point x="15" y="267"/>
      <point x="15" y="258" type="curve"/>
      <point x="15" y="255"/>
      <point x="16" y="254"/>
      <point x="17" y="254" type="curve"/>
      <point x="60" y="254" type="line"/>
      <point x="60" y="92" type="line"/>
      <point x="60" y="71"/>
      <point x="59" y="63"/>
      <point x="55" y="45" type="curve"/>
      <point x="54" y="39"/>
      <point x="16" y="26"/>
      <point x="5" y="26" type="curve"/>
      <point x="3" y="26"/>
      <point x="2" y="19"/>
      <point x="2" y="14" type="curve"/>
      <point x="2" y="7"/>
      <point x="4" y="-2"/>
      <point x="5" y="-3" type="curve"/>
      <point x="1" y="-3"/>
      <point x="92" y="4"/>
      <point x="122" y="4" type="curve"/>
      <point x="150" y="4"/>
      <point x="227" y="-3"/>
      <point x="224" y="-3" type="curve"/>
      <point x="225" y="-2"/>
      <point x="226" y="3"/>
      <point x="226" y="8" type="curve"/>
      <point x="226" y="16"/>
      <point x="224" y="26"/>
      <point x="223" y="26" type="curve"/>
      <point x="214" y="26"/>
      <point x="189" y="39"/>
      <point x="188" y="45" type="curve"/>
      <point x="184" y="65"/>
      <point x="183" y="78"/>
      <point x="183" y="97" type="curve"/>
      <point x="183" y="322" type="line" smooth="yes"/>
      <point x="183" y="423"/>
      <point x="215" y="434"/>
      <point x="249" y="434" type="curve"/>
      <point x="285" y="434"/>
      <point x="298" y="418"/>
      <point x="298" y="378" type="curve"/>
      <point x="298" y="346"/>
      <point x="289" y="328"/>
      <point x="279" y="316" type="curve"/>
      <point x="251" y="286"/>
      <point x="224" y="263"/>
      <point x="224" y="222" type="curve"/>
      <point x="224" y="139"/>
      <point x="345" y="124"/>
      <point x="345" y="61" type="curve"/>
      <point x="345" y="52"/>
      <point x="339" y="41"/>
      <point x="336" y="41" type="curve"/>
      <point x="303" y="41"/>
      <point x="317" y="96"/>
      <point x="266" y="96" type="curve"/>
      <point x="236" y="96"/>
      <point x="217" y="81"/>
      <point x="217" y="57" type="curve"/>
      <point x="218" y="23"/>
      <point x="255" y="-3"/>
    </contour>
  </outline>
</glyph>
<glyph name="ccedilla" format="1">
  <advance width="362"/>
  <unicode hex="00E7"/>
  <outline>
    <contour>
      <point x="207" y="312" type="curve"/>
      <point x="103" y="312"/>
      <point x="13" y="248"/>
      <point x="13" y="152" type="curve"/>
      <point x="13" y="61"/>
      <point x="90" y="-5"/>
      <point x="187" y="-5" type="curve"/>
      <point x="262" y="-5"/>
      <point x="316" y="31"/>
      <point x="334" y="72" type="curve"/>
      <point x="335" y="75"/>
      <point x="336" y="79"/>
      <point x="336" y="88" type="curve"/>
      <point x="336" y="94"/>
      <point x="332" y="98"/>
      <point x="328" y="103" type="curve"/>
      <point x="301" y="76"/>
      <point x="275" y="69"/>
      <point x="241" y="69" type="curve"/>
      <point x="187" y="69"/>
      <point x="147" y="102"/>
      <point x="147" y="184" type="curve"/>
      <point x="147" y="227"/>
      <point x="163" y="267"/>
      <point x="200" y="267" type="curve"/>
      <point x="219" y="267"/>
      <point x="228" y="260"/>
      <point x="233" y="241" type="curve"/>
      <point x="242" y="213"/>
      <point x="262" y="198"/>
      <point x="288" y="198" type="curve"/>
      <point x="317" y="198"/>
      <point x="340" y="219"/>
      <point x="340" y="244" type="curve"/>
      <point x="340" y="278"/>
      <point x="297" y="312"/>
    </contour>
    <contour>
      <point x="180" y="-33" type="curve"/>
      <point x="214" y="4" type="line"/>
      <point x="174" y="4" type="line"/>
      <point x="158" y="-18"/>
      <point x="129" y="-50"/>
      <point x="121" y="-60" type="curve"/>
      <point x="120" y="-63"/>
      <point x="131" y="-75"/>
      <point x="137" y="-75" type="curve"/>
      <point x="151" y="-70"/>
      <point x="161" y="-68"/>
      <point x="173" y="-68" type="curve"/>
      <point x="198" y="-68"/>
      <point x="209" y="-83"/>
      <point x="209" y="-96" type="curve"/>
      <point x="209" y="-118"/>
      <point x="191" y="-132"/>
      <point x="163" y="-132" type="curve"/>
      <point x="135" y="-132"/>
      <point x="120" y="-114"/>
      <point x="106" y="-114" type="curve"/>
      <point x="97" y="-114"/>
      <point x="86" y="-126"/>
      <point x="86" y="-134" type="curve"/>
      <point x="86" y="-152"/>
      <point x="119" y="-159"/>
      <point x="147" y="-159" type="curve"/>
      <point x="225" y="-159"/>
      <point x="265" y="-125"/>
      <point x="265" y="-80" type="curve"/>
      <point x="265" y="-44"/>
      <point x="237" y="-30"/>
      <point x="210" y="-30" type="curve"/>
      <point x="198" y="-30"/>
      <point x="189" y="-31"/>
    </contour>
    <contour>
      <point x="185" y="-131" type="move" name="bottom"/>
    </contour>
    <contour>
      <point x="185" y="306" type="move" name="top"/>
    </contour>
  </outline>
</glyph>
<glyph name="edieresis" format="1">
  <advance width="358"/>
  <unicode hex="00EB"/>
  <outline>
    <contour>
      <point x="112" y="330" type="curve"/>
      <point x="139" y="330"/>
      <point x="159" y="351"/>
      <point x="159" y="374" type="curve"/>
      <point x="159" y="397"/>
      <point x="139" y="418"/>
      <point x="112" y="418" type="curve"/>
      <point x="85" y="418"/>
      <point x="65" y="397"/>
      <point x="65" y="374" type="curve"/>
      <point x="65" y="351"/>
      <point x="85" y="330"/>
    </contour>
    <contour>
      <point x="245" y="330" type="curve"/>
      <point x="272" y="330"/>
      <point x="293" y="351"/>
      <point x="293" y="374" type="curve"/>
      <point x="293" y="397"/>
      <point x="272" y="418"/>
      <point x="245" y="418" type="curve"/>
      <point x="218" y="418"/>
      <point x="198" y="397"/>
      <point x="198" y="374" type="curve"/>
      <point x="198" y="351"/>
      <point x="218" y="330"/>
    </contour>
    <contour>
      <point x="213" y="190" type="curve"/>
      <point x="129" y="190" type="line"/>
      <point x="127" y="146" type="line"/>
      <point x="316" y="146" type="line" smooth="yes"/>
      <point x="338" y="146"/>
      <point x="346" y="153"/>
      <point x="346" y="177" type="curve"/>
      <point x="346" y="251"/>
      <point x="279" y="312"/>
      <point x="190" y="312" type="curve"/>
      <point x="105" y="312"/>
      <point x="13" y="256"/>
      <point x="13" y="152" type="curve"/>
      <point x="13" y="61"/>
      <point x="90" y="-5"/>
      <point x="191" y="-5" type="curve"/>
      <point x="273" y="-5"/>
      <point x="326" y="34"/>
      <point x="341" y="72" type="curve"/>
      <point x="343" y="75"/>
      <point x="343" y="80"/>
      <point x="343" y="88" type="curve"/>
      <point x="343" y="94"/>
      <point x="339" y="98"/>
      <point x="335" y="103" type="curve"/>
      <point x="321" y="81"/>
      <point x="288" y="69"/>
      <point x="259" y="69" type="curve"/>
      <point x="179" y="69"/>
      <point x="143" y="104"/>
      <point x="143" y="192" type="curve"/>
      <point x="143" y="241"/>
      <point x="161" y="267"/>
      <point x="189" y="267" type="curve"/>
      <point x="212" y="267"/>
      <point x="226" y="240"/>
      <point x="226" y="207" type="curve"/>
      <point x="226" y="195"/>
      <point x="221" y="190"/>
    </contour>
    <contour>
      <point x="179" y="306" type="move" name="_top"/>
    </contour>
    <contour>
      <point x="179" y="0" type="move" name="bottom"/>
    </contour>
    <contour>
      <point x="304" y="7" type="move" name="ogonek"/>
    </contour>
    <contour>
      <point x="179" y="306" type="move" name="top"/>
    </contour>
  </outline>
</glyph>
<glyph name="iacute" format="1">
  <advance width="244"/>
  <unicode hex="00ED"/>
  <outline>
    <contour>
      <point x="202" y="446" type="curve"/>
      <point x="189" y="446"/>
      <point x="181" y="444"/>
      <point x="177" y="440" type="curve"/>
      <point x="162" y="424"/>
      <point x="108" y="353"/>
      <point x="108" y="345" type="curve"/>
      <point x="108" y="341"/>
      <point x="118" y="330"/>
      <point x="123" y="330" type="curve"/>
      <point x="135" y="330"/>
      <point x="239" y="401"/>
      <point x="239" y="424" type="curve"/>
      <point x="239" y="432"/>
      <point x="228" y="446"/>
    </contour>
    <contour>
      <point x="8" y="-3" type="curve"/>
      <point x="-3" y="-3"/>
      <point x="91" y="4"/>
      <point x="122" y="4" type="curve"/>
      <point x="153" y="4"/>
      <point x="246" y="-3"/>
      <point x="238" y="-3" type="curve"/>
      <point x="239" y="-2"/>
      <point x="240" y="3"/>
      <point x="240" y="8" type="curve"/>
      <point x="240" y="16"/>
      <point x="238" y="26"/>
      <point x="237" y="26" type="curve"/>
      <point x="229" y="26"/>
      <point x="191" y="40"/>
      <point x="190" y="45" type="curve"/>
      <point x="186" y="53"/>
      <point x="185" y="69"/>
      <point x="185" y="109" type="curve"/>
      <point x="185" y="178" type="line" smooth="yes"/>
      <point x="185" y="223"/>
      <point x="194" y="279"/>
      <point x="194" y="298" type="curve"/>
      <point x="194" y="303"/>
      <point x="187" y="309"/>
      <point x="181" y="309" type="curve"/>
      <point x="175" y="309"/>
      <point x="169" y="308"/>
      <point x="164" y="307" type="curve"/>
      <point x="135" y="299"/>
      <point x="48" y="280"/>
      <point x="16" y="278" type="curve"/>
      <point x="13" y="280"/>
      <point x="11" y="268"/>
      <point x="11" y="249" type="curve"/>
      <point x="24" y="246"/>
      <point x="37" y="242"/>
      <point x="47" y="232" type="curve"/>
      <point x="57" y="222"/>
      <point x="62" y="202"/>
      <point x="62" y="171" type="curve"/>
      <point x="62" y="100" type="line" smooth="yes"/>
      <point x="62" y="74"/>
      <point x="61" y="57"/>
      <point x="57" y="45" type="curve"/>
      <point x="54" y="40"/>
      <point x="18" y="26"/>
      <point x="7" y="26" type="curve"/>
      <point x="5" y="26"/>
      <point x="4" y="23"/>
      <point x="4" y="13" type="curve"/>
      <point x="4" y="2"/>
      <point x="5" y="-3"/>
    </contour>
    <contour>
      <point x="123" y="306" type="move" name="_top"/>
    </contour>
    <contour>
      <point x="123" y="0" type="move" name="bottom"/>
    </contour>
    <contour>
      <point x="197" y="7" type="move" name="ogonek"/>
    </contour>
    <contour>
      <point x="123" y="306" type="move" name="top"/>
    </contour>
  </outline>
</glyph>
<glyph name="eth" format="1">
  <advance width="391"/>
  <unicode hex="00F0"/>
  <outline>
    <contour>
      <point x="325" y="450" type="line"/>
      <point x="310" y="476" type="line"/>
      <point x="98" y="357" type="line"/>
      <point x="112" y="331" type="line"/>
    </contour>
    <contour>
      <point x="182" y="312" type="curve"/>
      <point x="87" y="312"/>
      <point x="13" y="240"/>
      <point x="13" y="155" type="curve"/>
      <point x="13" y="67"/>
      <point x="94" y="-4"/>
      <point x="190" y="-4" type="curve"/>
      <point x="317" y="-4"/>
      <point x="379" y="60"/>
      <point x="379" y="187" type="curve"/>
      <point x="379" y="341"/>
      <point x="272" y="451"/>
      <point x="64" y="481" type="curve"/>
      <point x="60" y="476"/>
      <point x="56" y="457"/>
      <point x="56" y="440" type="curve"/>
      <point x="127" y="426"/>
      <point x="186" y="384"/>
      <point x="218" y="310" type="curve"/>
      <point x="209" y="314"/>
      <point x="195" y="312"/>
    </contour>
    <contour>
      <point x="187" y="267" type="curve"/>
      <point x="228" y="267"/>
      <point x="245" y="225"/>
      <point x="248" y="133" type="curve"/>
      <point x="248" y="77"/>
      <point x="240" y="41"/>
      <point x="214" y="41" type="curve"/>
      <point x="181" y="41"/>
      <point x="146" y="106"/>
      <point x="146" y="181" type="curve"/>
      <point x="146" y="235"/>
      <point x="160" y="267"/>
    </contour>
  </outline>
</glyph>
<glyph name="oslash" format="1">
  <advance width="394"/>
  <unicode hex="00F8"/>
  <outline>
    <component base="slashlongcomb" xOffset="86" yOffset="-5"/>
    <component base="o"/>
    <contour>
      <point x="197" y="306" type="move" name="top"/>
    </contour>
  </outline>
</glyph>
<glyph name="thorn" format="1">
  <advance width="437"/>
  <unicode hex="00FE"/>
  <outline>
    <contour>
      <point x="4" y="-146" type="curve"/>
      <point x="11" y="-145"/>
      <point x="79" y="-140"/>
      <point x="119" y="-140" type="curve"/>
      <point x="159" y="-140"/>
      <point x="228" y="-145"/>
      <point x="236" y="-146" type="curve"/>
      <point x="237" y="-145"/>
      <point x="238" y="-140"/>
      <point x="238" y="-134" type="curve"/>
      <point x="238" y="-125"/>
      <point x="236" y="-117"/>
      <point x="235" y="-117" type="curve"/>
      <point x="227" y="-117"/>
      <point x="189" y="-104"/>
      <point x="187" y="-98" type="curve"/>
      <point x="182" y="-87"/>
      <point x="182" y="-66"/>
      <point x="182" y="-34" type="curve"/>
      <point x="182" y="3" type="line"/>
      <point x="198" y="-4"/>
      <point x="234" y="-6"/>
      <point x="239" y="-6" type="curve"/>
      <point x="334" y="-6"/>
      <point x="424" y="70"/>
      <point x="424" y="152" type="curve"/>
      <point x="424" y="251"/>
      <point x="341" y="312"/>
      <point x="258" y="312" type="curve"/>
      <point x="236" y="312"/>
      <point x="215" y="308"/>
      <point x="182" y="285" type="curve"/>
      <point x="182" y="391" type="line" smooth="yes"/>
      <point x="182" y="416"/>
      <point x="185" y="442"/>
      <point x="190" y="466" type="curve"/>
      <point x="189" y="473"/>
      <point x="184" y="479"/>
      <point x="180" y="479" type="curve"/>
      <point x="109" y="464"/>
      <point x="56" y="455"/>
      <point x="9" y="451" type="curve"/>
      <point x="6" y="451"/>
      <point x="5" y="447"/>
      <point x="5" y="437" type="curve"/>
      <point x="5" y="425"/>
      <point x="6" y="419"/>
      <point x="9" y="419" type="curve"/>
      <point x="16" y="419" type="line" smooth="yes"/>
      <point x="39" y="419"/>
      <point x="53" y="416"/>
      <point x="55" y="408" type="curve"/>
      <point x="58" y="394"/>
      <point x="59" y="375"/>
      <point x="59" y="355" type="curve"/>
      <point x="59" y="-43" type="line" smooth="yes"/>
      <point x="59" y="-66"/>
      <point x="58" y="-84"/>
      <point x="54" y="-98" type="curve"/>
      <point x="52" y="-104"/>
      <point x="15" y="-117"/>
      <point x="4" y="-117" type="curve"/>
      <point x="2" y="-117"/>
      <point x="1" y="-122"/>
      <point x="1" y="-131" type="curve"/>
      <point x="1" y="-140"/>
      <point x="2" y="-144"/>
    </contour>
    <contour>
      <point x="231" y="37" type="curve"/>
      <point x="207" y="37"/>
      <point x="182" y="62"/>
      <point x="182" y="90" type="curve"/>
      <point x="182" y="230" type="line" smooth="yes"/>
      <point x="182" y="240"/>
      <point x="187" y="252"/>
      <point x="209" y="252" type="curve"/>
      <point x="254" y="252"/>
      <point x="288" y="196"/>
      <point x="288" y="124" type="curve"/>
      <point x="288" y="56"/>
      <point x="269" y="37"/>
    </contour>
  </outline>
</glyph>
<glyph name="ydieresis" format="1">
  <advance width="401"/>
  <unicode hex="00FF"/>
  <outline>
    <contour>
      <point x="276" y="235" type="curve"/>
      <point x="212" y="120" type="line"/>
      <point x="179" y="70" type="line"/>
      <point x="122" y="-14" type="line" smooth="yes"/>
      <point x="104" y="-40"/>
      <point x="83" y="-48"/>
      <point x="5" y="-62" type="curve"/>
      <point x="-22" y="-67"/>
      <point x="-38" y="-82"/>
      <point x="-38" y="-106" type="curve"/>
      <point x="-38" y="-128"/>
      <point x="-11" y="-146"/>
      <point x="22" y="-146" type="curve"/>
      <point x="88" y="-146"/>
      <point x="144" y="-99"/>
      <point x="206" y="10" type="curve"/>
      <point x="354" y="250" type="line" smooth="yes"/>
      <point x="363" y="265"/>
      <point x="381" y="274"/>
      <point x="417" y="280" type="curve"/>
      <point x="419" y="280"/>
      <point x="420" y="285"/>
      <point x="420" y="296" type="curve"/>
      <point x="420" y="304"/>
      <point x="418" y="307"/>
      <point x="416" y="309" type="curve"/>
      <point x="386" y="306"/>
      <point x="327" y="303"/>
      <point x="320" y="303" type="curve"/>
      <point x="296" y="303"/>
      <point x="244" y="308"/>
      <point x="232" y="309" type="curve"/>
      <point x="233" y="303"/>
      <point x="232" y="297"/>
      <point x="232" y="294" type="curve"/>
      <point x="232" y="284"/>
      <point x="233" y="280"/>
      <point x="235" y="280" type="curve"/>
      <point x="275" y="273"/>
      <point x="282" y="270"/>
      <point x="282" y="259" type="curve"/>
      <point x="282" y="252"/>
      <point x="279" y="240"/>
    </contour>
    <contour>
      <point x="54" y="257" type="curve"/>
      <point x="171" y="14" type="line"/>
      <point x="237" y="132" type="line"/>
      <point x="192" y="238" type="line" smooth="yes"/>
      <point x="189" y="245"/>
      <point x="187" y="251"/>
      <point x="187" y="255" type="curve"/>
      <point x="187" y="268"/>
      <point x="200" y="274"/>
      <point x="244" y="280" type="curve"/>
      <point x="246" y="280"/>
      <point x="246" y="282"/>
      <point x="246" y="291" type="curve"/>
      <point x="246" y="302"/>
      <point x="245" y="307"/>
      <point x="243" y="309" type="curve"/>
      <point x="208" y="306"/>
      <point x="139" y="302"/>
      <point x="124" y="302" type="curve"/>
      <point x="108" y="302"/>
      <point x="60" y="304"/>
      <point x="0" y="309" type="curve"/>
      <point x="-2" y="307"/>
      <point x="-3" y="303"/>
      <point x="-3" y="297" type="curve"/>
      <point x="-3" y="285"/>
      <point x="-2" y="280"/>
      <point x="0" y="280" type="curve"/>
      <point x="19" y="280"/>
      <point x="50" y="266"/>
    </contour>
    <contour>
      <point x="134" y="330" type="curve"/>
      <point x="161" y="330"/>
      <point x="181" y="351"/>
      <point x="181" y="374" type="curve"/>
      <point x="181" y="397"/>
      <point x="161" y="418"/>
      <point x="134" y="418" type="curve"/>
      <point x="107" y="418"/>
      <point x="87" y="397"/>
      <point x="87" y="374" type="curve"/>
      <point x="87" y="351"/>
      <point x="107" y="330"/>
    </contour>
    <contour>
      <point x="267" y="330" type="curve"/>
      <point x="294" y="330"/>
      <point x="315" y="351"/>
      <point x="315" y="374" type="curve"/>
      <point x="315" y="397"/>
      <point x="294" y="418"/>
      <point x="267" y="418" type="curve"/>
      <point x="240" y="418"/>
      <point x="220" y="397"/>
      <point x="220" y="374" type="curve"/>
      <point x="220" y="351"/>
      <point x="240" y="330"/>
    </contour>
    <contour>
      <point x="275" y="0" type="move" name="bottom"/>
    </contour>
    <contour>
      <point x="201" y="440" type="move" name="top"/>
    </contour>
  </outline>
</glyph>
<glyph name="Aogonek" format="1">
  <advance width="543"/>
  <unicode hex="0104"/>
  <outline>
    <contour>
      <point x="447" y="-148" type="curve"/>
      <point x="490" y="-148"/>
      <point x="533" y="-111"/>
      <point x="548" y="-99" type="curve"/>
      <point x="551" y="-95"/>
      <point x="553" y="-89"/>
      <point x="553" y="-82" type="curve"/>
      <point x="553" y="-72"/>
      <point x="551" y="-67"/>
      <point x="549" y="-67" type="curve"/>
      <point x="537" y="-74"/>
      <point x="504" y="-88"/>
      <point x="490" y="-88" type="curve"/>
      <point x="477" y="-88"/>
      <point x="459" y="-82"/>
      <point x="459" y="-68" type="curve"/>
      <point x="459" y="-46"/>
      <point x="479" y="-30"/>
      <point x="551" y="-3" type="curve"/>
      <point x="552" y="-3"/>
      <point x="553" y="4"/>
      <point x="553" y="15" type="curve"/>
      <point x="553" y="22"/>
      <point x="552" y="26"/>
      <point x="550" y="26" type="curve"/>
      <point x="534" y="26"/>
      <point x="498" y="33"/>
      <point x="492" y="48" type="curve"/>
      <point x="484" y="68"/>
      <point x="474" y="88"/>
      <point x="465" y="109" type="curve"/>
      <point x="308" y="455" type="line" smooth="yes"/>
      <point x="305" y="461"/>
      <point x="294" y="462"/>
      <point x="286" y="462" type="curve"/>
      <point x="274" y="462"/>
      <point x="262" y="456"/>
      <point x="257" y="445" type="curve"/>
      <point x="72" y="76" type="line" smooth="yes"/>
      <point x="72" y="79"/>
      <point x="64" y="63"/>
      <point x="58" y="53" type="curve"/>
      <point x="52" y="41"/>
      <point x="6" y="25"/>
      <point x="-6" y="25" type="curve"/>
      <point x="-6" y="25"/>
      <point x="-7" y="19"/>
      <point x="-7" y="7" type="curve"/>
      <point x="-7" y="2"/>
      <point x="-6" y="-1"/>
      <point x="-4" y="-3" type="curve"/>
      <point x="60" y="2"/>
      <point x="76" y="4"/>
      <point x="89" y="4" type="curve"/>
      <point x="93" y="4"/>
      <point x="109" y="3"/>
      <point x="180" y="-3" type="curve"/>
      <point x="180" y="0"/>
      <point x="181" y="6"/>
      <point x="181" y="15" type="curve"/>
      <point x="181" y="23"/>
      <point x="181" y="26"/>
      <point x="179" y="26" type="curve"/>
      <point x="152" y="26"/>
      <point x="149" y="28"/>
      <point x="134" y="36" type="curve"/>
      <point x="126" y="40"/>
      <point x="122" y="48"/>
      <point x="122" y="53" type="curve"/>
      <point x="122" y="64"/>
      <point x="130" y="75"/>
      <point x="138" y="90" type="curve"/>
      <point x="160" y="131" type="line"/>
      <point x="164" y="131"/>
      <point x="189" y="130"/>
      <point x="226" y="130" type="curve"/>
      <point x="277" y="130"/>
      <point x="308" y="131"/>
      <point x="312" y="131" type="curve"/>
      <point x="328" y="101" type="line" smooth="yes"/>
      <point x="348" y="57"/>
      <point x="353" y="53"/>
      <point x="353" y="48" type="curve"/>
      <point x="353" y="41"/>
      <point x="346" y="36"/>
      <point x="337" y="33" type="curve"/>
      <point x="320" y="28"/>
      <point x="311" y="26"/>
      <point x="296" y="26" type="curve"/>
      <point x="294" y="26"/>
      <point x="294" y="23"/>
      <point x="294" y="14" type="curve"/>
      <point x="294" y="4"/>
      <point x="294" y="-1"/>
      <point x="297" y="-3" type="curve"/>
      <point x="337" y="0"/>
      <point x="379" y="4"/>
      <point x="429" y="4" type="curve"/>
      <point x="446" y="4"/>
      <point x="471" y="3"/>
      <point x="495" y="1" type="curve"/>
      <point x="425" y="-18"/>
      <point x="382" y="-59"/>
      <point x="382" y="-96" type="curve"/>
      <point x="382" y="-132"/>
      <point x="423" y="-148"/>
    </contour>
    <contour>
      <point x="243" y="177" type="curve"/>
      <point x="214" y="177"/>
      <point x="191" y="178"/>
      <point x="184" y="180" type="curve"/>
      <point x="254" y="313" type="line"/>
      <point x="226" y="315" type="line"/>
      <point x="290" y="178" type="line"/>
      <point x="279" y="178"/>
      <point x="263" y="177"/>
    </contour>
    <contour>
      <point x="266" y="0" type="move" name="bottom"/>
    </contour>
    <contour>
      <point x="266" y="453" type="move" name="top"/>
    </contour>
  </outline>
</glyph>
<glyph name="ccircumflex" format="1">
  <advance width="362"/>
  <unicode hex="0109"/>
  <outline>
    <contour>
      <point x="207" y="312" type="curve"/>
      <point x="103" y="312"/>
      <point x="13" y="248"/>
      <point x="13" y="152" type="curve"/>
      <point x="13" y="61"/>
      <point x="90" y="-5"/>
      <point x="187" y="-5" type="curve"/>
      <point x="262" y="-5"/>
      <point x="316" y="31"/>
      <point x="334" y="72" type="curve"/>
      <point x="335" y="75"/>
      <point x="336" y="79"/>
      <point x="336" y="88" type="curve"/>
      <point x="336" y="94"/>
      <point x="332" y="98"/>
      <point x="328" y="103" type="curve"/>
      <point x="301" y="76"/>
      <point x="275" y="69"/>
      <point x="241" y="69" type="curve"/>
      <point x="187" y="69"/>
      <point x="147" y="102"/>
      <point x="147" y="184" type="curve"/>
      <point x="147" y="227"/>
      <point x="163" y="267"/>
      <point x="200" y="267" type="curve"/>
      <point x="219" y="267"/>
      <point x="228" y="260"/>
      <point x="233" y="241" type="curve"/>
      <point x="242" y="213"/>
      <point x="262" y="198"/>
      <point x="288" y="198" type="curve"/>
      <point x="317" y="198"/>
      <point x="340" y="219"/>
      <point x="340" y="244" type="curve"/>
      <point x="340" y="278"/>
      <point x="297" y="312"/>
    </contour>
    <contour>
      <point x="278" y="330" type="curve"/>
      <point x="284" y="330"/>
      <point x="298" y="337"/>
      <point x="286" y="361" type="curve"/>
      <point x="286" y="361"/>
      <point x="240" y="396"/>
      <point x="231" y="405" type="curve"/>
      <point x="223" y="413"/>
      <point x="210" y="426"/>
      <point x="193" y="445" type="curve"/>
      <point x="191" y="450"/>
      <point x="187" y="452"/>
      <point x="184" y="452" type="curve"/>
      <point x="182" y="452"/>
      <point x="179" y="450"/>
      <point x="176" y="445" type="curve"/>
      <point x="167" y="431"/>
      <point x="153" y="420"/>
      <point x="138" y="406" type="curve"/>
      <point x="129" y="399"/>
      <point x="118" y="390"/>
      <point x="105" y="380" type="curve"/>
      <point x="92" y="370"/>
      <point x="85" y="363"/>
      <point x="83" y="362" type="curve"/>
      <point x="71" y="337"/>
      <point x="85" y="330"/>
      <point x="92" y="330" type="curve"/>
      <point x="102" y="330"/>
      <point x="154" y="361"/>
      <point x="184" y="373" type="curve"/>
      <point x="215" y="361"/>
      <point x="268" y="330"/>
    </contour>
    <contour>
      <point x="185" y="0" type="move" name="bottom"/>
    </contour>
    <contour>
      <point x="185" y="440" type="move" name="top"/>
    </contour>
  </outline>
</glyph>
<glyph name="cdotaccent" format="1">
  <advance width="362"/>
  <unicode hex="010B"/>
  <outline>
    <contour>
      <point x="185" y="330" type="curve"/>
      <point x="217" y="330"/>
      <point x="242" y="356"/>
      <point x="242" y="383" type="curve"/>
      <point x="242" y="410"/>
      <point x="217" y="436"/>
      <point x="185" y="436" type="curve"/>
      <point x="152" y="436"/>
      <point x="127" y="410"/>
      <point x="127" y="383" type="curve"/>
      <point x="127" y="356"/>
      <point x="152" y="330"/>
    </contour>
    <contour>
      <point x="207" y="312" type="curve"/>
      <point x="103" y="312"/>
      <point x="13" y="248"/>
      <point x="13" y="152" type="curve"/>
      <point x="13" y="61"/>
      <point x="90" y="-5"/>
      <point x="187" y="-5" type="curve"/>
      <point x="262" y="-5"/>
      <point x="316" y="31"/>
      <point x="334" y="72" type="curve"/>
      <point x="335" y="75"/>
      <point x="336" y="79"/>
      <point x="336" y="88" type="curve"/>
      <point x="336" y="94"/>
      <point x="332" y="98"/>
      <point x="328" y="103" type="curve"/>
      <point x="301" y="76"/>
      <point x="275" y="69"/>
      <point x="241" y="69" type="curve"/>
      <point x="187" y="69"/>
      <point x="147" y="102"/>
      <point x="147" y="184" type="curve"/>
      <point x="147" y="227"/>
      <point x="163" y="267"/>
      <point x="200" y="267" type="curve"/>
      <point x="219" y="267"/>
      <point x="228" y="260"/>
      <point x="233" y="241" type="curve"/>
      <point x="242" y="213"/>
      <point x="262" y="198"/>
      <point x="288" y="198" type="curve"/>
      <point x="317" y="198"/>
      <point x="340" y="219"/>
      <point x="340" y="244" type="curve"/>
      <point x="340" y="278"/>
      <point x="297" y="312"/>
    </contour>
    <contour>
      <point x="185" y="306" type="move" name="_top"/>
    </contour>
    <contour>
      <point x="185" y="0" type="move" name="bottom"/>
    </contour>
    <contour>
      <point x="185" y="306" type="move" name="top"/>
    </contour>
  </outline>
</glyph>
<glyph name="ccaron" format="1">
  <advance width="362"/>
  <unicode hex="010D"/>
  <outline>
    <contour>
      <point x="207" y="312" type="curve"/>
      <point x="103" y="312"/>
      <point x="13" y="248"/>
      <point x="13" y="152" type="curve"/>
      <point x="13" y="61"/>
      <point x="90" y="-5"/>
      <point x="187" y="-5" type="curve"/>
      <point x="262" y="-5"/>
      <point x="316" y="31"/>
      <point x="334" y="72" type="curve"/>
      <point x="335" y="75"/>
      <point x="336" y="79"/>
      <point x="336" y="88" type="curve"/>
      <point x="336" y="94"/>
      <point x="332" y="98"/>
      <point x="328" y="103" type="curve"/>
      <point x="301" y="76"/>
      <point x="275" y="69"/>
      <point x="241" y="69" type="curve"/>
      <point x="187" y="69"/>
      <point x="147" y="102"/>
      <point x="147" y="184" type="curve"/>
      <point x="147" y="227"/>
      <point x="163" y="267"/>
      <point x="200" y="267" type="curve"/>
      <point x="219" y="267"/>
      <point x="228" y="260"/>
      <point x="233" y="241" type="curve"/>
      <point x="242" y="213"/>
      <point x="262" y="198"/>
      <point x="288" y="198" type="curve"/>
      <point x="317" y="198"/>
      <point x="340" y="219"/>
      <point x="340" y="244" type="curve"/>
      <point x="340" y="278"/>
      <point x="297" y="312"/>
    </contour>
    <contour>
      <point x="91" y="452" type="curve"/>
      <point x="85" y="452"/>
      <point x="71" y="445"/>
      <point x="83" y="421" type="curve"/>
      <point x="83" y="421"/>
      <point x="130" y="387"/>
      <point x="139" y="377" type="curve"/>
      <point x="146" y="369"/>
      <point x="159" y="356"/>
      <point x="176" y="337" type="curve"/>
      <point x="178" y="332"/>
      <point x="182" y="330"/>
      <point x="185" y="330" type="curve"/>
      <point x="187" y="330"/>
      <point x="190" y="332"/>
      <point x="193" y="337" type="curve"/>
      <point x="202" y="352"/>
      <point x="216" y="362"/>
      <point x="231" y="376" type="curve"/>
      <point x="240" y="383"/>
      <point x="251" y="393"/>
      <point x="264" y="402" type="curve"/>
      <point x="277" y="413"/>
      <point x="285" y="419"/>
      <point x="286" y="420" type="curve"/>
      <point x="298" y="445"/>
      <point x="284" y="452"/>
      <point x="277" y="452" type="curve"/>
      <point x="267" y="452"/>
      <point x="216" y="421"/>
      <point x="185" y="409" type="curve"/>
      <point x="154" y="421"/>
      <point x="101" y="452"/>
    </contour>
    <contour>
      <point x="185" y="0" type="move" name="bottom"/>
    </contour>
    <contour>
      <point x="185" y="440" type="move" name="top"/>
    </contour>
  </outline>
</glyph>
<glyph name="ebreve" format="1">
  <advance width="358"/>
  <unicode hex="0115"/>
  <outline>
    <contour>
      <point x="213" y="190" type="curve"/>
      <point x="129" y="190" type="line"/>
      <point x="127" y="146" type="line"/>
      <point x="316" y="146" type="line" smooth="yes"/>
      <point x="338" y="146"/>
      <point x="346" y="153"/>
      <point x="346" y="177" type="curve"/>
      <point x="346" y="251"/>
      <point x="279" y="312"/>
      <point x="190" y="312" type="curve"/>
      <point x="105" y="312"/>
      <point x="13" y="256"/>
      <point x="13" y="152" type="curve"/>
      <point x="13" y="61"/>
      <point x="90" y="-5"/>
      <point x="191" y="-5" type="curve"/>
      <point x="273" y="-5"/>
      <point x="326" y="34"/>
      <point x="341" y="72" type="curve"/>
      <point x="343" y="75"/>
      <point x="343" y="80"/>
      <point x="343" y="88" type="curve"/>
      <point x="343" y="94"/>
      <point x="339" y="98"/>
      <point x="335" y="103" type="curve"/>
      <point x="321" y="81"/>
      <point x="288" y="69"/>
      <point x="259" y="69" type="curve"/>
      <point x="179" y="69"/>
      <point x="143" y="104"/>
      <point x="143" y="192" type="curve"/>
      <point x="143" y="241"/>
      <point x="161" y="267"/>
      <point x="189" y="267" type="curve"/>
      <point x="212" y="267"/>
      <point x="226" y="240"/>
      <point x="226" y="207" type="curve"/>
      <point x="226" y="195"/>
      <point x="221" y="190"/>
    </contour>
    <contour>
      <point x="115" y="420" type="curve"/>
      <point x="115" y="421"/>
      <point x="114" y="422"/>
      <point x="112" y="422" type="curve"/>
      <point x="107" y="422"/>
      <point x="85" y="416"/>
      <point x="85" y="412" type="curve"/>
      <point x="95" y="360"/>
      <point x="130" y="330"/>
      <point x="178" y="330" type="curve"/>
      <point x="228" y="330"/>
      <point x="266" y="365"/>
      <point x="272" y="412" type="curve"/>
      <point x="272" y="416"/>
      <point x="250" y="422"/>
      <point x="244" y="422" type="curve"/>
      <point x="242" y="422"/>
      <point x="241" y="421"/>
      <point x="241" y="420" type="curve"/>
      <point x="231" y="390"/>
      <point x="211" y="379"/>
      <point x="179" y="379" type="curve"/>
      <point x="147" y="379"/>
      <point x="126" y="390"/>
    </contour>
    <contour>
      <point x="179" y="0" type="move" name="bottom"/>
    </contour>
    <contour>
      <point x="304" y="7" type="move" name="ogonek"/>
    </contour>
    <contour>
      <point x="179" y="440" type="move" name="top"/>
    </contour>
  </outline>
</glyph>
<glyph name="eogonek" format="1">
  <advance width="358"/>
  <unicode hex="0119"/>
  <outline>
    <contour>
      <point x="214" y="-148" type="curve"/>
      <point x="261" y="-148"/>
      <point x="292" y="-122"/>
      <point x="319" y="-99" type="curve"/>
      <point x="323" y="-95"/>
      <point x="324" y="-89"/>
      <point x="324" y="-82" type="curve"/>
      <point x="324" y="-72"/>
      <point x="323" y="-67"/>
      <point x="320" y="-67" type="curve"/>
      <point x="299" y="-81"/>
      <point x="276" y="-88"/>
      <point x="261" y="-88" type="curve"/>
      <point x="248" y="-88"/>
      <point x="231" y="-83"/>
      <point x="231" y="-66" type="curve"/>
      <point x="231" y="-12"/>
      <point x="278" y="12"/>
      <point x="301" y="26" type="curve"/>
      <point x="326" y="43"/>
      <point x="337" y="60"/>
      <point x="341" y="72" type="curve"/>
      <point x="343" y="75"/>
      <point x="343" y="80"/>
      <point x="343" y="88" type="curve"/>
      <point x="343" y="94"/>
      <point x="339" y="98"/>
      <point x="335" y="103" type="curve"/>
      <point x="321" y="81"/>
      <point x="288" y="69"/>
      <point x="259" y="69" type="curve"/>
      <point x="179" y="69"/>
      <point x="143" y="104"/>
      <point x="143" y="192" type="curve"/>
      <point x="143" y="241"/>
      <point x="161" y="267"/>
      <point x="189" y="267" type="curve"/>
      <point x="212" y="267"/>
      <point x="226" y="240"/>
      <point x="226" y="207" type="curve"/>
      <point x="226" y="195"/>
      <point x="221" y="190"/>
      <point x="213" y="190" type="curve"/>
      <point x="129" y="190" type="line"/>
      <point x="127" y="146" type="line"/>
      <point x="316" y="146" type="line" smooth="yes"/>
      <point x="338" y="146"/>
      <point x="346" y="153"/>
      <point x="346" y="177" type="curve"/>
      <point x="346" y="251"/>
      <point x="279" y="312"/>
      <point x="190" y="312" type="curve"/>
      <point x="105" y="312"/>
      <point x="13" y="256"/>
      <point x="13" y="152" type="curve"/>
      <point x="13" y="61"/>
      <point x="90" y="-5"/>
      <point x="191" y="-5" type="curve"/>
      <point x="210" y="-5"/>
      <point x="226" y="-4"/>
      <point x="245" y="1" type="curve"/>
      <point x="245" y="6" type="line"/>
      <point x="195" y="-9"/>
      <point x="154" y="-54"/>
      <point x="154" y="-89" type="curve"/>
      <point x="154" y="-130"/>
      <point x="195" y="-148"/>
    </contour>
    <contour>
      <point x="179" y="306" type="move" name="top"/>
    </contour>
  </outline>
</glyph>
<glyph name="ij" format="1">
  <advance width="475"/>
  <unicode hex="0133"/>
  <outline>
    <contour>
      <point x="124" y="383" type="curve"/>
      <point x="161" y="383"/>
      <point x="190" y="408"/>
      <point x="190" y="443" type="curve"/>
      <point x="190" y="479"/>
      <point x="161" y="505"/>
      <point x="124" y="505" type="curve"/>
      <point x="86" y="505"/>
      <point x="57" y="479"/>
      <point x="57" y="443" type="curve"/>
      <point x="57" y="408"/>
      <point x="86" y="383"/>
    </contour>
    <contour>
      <point x="8" y="-3" type="curve"/>
      <point x="-3" y="-3"/>
      <point x="91" y="4"/>
      <point x="122" y="4" type="curve"/>
      <point x="153" y="4"/>
      <point x="246" y="-3"/>
      <point x="238" y="-3" type="curve"/>
      <point x="239" y="-2"/>
      <point x="240" y="3"/>
      <point x="240" y="8" type="curve"/>
      <point x="240" y="16"/>
      <point x="238" y="26"/>
      <point x="237" y="26" type="curve"/>
      <point x="229" y="26"/>
      <point x="191" y="40"/>
      <point x="190" y="45" type="curve"/>
      <point x="186" y="53"/>
      <point x="185" y="69"/>
      <point x="185" y="109" type="curve"/>
      <point x="185" y="178" type="line" smooth="yes"/>
      <point x="185" y="223"/>
      <point x="194" y="279"/>
      <point x="194" y="298" type="curve"/>
      <point x="194" y="303"/>
      <point x="187" y="309"/>
      <point x="181" y="309" type="curve"/>
      <point x="175" y="309"/>
      <point x="169" y="308"/>
      <point x="164" y="307" type="curve"/>
      <point x="135" y="299"/>
      <point x="48" y="280"/>
      <point x="16" y="278" type="curve"/>
      <point x="13" y="280"/>
      <point x="11" y="268"/>
      <point x="11" y="249" type="curve"/>
      <point x="24" y="246"/>
      <point x="37" y="242"/>
      <point x="47" y="232" type="curve"/>
      <point x="57" y="222"/>
      <point x="62" y="202"/>
      <point x="62" y="171" type="curve"/>
      <point x="62" y="100" type="line" smooth="yes"/>
      <point x="62" y="74"/>
      <point x="61" y="57"/>
      <point x="57" y="45" type="curve"/>
      <point x="54" y="40"/>
      <point x="18" y="26"/>
      <point x="7" y="26" type="curve"/>
      <point x="5" y="26"/>
      <point x="4" y="23"/>
      <point x="4" y="13" type="curve"/>
      <point x="4" y="2"/>
      <point x="5" y="-3"/>
    </contour>
    <contour>
      <point x="299" y="171" type="curve"/>
      <point x="299" y="57" type="line" smooth="yes"/>
      <point x="299" y="-69"/>
      <point x="271" y="-106"/>
      <point x="212" y="-128" type="curve"/>
      <point x="212" y="-137"/>
      <point x="219" y="-155"/>
      <point x="227" y="-158" type="curve"/>
      <point x="387" y="-112"/>
      <point x="422" y="-59"/>
      <point x="422" y="81" type="curve"/>
      <point x="422" y="178" type="line" smooth="yes"/>
      <point x="422" y="223"/>
      <point x="430" y="279"/>
      <point x="430" y="298" type="curve"/>
      <point x="430" y="303"/>
      <point x="424" y="309"/>
      <point x="418" y="309" type="curve"/>
      <point x="411" y="309"/>
      <point x="400" y="307"/>
      <point x="401" y="307" type="curve"/>
      <point x="367" y="298"/>
      <point x="284" y="280"/>
      <point x="253" y="278" type="curve"/>
      <point x="250" y="280"/>
      <point x="248" y="268"/>
      <point x="248" y="249" type="curve"/>
      <point x="261" y="246"/>
      <point x="274" y="242"/>
      <point x="284" y="232" type="curve"/>
      <point x="294" y="222"/>
      <point x="299" y="202"/>
    </contour>
    <contour>
      <point x="360" y="383" type="curve"/>
      <point x="397" y="383"/>
      <point x="426" y="408"/>
      <point x="426" y="443" type="curve"/>
      <point x="426" y="479"/>
      <point x="397" y="505"/>
      <point x="360" y="505" type="curve"/>
      <point x="322" y="505"/>
      <point x="293" y="479"/>
      <point x="293" y="443" type="curve"/>
      <point x="293" y="408"/>
      <point x="322" y="383"/>
    </contour>
    <contour>
      <point x="123" y="306" type="move" name="_top"/>
    </contour>
    <contour>
      <point x="197" y="7" type="move" name="ogonek"/>
    </contour>
    <contour>
      <point x="359" y="449" type="move" name="top"/>
    </contour>
  </outline>
</glyph>
<glyph name="Jcircumflex" format="1">
  <advance width="277"/>
  <unicode hex="0134"/>
  <outline>
    <contour>
      <point x="142" y="451" type="curve"/>
      <point x="153" y="451"/>
      <point x="127" y="451"/>
      <point x="22" y="455" type="curve"/>
      <point x="22" y="456"/>
      <point x="21" y="450"/>
      <point x="21" y="440" type="curve"/>
      <point x="21" y="431"/>
      <point x="22" y="426"/>
      <point x="24" y="426" type="curve"/>
      <point x="35" y="426"/>
      <point x="61" y="415"/>
      <point x="68" y="407" type="curve"/>
      <point x="72" y="405"/>
      <point x="74" y="389"/>
      <point x="74" y="359" type="curve"/>
      <point x="74" y="119" type="line" smooth="yes"/>
      <point x="74" y="49"/>
      <point x="75" y="-1"/>
      <point x="73" y="-38" type="curve"/>
      <point x="71" y="-76"/>
      <point x="56" y="-93"/>
      <point x="29" y="-93" type="curve"/>
      <point x="22" y="-93"/>
      <point x="11" y="-85"/>
      <point x="-5" y="-69" type="curve"/>
      <point x="-20" y="-51"/>
      <point x="-32" y="-43"/>
      <point x="-45" y="-43" type="curve"/>
      <point x="-70" y="-43"/>
      <point x="-96" y="-66"/>
      <point x="-96" y="-91" type="curve"/>
      <point x="-96" y="-120"/>
      <point x="-67" y="-146"/>
      <point x="-23" y="-146" type="curve"/>
      <point x="107" y="-146"/>
      <point x="204" y="-58"/>
      <point x="204" y="125" type="curve"/>
      <point x="204" y="354" type="line" smooth="yes"/>
      <point x="204" y="380"/>
      <point x="205" y="398"/>
      <point x="209" y="409" type="curve"/>
      <point x="211" y="415"/>
      <point x="249" y="426"/>
      <point x="258" y="426" type="curve"/>
      <point x="260" y="426"/>
      <point x="261" y="431"/>
      <point x="261" y="442" type="curve"/>
      <point x="261" y="446"/>
      <point x="260" y="450"/>
      <point x="258" y="455" type="curve"/>
      <point x="173" y="452"/>
      <point x="145" y="451"/>
    </contour>
    <contour>
      <point x="234" y="477" type="curve"/>
      <point x="240" y="477"/>
      <point x="254" y="483"/>
      <point x="242" y="502" type="curve"/>
      <point x="242" y="502"/>
      <point x="196" y="531"/>
      <point x="187" y="539" type="curve"/>
      <point x="179" y="546"/>
      <point x="166" y="557"/>
      <point x="149" y="573" type="curve"/>
      <point x="147" y="577"/>
      <point x="143" y="579"/>
      <point x="140" y="579" type="curve"/>
      <point x="138" y="579"/>
      <point x="135" y="577"/>
      <point x="132" y="573" type="curve"/>
      <point x="123" y="560"/>
      <point x="109" y="551"/>
      <point x="94" y="541" type="curve"/>
      <point x="85" y="535"/>
      <point x="74" y="527"/>
      <point x="61" y="519" type="curve"/>
      <point x="48" y="510"/>
      <point x="41" y="504"/>
      <point x="39" y="503" type="curve"/>
      <point x="27" y="483"/>
      <point x="41" y="477"/>
      <point x="48" y="477" type="curve"/>
      <point x="58" y="477"/>
      <point x="110" y="496"/>
      <point x="140" y="506" type="curve"/>
      <point x="171" y="496"/>
      <point x="224" y="477"/>
    </contour>
    <contour>
      <point x="55" y="0" type="move" name="bottom"/>
    </contour>
    <contour>
      <point x="141" y="587" type="move" name="top"/>
    </contour>
  </outline>
</glyph>
<glyph name="jcircumflex" format="1">
  <advance width="231"/>
  <unicode hex="0135"/>
  <outline>
    <contour>
      <point x="55" y="171" type="curve"/>
      <point x="55" y="57" type="line" smooth="yes"/>
      <point x="55" y="-69"/>
      <point x="27" y="-106"/>
      <point x="-32" y="-128" type="curve"/>
      <point x="-32" y="-137"/>
      <point x="-25" y="-155"/>
      <point x="-17" y="-158" type="curve"/>
      <point x="143" y="-112"/>
      <point x="178" y="-59"/>
      <point x="178" y="81" type="curve"/>
      <point x="178" y="178" type="line" smooth="yes"/>
      <point x="178" y="223"/>
      <point x="186" y="279"/>
      <point x="186" y="298" type="curve"/>
      <point x="186" y="303"/>
      <point x="180" y="309"/>
      <point x="174" y="309" type="curve"/>
      <point x="167" y="309"/>
      <point x="156" y="307"/>
      <point x="157" y="307" type="curve"/>
      <point x="123" y="298"/>
      <point x="40" y="280"/>
      <point x="9" y="278" type="curve"/>
      <point x="6" y="280"/>
      <point x="4" y="268"/>
      <point x="4" y="249" type="curve"/>
      <point x="17" y="246"/>
      <point x="30" y="242"/>
      <point x="40" y="232" type="curve"/>
      <point x="50" y="222"/>
      <point x="55" y="202"/>
    </contour>
    <contour>
      <point x="209" y="330" type="curve"/>
      <point x="215" y="330"/>
      <point x="229" y="337"/>
      <point x="217" y="361" type="curve"/>
      <point x="217" y="361"/>
      <point x="171" y="396"/>
      <point x="162" y="405" type="curve"/>
      <point x="154" y="413"/>
      <point x="141" y="426"/>
      <point x="124" y="445" type="curve"/>
      <point x="122" y="450"/>
      <point x="118" y="452"/>
      <point x="115" y="452" type="curve"/>
      <point x="113" y="452"/>
      <point x="110" y="450"/>
      <point x="107" y="445" type="curve"/>
      <point x="98" y="431"/>
      <point x="84" y="420"/>
      <point x="69" y="406" type="curve"/>
      <point x="60" y="399"/>
      <point x="49" y="390"/>
      <point x="36" y="380" type="curve"/>
      <point x="23" y="370"/>
      <point x="16" y="363"/>
      <point x="14" y="362" type="curve"/>
      <point x="2" y="337"/>
      <point x="16" y="330"/>
      <point x="23" y="330" type="curve"/>
      <point x="33" y="330"/>
      <point x="85" y="361"/>
      <point x="115" y="373" type="curve"/>
      <point x="146" y="361"/>
      <point x="199" y="330"/>
    </contour>
    <contour>
      <point x="116" y="440" type="move" name="top"/>
    </contour>
  </outline>
</glyph>
<glyph name="lcaron" format="1">
  <advance width="233"/>
  <unicode hex="013E"/>
  <outline>
    <contour>
      <point x="198" y="415" type="curve"/>
      <point x="198" y="383"/>
      <point x="233" y="380"/>
      <point x="233" y="360" type="curve"/>
      <point x="233" y="342"/>
      <point x="222" y="332"/>
      <point x="196" y="311" type="curve"/>
      <point x="196" y="305"/>
      <point x="210" y="292"/>
      <point x="216" y="292" type="curve"/>
      <point x="269" y="318"/>
      <point x="314" y="368"/>
      <point x="314" y="404" type="curve"/>
      <point x="314" y="442"/>
      <point x="286" y="458"/>
      <point x="253" y="458" type="curve"/>
      <point x="219" y="458"/>
      <point x="198" y="442"/>
    </contour>
    <contour>
      <point x="4" y="-3" type="curve"/>
      <point x="22" y="-1"/>
      <point x="91" y="4"/>
      <point x="118" y="4" type="curve"/>
      <point x="140" y="4"/>
      <point x="211" y="-1"/>
      <point x="236" y="-3" type="curve"/>
      <point x="237" y="-2"/>
      <point x="238" y="3"/>
      <point x="238" y="9" type="curve"/>
      <point x="238" y="18"/>
      <point x="236" y="26"/>
      <point x="235" y="26" type="curve"/>
      <point x="227" y="26"/>
      <point x="189" y="39"/>
      <point x="187" y="45" type="curve"/>
      <point x="184" y="57"/>
      <point x="181" y="77"/>
      <point x="181" y="109" type="curve"/>
      <point x="181" y="391" type="line" smooth="yes"/>
      <point x="181" y="416"/>
      <point x="184" y="442"/>
      <point x="190" y="466" type="curve"/>
      <point x="190" y="471"/>
      <point x="185" y="477"/>
      <point x="180" y="479" type="curve"/>
      <point x="119" y="466"/>
      <point x="63" y="457"/>
      <point x="9" y="451" type="curve"/>
      <point x="6" y="451"/>
      <point x="5" y="447"/>
      <point x="5" y="439" type="curve"/>
      <point x="5" y="427"/>
      <point x="6" y="420"/>
      <point x="9" y="420" type="curve"/>
      <point x="16" y="420" type="line" smooth="yes"/>
      <point x="16" y="420"/>
      <point x="45" y="418"/>
      <point x="50" y="410" type="curve"/>
      <point x="56" y="400"/>
      <point x="58" y="385"/>
      <point x="58" y="345" type="curve"/>
      <point x="58" y="100" type="line" smooth="yes"/>
      <point x="58" y="77"/>
      <point x="57" y="60"/>
      <point x="53" y="45" type="curve"/>
      <point x="51" y="39"/>
      <point x="14" y="26"/>
      <point x="3" y="26" type="curve"/>
      <point x="1" y="26"/>
      <point x="0" y="22"/>
      <point x="0" y="13" type="curve"/>
      <point x="0" y="5"/>
      <point x="1" y="-1"/>
    </contour>
    <contour>
      <point x="198" y="306" type="move" name="_topright"/>
    </contour>
    <contour>
      <point x="121" y="0" type="move" name="bottom"/>
    </contour>
    <contour>
      <point x="121" y="226" type="move" name="center"/>
    </contour>
    <contour>
      <point x="264" y="226" type="move" name="dotacc"/>
    </contour>
    <contour>
      <point x="121" y="453" type="move" name="top"/>
    </contour>
    <contour>
      <point x="198" y="306" type="move" name="topright"/>
    </contour>
  </outline>
</glyph>
<glyph name="ncommaaccent" format="1">
  <advance width="464"/>
  <unicode hex="0146"/>
  <outline>
    <contour>
      <point x="6" y="-3" type="curve"/>
      <point x="-5" y="-3"/>
      <point x="89" y="4"/>
      <point x="120" y="4" type="curve"/>
      <point x="151" y="4"/>
      <point x="236" y="-3"/>
      <point x="228" y="-3" type="curve"/>
      <point x="228" y="-2"/>
      <point x="229" y="3"/>
      <point x="229" y="8" type="curve"/>
      <point x="229" y="16"/>
      <point x="228" y="26"/>
      <point x="226" y="26" type="curve"/>
      <point x="218" y="26"/>
      <point x="189" y="40"/>
      <point x="188" y="45" type="curve"/>
      <point x="185" y="53"/>
      <point x="183" y="69"/>
      <point x="183" y="109" type="curve"/>
      <point x="183" y="196" type="line" smooth="yes"/>
      <point x="183" y="226"/>
      <point x="206" y="240"/>
      <point x="232" y="240" type="curve"/>
      <point x="257" y="240"/>
      <point x="283" y="225"/>
      <point x="283" y="166" type="curve"/>
      <point x="283" y="100" type="line" smooth="yes"/>
      <point x="283" y="74"/>
      <point x="282" y="57"/>
      <point x="278" y="45" type="curve"/>
      <point x="275" y="40"/>
      <point x="246" y="26"/>
      <point x="236" y="26" type="curve"/>
      <point x="234" y="26"/>
      <point x="233" y="23"/>
      <point x="233" y="13" type="curve"/>
      <point x="233" y="5"/>
      <point x="234" y="-1"/>
      <point x="237" y="-3" type="curve"/>
      <point x="227" y="-3"/>
      <point x="316" y="4"/>
      <point x="343" y="4" type="curve"/>
      <point x="370" y="4"/>
      <point x="469" y="-3"/>
      <point x="460" y="-3" type="curve"/>
      <point x="461" y="-1"/>
      <point x="462" y="6"/>
      <point x="462" y="9" type="curve"/>
      <point x="462" y="17"/>
      <point x="460" y="26"/>
      <point x="459" y="26" type="curve"/>
      <point x="449" y="26"/>
      <point x="412" y="40"/>
      <point x="411" y="45" type="curve"/>
      <point x="408" y="53"/>
      <point x="406" y="69"/>
      <point x="406" y="109" type="curve"/>
      <point x="406" y="166" type="line" smooth="yes"/>
      <point x="406" y="281"/>
      <point x="352" y="310"/>
      <point x="295" y="310" type="curve"/>
      <point x="248" y="310"/>
      <point x="217" y="290"/>
      <point x="182" y="259" type="curve"/>
      <point x="182" y="274"/>
      <point x="187" y="288"/>
      <point x="187" y="301" type="curve"/>
      <point x="187" y="306"/>
      <point x="183" y="309"/>
      <point x="177" y="309" type="curve"/>
      <point x="170" y="309"/>
      <point x="164" y="308"/>
      <point x="159" y="307" type="curve"/>
      <point x="131" y="298"/>
      <point x="46" y="274"/>
      <point x="14" y="278" type="curve"/>
      <point x="11" y="280"/>
      <point x="9" y="268"/>
      <point x="9" y="249" type="curve"/>
      <point x="22" y="246"/>
      <point x="35" y="242"/>
      <point x="45" y="232" type="curve"/>
      <point x="55" y="222"/>
      <point x="60" y="202"/>
      <point x="60" y="171" type="curve"/>
      <point x="60" y="100" type="line" smooth="yes"/>
      <point x="60" y="74"/>
      <point x="59" y="57"/>
      <point x="55" y="45" type="curve"/>
      <point x="52" y="40"/>
      <point x="16" y="26"/>
      <point x="5" y="26" type="curve"/>
      <point x="3" y="26"/>
      <point x="2" y="23"/>
      <point x="2" y="13" type="curve"/>
      <point x="2" y="2"/>
      <point x="3" y="-3"/>
    </contour>
    <contour>
      <point x="175" y="-71" type="curve"/>
      <point x="175" y="-103"/>
      <point x="210" y="-106"/>
      <point x="210" y="-126" type="curve"/>
      <point x="210" y="-144"/>
      <point x="199" y="-153"/>
      <point x="173" y="-174" type="curve"/>
      <point x="173" y="-181"/>
      <point x="187" y="-194"/>
      <point x="193" y="-194" type="curve"/>
      <point x="246" y="-168"/>
      <point x="291" y="-118"/>
      <point x="291" y="-82" type="curve"/>
      <point x="291" y="-43"/>
      <point x="263" y="-28"/>
      <point x="230" y="-28" type="curve"/>
      <point x="196" y="-28"/>
      <point x="175" y="-44"/>
    </contour>
    <contour>
      <point x="232" y="-131" type="move" name="bottom"/>
    </contour>
    <contour>
      <point x="232" y="306" type="move" name="top"/>
    </contour>
  </outline>
</glyph>
<glyph name="ncaron" format="1">
  <advance width="464"/>
  <unicode hex="0148"/>
  <outline>
    <contour>
      <point x="6" y="-3" type="curve"/>
      <point x="-5" y="-3"/>
      <point x="89" y="4"/>
      <point x="120" y="4" type="curve"/>
      <point x="151" y="4"/>
      <point x="236" y="-3"/>
      <point x="228" y="-3" type="curve"/>
      <point x="228" y="-2"/>
      <point x="229" y="3"/>
      <point x="229" y="8" type="curve"/>
      <point x="229" y="16"/>
      <point x="228" y="26"/>
      <point x="226" y="26" type="curve"/>
      <point x="218" y="26"/>
      <point x="189" y="40"/>
      <point x="188" y="45" type="curve"/>
      <point x="185" y="53"/>
      <point x="183" y="69"/>
      <point x="183" y="109" type="curve"/>
      <point x="183" y="196" type="line" smooth="yes"/>
      <point x="183" y="226"/>
      <point x="206" y="240"/>
      <point x="232" y="240" type="curve"/>
      <point x="257" y="240"/>
      <point x="283" y="225"/>
      <point x="283" y="166" type="curve"/>
      <point x="283" y="100" type="line" smooth="yes"/>
      <point x="283" y="74"/>
      <point x="282" y="57"/>
      <point x="278" y="45" type="curve"/>
      <point x="275" y="40"/>
      <point x="246" y="26"/>
      <point x="236" y="26" type="curve"/>
      <point x="234" y="26"/>
      <point x="233" y="23"/>
      <point x="233" y="13" type="curve"/>
      <point x="233" y="5"/>
      <point x="234" y="-1"/>
      <point x="237" y="-3" type="curve"/>
      <point x="227" y="-3"/>
      <point x="316" y="4"/>
      <point x="343" y="4" type="curve"/>
      <point x="370" y="4"/>
      <point x="469" y="-3"/>
      <point x="460" y="-3" type="curve"/>
      <point x="461" y="-1"/>
      <point x="462" y="6"/>
      <point x="462" y="9" type="curve"/>
      <point x="462" y="17"/>
      <point x="460" y="26"/>
      <point x="459" y="26" type="curve"/>
      <point x="449" y="26"/>
      <point x="412" y="40"/>
      <point x="411" y="45" type="curve"/>
      <point x="408" y="53"/>
      <point x="406" y="69"/>
      <point x="406" y="109" type="curve"/>
      <point x="406" y="166" type="line" smooth="yes"/>
      <point x="406" y="281"/>
      <point x="352" y="310"/>
      <point x="295" y="310" type="curve"/>
      <point x="248" y="310"/>
      <point x="217" y="290"/>
      <point x="182" y="259" type="curve"/>
      <point x="182" y="274"/>
      <point x="187" y="288"/>
      <point x="187" y="301" type="curve"/>
      <point x="187" y="306"/>
      <point x="183" y="309"/>
      <point x="177" y="309" type="curve"/>
      <point x="170" y="309"/>
      <point x="164" y="308"/>
      <point x="159" y="307" type="curve"/>
      <point x="131" y="298"/>
      <point x="46" y="274"/>
      <point x="14" y="278" type="curve"/>
      <point x="11" y="280"/>
      <point x="9" y="268"/>
      <point x="9" y="249" type="curve"/>
      <point x="22" y="246"/>
      <point x="35" y="242"/>
      <point x="45" y="232" type="curve"/>
      <point x="55" y="222"/>
      <point x="60" y="202"/>
      <point x="60" y="171" type="curve"/>
      <point x="60" y="100" type="line" smooth="yes"/>
      <point x="60" y="74"/>
      <point x="59" y="57"/>
      <point x="55" y="45" type="curve"/>
      <point x="52" y="40"/>
      <point x="16" y="26"/>
      <point x="5" y="26" type="curve"/>
      <point x="3" y="26"/>
      <point x="2" y="23"/>
      <point x="2" y="13" type="curve"/>
      <point x="2" y="2"/>
      <point x="3" y="-3"/>
    </contour>
    <contour>
      <point x="138" y="452" type="curve"/>
      <point x="132" y="452"/>
      <point x="118" y="445"/>
      <point x="130" y="421" type="curve"/>
      <point x="130" y="421"/>
      <point x="177" y="387"/>
      <point x="186" y="377" type="curve"/>
      <point x="193" y="369"/>
      <point x="206" y="356"/>
      <point x="223" y="337" type="curve"/>
      <point x="225" y="332"/>
      <point x="229" y="330"/>
      <point x="232" y="330" type="curve"/>
      <point x="234" y="330"/>
      <point x="237" y="332"/>
      <point x="240" y="337" type="curve"/>
      <point x="249" y="352"/>
      <point x="263" y="362"/>
      <point x="278" y="376" type="curve"/>
      <point x="287" y="383"/>
      <point x="298" y="393"/>
      <point x="311" y="402" type="curve"/>
      <point x="324" y="413"/>
      <point x="332" y="419"/>
      <point x="333" y="420" type="curve"/>
      <point x="345" y="445"/>
      <point x="331" y="452"/>
      <point x="324" y="452" type="curve"/>
      <point x="314" y="452"/>
      <point x="263" y="421"/>
      <point x="232" y="409" type="curve"/>
      <point x="201" y="421"/>
      <point x="148" y="452"/>
    </contour>
    <contour>
      <point x="232" y="0" type="move" name="bottom"/>
    </contour>
    <contour>
      <point x="232" y="440" type="move" name="top"/>
    </contour>
  </outline>
</glyph>
<glyph name="napostrophe" format="1">
  <advance width="464"/>
  <unicode hex="0149"/>
  <outline>
    <contour>
      <point x="9" y="311" type="curve"/>
      <point x="70" y="345"/>
      <point x="117" y="406"/>
      <point x="117" y="453" type="curve"/>
      <point x="117" y="518"/>
      <point x="89" y="537"/>
      <point x="56" y="537" type="curve"/>
      <point x="23" y="537"/>
      <point x="-6" y="514"/>
      <point x="-6" y="482" type="curve"/>
      <point x="-6" y="423"/>
      <point x="31" y="433"/>
      <point x="31" y="392" type="curve"/>
      <point x="31" y="374"/>
      <point x="21" y="363"/>
      <point x="-15" y="336" type="curve"/>
      <point x="-15" y="327"/>
      <point x="3" y="311"/>
    </contour>
    <contour>
      <point x="6" y="-3" type="curve"/>
      <point x="-5" y="-3"/>
      <point x="89" y="4"/>
      <point x="120" y="4" type="curve"/>
      <point x="151" y="4"/>
      <point x="236" y="-3"/>
      <point x="228" y="-3" type="curve"/>
      <point x="228" y="-2"/>
      <point x="229" y="3"/>
      <point x="229" y="8" type="curve"/>
      <point x="229" y="16"/>
      <point x="228" y="26"/>
      <point x="226" y="26" type="curve"/>
      <point x="218" y="26"/>
      <point x="189" y="40"/>
      <point x="188" y="45" type="curve"/>
      <point x="185" y="53"/>
      <point x="183" y="69"/>
      <point x="183" y="109" type="curve"/>
      <point x="183" y="196" type="line" smooth="yes"/>
      <point x="183" y="226"/>
      <point x="206" y="240"/>
      <point x="232" y="240" type="curve"/>
      <point x="257" y="240"/>
      <point x="283" y="225"/>
      <point x="283" y="166" type="curve"/>
      <point x="283" y="100" type="line" smooth="yes"/>
      <point x="283" y="74"/>
      <point x="282" y="57"/>
      <point x="278" y="45" type="curve"/>
      <point x="275" y="40"/>
      <point x="246" y="26"/>
      <point x="236" y="26" type="curve"/>
      <point x="234" y="26"/>
      <point x="233" y="23"/>
      <point x="233" y="13" type="curve"/>
      <point x="233" y="5"/>
      <point x="234" y="-1"/>
      <point x="237" y="-3" type="curve"/>
      <point x="227" y="-3"/>
      <point x="316" y="4"/>
      <point x="343" y="4" type="curve"/>
      <point x="370" y="4"/>
      <point x="469" y="-3"/>
      <point x="460" y="-3" type="curve"/>
      <point x="461" y="-1"/>
      <point x="462" y="6"/>
      <point x="462" y="9" type="curve"/>
      <point x="462" y="17"/>
      <point x="460" y="26"/>
      <point x="459" y="26" type="curve"/>
      <point x="449" y="26"/>
      <point x="412" y="40"/>
      <point x="411" y="45" type="curve"/>
      <point x="408" y="53"/>
      <point x="406" y="69"/>
      <point x="406" y="109" type="curve"/>
      <point x="406" y="166" type="line" smooth="yes"/>
      <point x="406" y="281"/>
      <point x="352" y="310"/>
      <point x="295" y="310" type="curve"/>
      <point x="248" y="310"/>
      <point x="217" y="290"/>
      <point x="182" y="259" type="curve"/>
      <point x="182" y="274"/>
      <point x="187" y="288"/>
      <point x="187" y="301" type="curve"/>
      <point x="187" y="306"/>
      <point x="183" y="309"/>
      <point x="177" y="309" type="curve"/>
      <point x="170" y="309"/>
      <point x="164" y="308"/>
      <point x="159" y="307" type="curve"/>
      <point x="131" y="298"/>
      <point x="46" y="274"/>
      <point x="14" y="278" type="curve"/>
      <point x="11" y="280"/>
      <point x="9" y="268"/>
      <point x="9" y="249" type="curve"/>
      <point x="22" y="246"/>
      <point x="35" y="242"/>
      <point x="45" y="232" type="curve"/>
      <point x="55" y="222"/>
      <point x="60" y="202"/>
      <point x="60" y="171" type="curve"/>
      <point x="60" y="100" type="line" smooth="yes"/>
      <point x="60" y="74"/>
      <point x="59" y="57"/>
      <point x="55" y="45" type="curve"/>
      <point x="52" y="40"/>
      <point x="16" y="26"/>
      <point x="5" y="26" type="curve"/>
      <point x="3" y="26"/>
      <point x="2" y="23"/>
      <point x="2" y="13" type="curve"/>
      <point x="2" y="2"/>
      <point x="3" y="-3"/>
    </contour>
    <contour>
      <point x="232" y="0" type="move" name="bottom"/>
    </contour>
    <contour>
      <point x="232" y="306" type="move" name="top"/>
    </contour>
  </outline>
</glyph>
<glyph name="eng" format="1">
  <advance width="452"/>
  <unicode hex="014B"/>
  <outline>
    <contour>
      <point x="293" y="310" type="curve"/>
      <point x="245" y="310"/>
      <point x="217" y="290"/>
      <point x="182" y="259" type="curve"/>
      <point x="182" y="274"/>
      <point x="187" y="288"/>
      <point x="187" y="301" type="curve"/>
      <point x="187" y="306"/>
      <point x="183" y="309"/>
      <point x="177" y="309" type="curve"/>
      <point x="170" y="309"/>
      <point x="164" y="308"/>
      <point x="159" y="307" type="curve"/>
      <point x="131" y="297"/>
      <point x="46" y="280"/>
      <point x="14" y="278" type="curve"/>
      <point x="11" y="280"/>
      <point x="9" y="268"/>
      <point x="9" y="249" type="curve"/>
      <point x="22" y="246"/>
      <point x="35" y="242"/>
      <point x="45" y="232" type="curve"/>
      <point x="55" y="222"/>
      <point x="60" y="202"/>
      <point x="60" y="171" type="curve"/>
      <point x="60" y="100" type="line" smooth="yes"/>
      <point x="60" y="74"/>
      <point x="59" y="57"/>
      <point x="55" y="45" type="curve"/>
      <point x="52" y="40"/>
      <point x="16" y="26"/>
      <point x="5" y="26" type="curve"/>
      <point x="3" y="26"/>
      <point x="2" y="23"/>
      <point x="2" y="13" type="curve"/>
      <point x="2" y="2"/>
      <point x="3" y="-3"/>
      <point x="6" y="-3" type="curve"/>
      <point x="-5" y="-3"/>
      <point x="89" y="4"/>
      <point x="120" y="4" type="curve"/>
      <point x="151" y="4"/>
      <point x="236" y="-3"/>
      <point x="228" y="-3" type="curve"/>
      <point x="228" y="-2"/>
      <point x="229" y="3"/>
      <point x="229" y="8" type="curve"/>
      <point x="229" y="16"/>
      <point x="228" y="26"/>
      <point x="226" y="26" type="curve"/>
      <point x="218" y="26"/>
      <point x="189" y="40"/>
      <point x="188" y="45" type="curve"/>
      <point x="184" y="53"/>
      <point x="183" y="69"/>
      <point x="183" y="109" type="curve"/>
      <point x="183" y="196" type="line" smooth="yes"/>
      <point x="183" y="226"/>
      <point x="202" y="240"/>
      <point x="230" y="240" type="curve"/>
      <point x="252" y="240"/>
      <point x="279" y="225"/>
      <point x="279" y="166" type="curve"/>
      <point x="279" y="57" type="line" smooth="yes"/>
      <point x="279" y="-69"/>
      <point x="250" y="-106"/>
      <point x="192" y="-128" type="curve"/>
      <point x="192" y="-137"/>
      <point x="199" y="-155"/>
      <point x="206" y="-158" type="curve"/>
      <point x="367" y="-112"/>
      <point x="401" y="-59"/>
      <point x="401" y="81" type="curve"/>
      <point x="401" y="166" type="line" smooth="yes"/>
      <point x="401" y="281"/>
      <point x="347" y="310"/>
    </contour>
  </outline>
</glyph>
<glyph name="Omacron" format="1">
  <advance width="541"/>
  <unicode hex="014C"/>
  <outline>
    <contour>
      <point x="354" y="524" type="line"/>
      <point x="191" y="524" type="line"/>
      <point x="191" y="485" type="line"/>
      <point x="354" y="485" type="line"/>
    </contour>
    <contour>
      <point x="272" y="-7" type="curve"/>
      <point x="402" y="-7"/>
      <point x="511" y="94"/>
      <point x="511" y="226" type="curve"/>
      <point x="511" y="355"/>
      <point x="404" y="460"/>
      <point x="273" y="460" type="curve"/>
      <point x="138" y="460"/>
      <point x="31" y="355"/>
      <point x="31" y="227" type="curve"/>
      <point x="31" y="95"/>
      <point x="137" y="-7"/>
    </contour>
    <contour>
      <point x="280" y="38" type="curve"/>
      <point x="216" y="38"/>
      <point x="174" y="131"/>
      <point x="174" y="240" type="curve"/>
      <point x="174" y="343"/>
      <point x="208" y="414"/>
      <point x="260" y="414" type="curve"/>
      <point x="325" y="414"/>
      <point x="367" y="321"/>
      <point x="367" y="214" type="curve"/>
      <point x="367" y="111"/>
      <point x="334" y="38"/>
    </contour>
    <contour>
      <point x="273" y="453" type="move" name="_top"/>
    </contour>
    <contour>
      <point x="272" y="0" type="move" name="bottom"/>
    </contour>
    <contour>
      <point x="272" y="226" type="move" name="center"/>
    </contour>
    <contour>
      <point x="473" y="7" type="move" name="ogonek"/>
    </contour>
    <contour>
      <point x="272" y="453" type="move" name="top"/>
    </contour>
    <contour>
      <point x="36" y="453" type="move" name="topleft"/>
    </contour>
    <contour>
      <point x="507" y="453" type="move" name="topright"/>
    </contour>
  </outline>
</glyph>
<glyph name="omacron" format="1">
  <advance width="394"/>
  <unicode hex="014D"/>
  <outline>
    <contour>
      <point x="182" y="266" type="curve"/>
      <point x="214" y="266"/>
      <point x="247" y="206"/>
      <point x="247" y="142" type="curve"/>
      <point x="247" y="71"/>
      <point x="235" y="41"/>
      <point x="213" y="41" type="curve"/>
      <point x="176" y="41"/>
      <point x="147" y="103"/>
      <point x="147" y="169" type="curve"/>
      <point x="147" y="241"/>
      <point x="159" y="266"/>
    </contour>
    <contour>
      <point x="192" y="312" type="curve"/>
      <point x="92" y="312"/>
      <point x="13" y="244"/>
      <point x="13" y="154" type="curve"/>
      <point x="13" y="62"/>
      <point x="91" y="-5"/>
      <point x="200" y="-5" type="curve"/>
      <point x="301" y="-5"/>
      <point x="380" y="62"/>
      <point x="380" y="154" type="curve"/>
      <point x="380" y="241"/>
      <point x="297" y="312"/>
    </contour>
    <contour>
      <point x="279" y="391" type="line"/>
      <point x="116" y="391" type="line"/>
      <point x="116" y="352" type="line"/>
      <point x="279" y="352" type="line"/>
    </contour>
    <contour>
      <point x="198" y="0" type="move" name="bottom"/>
    </contour>
    <contour>
      <point x="198" y="149" type="move" name="center"/>
    </contour>
    <contour>
      <point x="356" y="7" type="move" name="ogonek"/>
    </contour>
    <contour>
      <point x="198" y="440" type="move" name="top"/>
    </contour>
    <contour>
      <point x="380" y="297" type="move" name="topright"/>
    </contour>
  </outline>
</glyph>
<glyph name="obreve" format="1">
  <advance width="394"/>
  <unicode hex="014F"/>
  <outline>
    <contour>
      <point x="134" y="420" type="curve"/>
      <point x="134" y="421"/>
      <point x="133" y="422"/>
      <point x="131" y="422" type="curve"/>
      <point x="126" y="422"/>
      <point x="104" y="416"/>
      <point x="104" y="412" type="curve"/>
      <point x="114" y="360"/>
      <point x="149" y="330"/>
      <point x="197" y="330" type="curve"/>
      <point x="247" y="330"/>
      <point x="285" y="365"/>
      <point x="291" y="412" type="curve"/>
      <point x="291" y="416"/>
      <point x="269" y="422"/>
      <point x="263" y="422" type="curve"/>
      <point x="261" y="422"/>
      <point x="260" y="421"/>
      <point x="260" y="420" type="curve"/>
      <point x="250" y="390"/>
      <point x="230" y="379"/>
      <point x="198" y="379" type="curve"/>
      <point x="166" y="379"/>
      <point x="145" y="390"/>
    </contour>
    <contour>
      <point x="182" y="266" type="curve"/>
      <point x="214" y="266"/>
      <point x="247" y="206"/>
      <point x="247" y="142" type="curve"/>
      <point x="247" y="71"/>
      <point x="235" y="41"/>
      <point x="213" y="41" type="curve"/>
      <point x="176" y="41"/>
      <point x="147" y="103"/>
      <point x="147" y="169" type="curve"/>
      <point x="147" y="241"/>
      <point x="159" y="266"/>
    </contour>
    <contour>
      <point x="192" y="312" type="curve"/>
      <point x="92" y="312"/>
      <point x="13" y="244"/>
      <point x="13" y="154" type="curve"/>
      <point x="13" y="62"/>
      <point x="91" y="-5"/>
      <point x="200" y="-5" type="curve"/>
      <point x="301" y="-5"/>
      <point x="380" y="62"/>
      <point x="380" y="154" type="curve"/>
      <point x="380" y="241"/>
      <point x="297" y="312"/>
    </contour>
    <contour>
      <point x="198" y="306" type="move" name="_top"/>
    </contour>
    <contour>
      <point x="198" y="0" type="move" name="bottom"/>
    </contour>
    <contour>
      <point x="198" y="149" type="move" name="center"/>
    </contour>
    <contour>
      <point x="356" y="7" type="move" name="ogonek"/>
    </contour>
    <contour>
      <point x="198" y="306" type="move" name="top"/>
    </contour>
    <contour>
      <point x="380" y="297" type="move" name="topright"/>
    </contour>
  </outline>
</glyph>
<glyph name="Ohungarumlaut" format="1">
  <advance width="541"/>
  <unicode hex="0150"/>
  <outline>
    <contour>
      <point x="408" y="572" type="curve"/>
      <point x="396" y="572"/>
      <point x="388" y="570"/>
      <point x="383" y="566" type="curve"/>
      <point x="369" y="550"/>
      <point x="314" y="500"/>
      <point x="314" y="492" type="curve"/>
      <point x="314" y="488"/>
      <point x="324" y="477"/>
      <point x="329" y="477" type="curve"/>
      <point x="342" y="477"/>
      <point x="445" y="534"/>
      <point x="445" y="550" type="curve"/>
      <point x="445" y="558"/>
      <point x="435" y="572"/>
    </contour>
    <contour>
      <point x="298" y="572" type="curve"/>
      <point x="285" y="572"/>
      <point x="277" y="570"/>
      <point x="273" y="566" type="curve"/>
      <point x="259" y="550"/>
      <point x="203" y="500"/>
      <point x="203" y="492" type="curve"/>
      <point x="203" y="488"/>
      <point x="214" y="477"/>
      <point x="219" y="477" type="curve"/>
      <point x="231" y="477"/>
      <point x="335" y="534"/>
      <point x="335" y="550" type="curve"/>
      <point x="335" y="558"/>
      <point x="324" y="572"/>
    </contour>
    <contour>
      <point x="272" y="-7" type="curve"/>
      <point x="402" y="-7"/>
      <point x="511" y="94"/>
      <point x="511" y="226" type="curve"/>
      <point x="511" y="355"/>
      <point x="404" y="460"/>
      <point x="273" y="460" type="curve"/>
      <point x="138" y="460"/>
      <point x="31" y="355"/>
      <point x="31" y="227" type="curve"/>
      <point x="31" y="95"/>
      <point x="137" y="-7"/>
    </contour>
    <contour>
      <point x="280" y="38" type="curve"/>
      <point x="216" y="38"/>
      <point x="174" y="131"/>
      <point x="174" y="240" type="curve"/>
      <point x="174" y="343"/>
      <point x="208" y="414"/>
      <point x="260" y="414" type="curve"/>
      <point x="325" y="414"/>
      <point x="367" y="321"/>
      <point x="367" y="214" type="curve"/>
      <point x="367" y="111"/>
      <point x="334" y="38"/>
    </contour>
    <contour>
      <point x="273" y="453" type="move" name="_top"/>
    </contour>
    <contour>
      <point x="272" y="0" type="move" name="bottom"/>
    </contour>
    <contour>
      <point x="272" y="226" type="move" name="center"/>
    </contour>
    <contour>
      <point x="473" y="7" type="move" name="ogonek"/>
    </contour>
    <contour>
      <point x="272" y="453" type="move" name="top"/>
    </contour>
    <contour>
      <point x="36" y="453" type="move" name="topleft"/>
    </contour>
    <contour>
      <point x="507" y="453" type="move" name="topright"/>
    </contour>
  </outline>
</glyph>
<glyph name="ohungarumlaut" format="1">
  <advance width="394"/>
  <unicode hex="0151"/>
  <outline>
    <contour>
      <point x="333" y="446" type="curve"/>
      <point x="321" y="446"/>
      <point x="313" y="444"/>
      <point x="308" y="440" type="curve"/>
      <point x="294" y="424"/>
      <point x="239" y="353"/>
      <point x="239" y="345" type="curve"/>
      <point x="239" y="341"/>
      <point x="249" y="330"/>
      <point x="254" y="330" type="curve"/>
      <point x="267" y="330"/>
      <point x="370" y="401"/>
      <point x="370" y="424" type="curve"/>
      <point x="370" y="432"/>
      <point x="360" y="446"/>
    </contour>
    <contour>
      <point x="223" y="446" type="curve"/>
      <point x="210" y="446"/>
      <point x="202" y="444"/>
      <point x="198" y="440" type="curve"/>
      <point x="184" y="424"/>
      <point x="128" y="353"/>
      <point x="128" y="345" type="curve"/>
      <point x="128" y="341"/>
      <point x="139" y="330"/>
      <point x="144" y="330" type="curve"/>
      <point x="156" y="330"/>
      <point x="260" y="401"/>
      <point x="260" y="424" type="curve"/>
      <point x="260" y="432"/>
      <point x="249" y="446"/>
    </contour>
    <contour>
      <point x="182" y="266" type="curve"/>
      <point x="214" y="266"/>
      <point x="247" y="206"/>
      <point x="247" y="142" type="curve"/>
      <point x="247" y="71"/>
      <point x="235" y="41"/>
      <point x="213" y="41" type="curve"/>
      <point x="176" y="41"/>
      <point x="147" y="103"/>
      <point x="147" y="169" type="curve"/>
      <point x="147" y="241"/>
      <point x="159" y="266"/>
    </contour>
    <contour>
      <point x="192" y="312" type="curve"/>
      <point x="92" y="312"/>
      <point x="13" y="244"/>
      <point x="13" y="154" type="curve"/>
      <point x="13" y="62"/>
      <point x="91" y="-5"/>
      <point x="200" y="-5" type="curve"/>
      <point x="301" y="-5"/>
      <point x="380" y="62"/>
      <point x="380" y="154" type="curve"/>
      <point x="380" y="241"/>
      <point x="297" y="312"/>
    </contour>
    <contour>
      <point x="198" y="306" type="move" name="_top"/>
    </contour>
    <contour>
      <point x="198" y="0" type="move" name="bottom"/>
    </contour>
    <contour>
      <point x="198" y="149" type="move" name="center"/>
    </contour>
    <contour>
      <point x="356" y="7" type="move" name="ogonek"/>
    </contour>
    <contour>
      <point x="198" y="306" type="move" name="top"/>
    </contour>
    <contour>
      <point x="380" y="297" type="move" name="topright"/>
    </contour>
  </outline>
</glyph>
